<svg xmlns="http://www.w3.org/2000/svg" width="600" height="80" viewBox="0 0 600 80">
  <defs>
    <linearGradient id="g" x1="0" x2="0" y1="0" y2="1">
      <stop offset="0%" stop-color="#4ea1ff" stop-opacity="0.6"/>
      <stop offset="100%" stop-color="#4ea1ff" stop-opacity="0.05"/>
    </linearGradient>
  </defs>
  <rect width="100%" height="100%" fill="transparent"/>
  <polyline fill="none" stroke="#4ea1ff" stroke-width="2" points="6.0,74.0 7.6,74.0 9.2,74.0 10.8,74.0 12.5,74.0 14.1,74.0 15.7,74.0 17.3,74.0 18.9,74.0 20.5,74.0 22.2,74.0 23.8,74.0 25.4,74.0 27.0,74.0 28.6,74.0 30.2,74.0 31.8,74.0 33.5,74.0 35.1,74.0 36.7,74.0 38.3,74.0 39.9,74.0 41.5,74.0 43.2,74.0 44.8,74.0 46.4,74.0 48.0,74.0 49.6,74.0 51.2,74.0 52.8,74.0 54.5,74.0 56.1,73.6 57.7,73.1 59.3,74.0 60.9,74.0 62.5,74.0 64.2,74.0 65.8,74.0 67.4,74.0 69.0,73.1 70.6,73.1 72.2,74.0 73.8,74.0 75.5,67.9 77.1,50.5 78.7,63.5 80.3,73.1 81.9,70.9 83.5,69.6 85.2,74.0 86.8,74.0 88.4,73.1 90.0,74.0 91.6,70.5 93.2,73.6 94.8,74.0 96.5,74.0 98.1,74.0 99.7,70.5 101.3,71.8 102.9,46.1 104.5,39.1 106.2,71.4 107.8,48.7 109.4,51.8 111.0,64.4 112.6,57.4 114.2,71.4 115.8,72.3 117.5,74.0 119.1,74.0 120.7,74.0 122.3,74.0 123.9,74.0 125.5,69.2 127.2,69.2 128.8,72.3 130.4,71.4 132.0,67.5 133.6,74.0 135.2,70.5 136.8,74.0 138.5,74.0 140.1,74.0 141.7,73.1 143.3,71.8 144.9,74.0 146.5,74.0 148.2,74.0 149.8,74.0 151.4,74.0 153.0,74.0 154.6,6.0 156.2,25.6 157.8,70.5 159.5,62.7 161.1,74.0 162.7,64.0 164.3,57.0 165.9,73.6 167.5,74.0 169.2,74.0 170.8,74.0 172.4,66.6 174.0,70.9 175.6,70.5 177.2,73.1 178.8,71.8 180.5,73.6 182.1,74.0 183.7,74.0 185.3,73.1 186.9,74.0 188.5,74.0 190.2,74.0 191.8,74.0 193.4,74.0 195.0,74.0 196.6,74.0 198.2,74.0 199.8,74.0 201.5,74.0 203.1,74.0 204.7,74.0 206.3,74.0 207.9,74.0 209.5,74.0 211.2,73.6 212.8,74.0 214.4,74.0 216.0,74.0 217.6,74.0 219.2,74.0 220.8,74.0 222.5,74.0 224.1,72.7 225.7,74.0 227.3,74.0 228.9,73.6 230.5,74.0 232.2,74.0 233.8,74.0 235.4,74.0 237.0,74.0 238.6,74.0 240.2,74.0 241.8,74.0 243.5,74.0 245.1,74.0 246.7,74.0 248.3,70.5 249.9,70.9 251.5,74.0 253.2,73.1 254.8,73.6 256.4,73.6 258.0,69.2 259.6,69.2 261.2,74.0 262.8,74.0 264.5,74.0 266.1,73.1 267.7,57.9 269.3,73.1 270.9,73.1 272.5,73.6 274.2,68.3 275.8,72.7 277.4,74.0 279.0,73.6 280.6,74.0 282.2,74.0 283.8,74.0 285.5,74.0 287.1,74.0 288.7,70.1 290.3,73.6 291.9,74.0 293.5,74.0 295.2,74.0 296.8,74.0 298.4,74.0 300.0,74.0 301.6,70.1 303.2,73.6 304.8,74.0 306.5,74.0 308.1,74.0 309.7,74.0 311.3,74.0 312.9,74.0 314.5,74.0 316.2,74.0 317.8,74.0 319.4,73.6 321.0,74.0 322.6,74.0 324.2,73.1 325.8,73.6 327.5,74.0 329.1,74.0 330.7,74.0 332.3,74.0 333.9,74.0 335.5,74.0 337.2,74.0 338.8,74.0 340.4,73.1 342.0,73.6 343.6,74.0 345.2,74.0 346.8,74.0 348.5,74.0 350.1,74.0 351.7,74.0 353.3,74.0 354.9,74.0 356.5,74.0 358.2,74.0 359.8,74.0 361.4,74.0 363.0,74.0 364.6,74.0 366.2,74.0 367.8,74.0 369.5,74.0 371.1,74.0 372.7,74.0 374.3,74.0 375.9,74.0 377.5,74.0 379.2,74.0 380.8,74.0 382.4,74.0 384.0,74.0 385.6,74.0 387.2,74.0 388.8,73.6 390.5,68.8 392.1,73.1 393.7,74.0 395.3,74.0 396.9,74.0 398.5,72.7 400.2,74.0 401.8,73.6 403.4,74.0 405.0,73.1 406.6,74.0 408.2,74.0 409.8,74.0 411.5,74.0 413.1,74.0 414.7,74.0 416.3,73.6 417.9,74.0 419.5,74.0 421.2,74.0 422.8,74.0 424.4,74.0 426.0,74.0 427.6,74.0 429.2,74.0 430.8,73.6 432.5,73.6 434.1,74.0 435.7,73.6 437.3,74.0 438.9,74.0 440.5,71.4 442.2,74.0 443.8,74.0 445.4,74.0 447.0,74.0 448.6,74.0 450.2,74.0 451.8,74.0 453.5,74.0 455.1,73.6 456.7,72.7 458.3,73.6 459.9,68.3 461.5,73.6 463.2,64.4 464.8,66.6 466.4,66.6 468.0,74.0 469.6,70.9 471.2,74.0 472.8,74.0 474.5,74.0 476.1,74.0 477.7,74.0 479.3,73.1 480.9,73.6 482.5,74.0 484.2,71.8 485.8,74.0 487.4,74.0 489.0,72.3 490.6,74.0 492.2,73.6 493.8,74.0 495.5,74.0 497.1,74.0 498.7,74.0 500.3,74.0 501.9,74.0 503.5,73.6 505.2,73.6 506.8,74.0 508.4,74.0 510.0,74.0 511.6,74.0 513.2,73.1 514.8,74.0 516.5,74.0 518.1,74.0 519.7,68.8 521.3,74.0 522.9,74.0 524.5,72.3 526.2,74.0 527.8,73.1 529.4,73.1 531.0,74.0 532.6,74.0 534.2,74.0 535.8,74.0 537.5,72.7 539.1,73.6 540.7,74.0 542.3,74.0 543.9,74.0 545.5,74.0 547.2,74.0 548.8,74.0 550.4,74.0 552.0,74.0 553.6,74.0 555.2,74.0 556.8,74.0 558.5,74.0 560.1,74.0 561.7,74.0 563.3,74.0 564.9,74.0 566.5,74.0 568.2,74.0 569.8,74.0 571.4,74.0 573.0,74.0 574.6,74.0 576.2,74.0 577.8,74.0 579.5,74.0 581.1,72.3 582.7,73.6 584.3,74.0 585.9,74.0 587.5,74.0 589.2,74.0 590.8,71.8 592.4,72.3 594.0,74.0"/>
  <polygon points="6.0,74.0 7.6,74.0 9.2,74.0 10.8,74.0 12.5,74.0 14.1,74.0 15.7,74.0 17.3,74.0 18.9,74.0 20.5,74.0 22.2,74.0 23.8,74.0 25.4,74.0 27.0,74.0 28.6,74.0 30.2,74.0 31.8,74.0 33.5,74.0 35.1,74.0 36.7,74.0 38.3,74.0 39.9,74.0 41.5,74.0 43.2,74.0 44.8,74.0 46.4,74.0 48.0,74.0 49.6,74.0 51.2,74.0 52.8,74.0 54.5,74.0 56.1,73.6 57.7,73.1 59.3,74.0 60.9,74.0 62.5,74.0 64.2,74.0 65.8,74.0 67.4,74.0 69.0,73.1 70.6,73.1 72.2,74.0 73.8,74.0 75.5,67.9 77.1,50.5 78.7,63.5 80.3,73.1 81.9,70.9 83.5,69.6 85.2,74.0 86.8,74.0 88.4,73.1 90.0,74.0 91.6,70.5 93.2,73.6 94.8,74.0 96.5,74.0 98.1,74.0 99.7,70.5 101.3,71.8 102.9,46.1 104.5,39.1 106.2,71.4 107.8,48.7 109.4,51.8 111.0,64.4 112.6,57.4 114.2,71.4 115.8,72.3 117.5,74.0 119.1,74.0 120.7,74.0 122.3,74.0 123.9,74.0 125.5,69.2 127.2,69.2 128.8,72.3 130.4,71.4 132.0,67.5 133.6,74.0 135.2,70.5 136.8,74.0 138.5,74.0 140.1,74.0 141.7,73.1 143.3,71.8 144.9,74.0 146.5,74.0 148.2,74.0 149.8,74.0 151.4,74.0 153.0,74.0 154.6,6.0 156.2,25.6 157.8,70.5 159.5,62.7 161.1,74.0 162.7,64.0 164.3,57.0 165.9,73.6 167.5,74.0 169.2,74.0 170.8,74.0 172.4,66.6 174.0,70.9 175.6,70.5 177.2,73.1 178.8,71.8 180.5,73.6 182.1,74.0 183.7,74.0 185.3,73.1 186.9,74.0 188.5,74.0 190.2,74.0 191.8,74.0 193.4,74.0 195.0,74.0 196.6,74.0 198.2,74.0 199.8,74.0 201.5,74.0 203.1,74.0 204.7,74.0 206.3,74.0 207.9,74.0 209.5,74.0 211.2,73.6 212.8,74.0 214.4,74.0 216.0,74.0 217.6,74.0 219.2,74.0 220.8,74.0 222.5,74.0 224.1,72.7 225.7,74.0 227.3,74.0 228.9,73.6 230.5,74.0 232.2,74.0 233.8,74.0 235.4,74.0 237.0,74.0 238.6,74.0 240.2,74.0 241.8,74.0 243.5,74.0 245.1,74.0 246.7,74.0 248.3,70.5 249.9,70.9 251.5,74.0 253.2,73.1 254.8,73.6 256.4,73.6 258.0,69.2 259.6,69.2 261.2,74.0 262.8,74.0 264.5,74.0 266.1,73.1 267.7,57.9 269.3,73.1 270.9,73.1 272.5,73.6 274.2,68.3 275.8,72.7 277.4,74.0 279.0,73.6 280.6,74.0 282.2,74.0 283.8,74.0 285.5,74.0 287.1,74.0 288.7,70.1 290.3,73.6 291.9,74.0 293.5,74.0 295.2,74.0 296.8,74.0 298.4,74.0 300.0,74.0 301.6,70.1 303.2,73.6 304.8,74.0 306.5,74.0 308.1,74.0 309.7,74.0 311.3,74.0 312.9,74.0 314.5,74.0 316.2,74.0 317.8,74.0 319.4,73.6 321.0,74.0 322.6,74.0 324.2,73.1 325.8,73.6 327.5,74.0 329.1,74.0 330.7,74.0 332.3,74.0 333.9,74.0 335.5,74.0 337.2,74.0 338.8,74.0 340.4,73.1 342.0,73.6 343.6,74.0 345.2,74.0 346.8,74.0 348.5,74.0 350.1,74.0 351.7,74.0 353.3,74.0 354.9,74.0 356.5,74.0 358.2,74.0 359.8,74.0 361.4,74.0 363.0,74.0 364.6,74.0 366.2,74.0 367.8,74.0 369.5,74.0 371.1,74.0 372.7,74.0 374.3,74.0 375.9,74.0 377.5,74.0 379.2,74.0 380.8,74.0 382.4,74.0 384.0,74.0 385.6,74.0 387.2,74.0 388.8,73.6 390.5,68.8 392.1,73.1 393.7,74.0 395.3,74.0 396.9,74.0 398.5,72.7 400.2,74.0 401.8,73.6 403.4,74.0 405.0,73.1 406.6,74.0 408.2,74.0 409.8,74.0 411.5,74.0 413.1,74.0 414.7,74.0 416.3,73.6 417.9,74.0 419.5,74.0 421.2,74.0 422.8,74.0 424.4,74.0 426.0,74.0 427.6,74.0 429.2,74.0 430.8,73.6 432.5,73.6 434.1,74.0 435.7,73.6 437.3,74.0 438.9,74.0 440.5,71.4 442.2,74.0 443.8,74.0 445.4,74.0 447.0,74.0 448.6,74.0 450.2,74.0 451.8,74.0 453.5,74.0 455.1,73.6 456.7,72.7 458.3,73.6 459.9,68.3 461.5,73.6 463.2,64.4 464.8,66.6 466.4,66.6 468.0,74.0 469.6,70.9 471.2,74.0 472.8,74.0 474.5,74.0 476.1,74.0 477.7,74.0 479.3,73.1 480.9,73.6 482.5,74.0 484.2,71.8 485.8,74.0 487.4,74.0 489.0,72.3 490.6,74.0 492.2,73.6 493.8,74.0 495.5,74.0 497.1,74.0 498.7,74.0 500.3,74.0 501.9,74.0 503.5,73.6 505.2,73.6 506.8,74.0 508.4,74.0 510.0,74.0 511.6,74.0 513.2,73.1 514.8,74.0 516.5,74.0 518.1,74.0 519.7,68.8 521.3,74.0 522.9,74.0 524.5,72.3 526.2,74.0 527.8,73.1 529.4,73.1 531.0,74.0 532.6,74.0 534.2,74.0 535.8,74.0 537.5,72.7 539.1,73.6 540.7,74.0 542.3,74.0 543.9,74.0 545.5,74.0 547.2,74.0 548.8,74.0 550.4,74.0 552.0,74.0 553.6,74.0 555.2,74.0 556.8,74.0 558.5,74.0 560.1,74.0 561.7,74.0 563.3,74.0 564.9,74.0 566.5,74.0 568.2,74.0 569.8,74.0 571.4,74.0 573.0,74.0 574.6,74.0 576.2,74.0 577.8,74.0 579.5,74.0 581.1,72.3 582.7,73.6 584.3,74.0 585.9,74.0 587.5,74.0 589.2,74.0 590.8,71.8 592.4,72.3 594.0,74.0 594.0,74 6.0,74" fill="url(#g)"/>
  <text x="594" y="76" font-size="10" text-anchor="end" fill="#888">through 2026-07-05 (UTC)</text>
</svg>