<svg xmlns="http://www.w3.org/2000/svg" width="600" height="80" viewBox="0 0 600 80">
  <defs>
    <linearGradient id="g" x1="0" x2="0" y1="0" y2="1">
      <stop offset="0%" stop-color="#4ea1ff" stop-opacity="0.6"/>
      <stop offset="100%" stop-color="#4ea1ff" stop-opacity="0.05"/>
    </linearGradient>
  </defs>
  <rect width="100%" height="100%" fill="transparent"/>
  <polyline fill="none" stroke="#4ea1ff" stroke-width="2" points="6.0,74.0 7.6,74.0 9.2,74.0 10.8,74.0 12.5,74.0 14.1,74.0 15.7,74.0 17.3,74.0 18.9,74.0 20.5,74.0 22.2,74.0 23.8,74.0 25.4,74.0 27.0,74.0 28.6,74.0 30.2,74.0 31.8,74.0 33.5,74.0 35.1,74.0 36.7,74.0 38.3,74.0 39.9,74.0 41.5,74.0 43.2,74.0 44.8,74.0 46.4,74.0 48.0,74.0 49.6,74.0 51.2,74.0 52.8,74.0 54.5,74.0 56.1,74.0 57.7,74.0 59.3,74.0 60.9,74.0 62.5,74.0 64.2,74.0 65.8,74.0 67.4,74.0 69.0,74.0 70.6,74.0 72.2,74.0 73.8,74.0 75.5,74.0 77.1,74.0 78.7,74.0 80.3,74.0 81.9,74.0 83.5,74.0 85.2,74.0 86.8,74.0 88.4,74.0 90.0,74.0 91.6,74.0 93.2,74.0 94.8,74.0 96.5,74.0 98.1,74.0 99.7,74.0 101.3,74.0 102.9,74.0 104.5,74.0 106.2,74.0 107.8,74.0 109.4,74.0 111.0,74.0 112.6,74.0 114.2,74.0 115.8,74.0 117.5,74.0 119.1,74.0 120.7,74.0 122.3,74.0 123.9,74.0 125.5,74.0 127.2,74.0 128.8,74.0 130.4,74.0 132.0,74.0 133.6,74.0 135.2,74.0 136.8,74.0 138.5,74.0 140.1,74.0 141.7,74.0 143.3,74.0 144.9,74.0 146.5,74.0 148.2,74.0 149.8,74.0 151.4,74.0 153.0,74.0 154.6,74.0 156.2,74.0 157.8,74.0 159.5,74.0 161.1,74.0 162.7,74.0 164.3,74.0 165.9,73.6 167.5,73.1 169.2,74.0 170.8,74.0 172.4,74.0 174.0,74.0 175.6,74.0 177.2,74.0 178.8,73.1 180.5,73.1 182.1,74.0 183.7,74.0 185.3,67.9 186.9,50.5 188.5,63.1 190.2,73.1 191.8,70.9 193.4,69.6 195.0,74.0 196.6,74.0 198.2,73.1 199.8,74.0 201.5,70.5 203.1,73.6 204.7,74.0 206.3,74.0 207.9,74.0 209.5,70.5 211.2,71.8 212.8,46.1 214.4,39.1 216.0,71.4 217.6,48.7 219.2,51.8 220.8,64.4 222.5,57.4 224.1,71.4 225.7,72.3 227.3,74.0 228.9,74.0 230.5,74.0 232.2,74.0 233.8,74.0 235.4,69.2 237.0,69.2 238.6,72.3 240.2,71.4 241.8,67.5 243.5,74.0 245.1,70.5 246.7,74.0 248.3,74.0 249.9,74.0 251.5,73.1 253.2,71.8 254.8,74.0 256.4,74.0 258.0,74.0 259.6,74.0 261.2,74.0 262.8,74.0 264.5,6.0 266.1,25.6 267.7,70.5 269.3,62.7 270.9,74.0 272.5,64.0 274.2,57.0 275.8,73.6 277.4,74.0 279.0,74.0 280.6,74.0 282.2,66.6 283.8,70.9 285.5,70.5 287.1,73.1 288.7,71.8 290.3,73.6 291.9,74.0 293.5,74.0 295.2,73.1 296.8,74.0 298.4,74.0 300.0,74.0 301.6,74.0 303.2,74.0 304.8,74.0 306.5,74.0 308.1,74.0 309.7,74.0 311.3,74.0 312.9,74.0 314.5,74.0 316.2,74.0 317.8,74.0 319.4,74.0 321.0,70.9 322.6,74.0 324.2,74.0 325.8,74.0 327.5,74.0 329.1,74.0 330.7,74.0 332.3,74.0 333.9,72.7 335.5,74.0 337.2,74.0 338.8,73.6 340.4,74.0 342.0,74.0 343.6,74.0 345.2,74.0 346.8,74.0 348.5,74.0 350.1,74.0 351.7,74.0 353.3,74.0 354.9,74.0 356.5,74.0 358.2,70.5 359.8,70.9 361.4,74.0 363.0,73.1 364.6,73.6 366.2,73.6 367.8,69.2 369.5,69.2 371.1,74.0 372.7,74.0 374.3,74.0 375.9,73.1 377.5,57.9 379.2,73.1 380.8,73.1 382.4,73.6 384.0,68.3 385.6,72.7 387.2,74.0 388.8,73.6 390.5,74.0 392.1,74.0 393.7,74.0 395.3,74.0 396.9,74.0 398.5,70.1 400.2,73.6 401.8,74.0 403.4,74.0 405.0,74.0 406.6,74.0 408.2,74.0 409.8,74.0 411.5,70.1 413.1,73.6 414.7,74.0 416.3,74.0 417.9,74.0 419.5,74.0 421.2,74.0 422.8,74.0 424.4,74.0 426.0,74.0 427.6,74.0 429.2,73.6 430.8,74.0 432.5,74.0 434.1,73.1 435.7,73.6 437.3,74.0 438.9,74.0 440.5,74.0 442.2,74.0 443.8,74.0 445.4,74.0 447.0,74.0 448.6,74.0 450.2,73.1 451.8,73.6 453.5,74.0 455.1,74.0 456.7,74.0 458.3,74.0 459.9,74.0 461.5,74.0 463.2,74.0 464.8,74.0 466.4,74.0 468.0,74.0 469.6,74.0 471.2,74.0 472.8,74.0 474.5,74.0 476.1,74.0 477.7,74.0 479.3,74.0 480.9,74.0 482.5,74.0 484.2,74.0 485.8,74.0 487.4,74.0 489.0,74.0 490.6,74.0 492.2,74.0 493.8,74.0 495.5,74.0 497.1,74.0 498.7,73.6 500.3,68.8 501.9,73.1 503.5,74.0 505.2,74.0 506.8,74.0 508.4,72.7 510.0,74.0 511.6,73.6 513.2,74.0 514.8,73.1 516.5,74.0 518.1,74.0 519.7,74.0 521.3,74.0 522.9,74.0 524.5,74.0 526.2,73.6 527.8,74.0 529.4,74.0 531.0,74.0 532.6,74.0 534.2,74.0 535.8,74.0 537.5,74.0 539.1,74.0 540.7,73.6 542.3,73.6 543.9,74.0 545.5,73.6 547.2,74.0 548.8,74.0 550.4,71.4 552.0,74.0 553.6,74.0 555.2,74.0 556.8,74.0 558.5,74.0 560.1,74.0 561.7,74.0 563.3,74.0 564.9,73.6 566.5,72.7 568.2,73.6 569.8,68.3 571.4,73.6 573.0,64.4 574.6,66.6 576.2,66.6 577.8,74.0 579.5,70.9 581.1,74.0 582.7,74.0 584.3,74.0 585.9,71.4 587.5,74.0 589.2,73.1 590.8,73.6 592.4,74.0 594.0,74.0"/>
  <polygon points="6.0,74.0 7.6,74.0 9.2,74.0 10.8,74.0 12.5,74.0 14.1,74.0 15.7,74.0 17.3,74.0 18.9,74.0 20.5,74.0 22.2,74.0 23.8,74.0 25.4,74.0 27.0,74.0 28.6,74.0 30.2,74.0 31.8,74.0 33.5,74.0 35.1,74.0 36.7,74.0 38.3,74.0 39.9,74.0 41.5,74.0 43.2,74.0 44.8,74.0 46.4,74.0 48.0,74.0 49.6,74.0 51.2,74.0 52.8,74.0 54.5,74.0 56.1,74.0 57.7,74.0 59.3,74.0 60.9,74.0 62.5,74.0 64.2,74.0 65.8,74.0 67.4,74.0 69.0,74.0 70.6,74.0 72.2,74.0 73.8,74.0 75.5,74.0 77.1,74.0 78.7,74.0 80.3,74.0 81.9,74.0 83.5,74.0 85.2,74.0 86.8,74.0 88.4,74.0 90.0,74.0 91.6,74.0 93.2,74.0 94.8,74.0 96.5,74.0 98.1,74.0 99.7,74.0 101.3,74.0 102.9,74.0 104.5,74.0 106.2,74.0 107.8,74.0 109.4,74.0 111.0,74.0 112.6,74.0 114.2,74.0 115.8,74.0 117.5,74.0 119.1,74.0 120.7,74.0 122.3,74.0 123.9,74.0 125.5,74.0 127.2,74.0 128.8,74.0 130.4,74.0 132.0,74.0 133.6,74.0 135.2,74.0 136.8,74.0 138.5,74.0 140.1,74.0 141.7,74.0 143.3,74.0 144.9,74.0 146.5,74.0 148.2,74.0 149.8,74.0 151.4,74.0 153.0,74.0 154.6,74.0 156.2,74.0 157.8,74.0 159.5,74.0 161.1,74.0 162.7,74.0 164.3,74.0 165.9,73.6 167.5,73.1 169.2,74.0 170.8,74.0 172.4,74.0 174.0,74.0 175.6,74.0 177.2,74.0 178.8,73.1 180.5,73.1 182.1,74.0 183.7,74.0 185.3,67.9 186.9,50.5 188.5,63.1 190.2,73.1 191.8,70.9 193.4,69.6 195.0,74.0 196.6,74.0 198.2,73.1 199.8,74.0 201.5,70.5 203.1,73.6 204.7,74.0 206.3,74.0 207.9,74.0 209.5,70.5 211.2,71.8 212.8,46.1 214.4,39.1 216.0,71.4 217.6,48.7 219.2,51.8 220.8,64.4 222.5,57.4 224.1,71.4 225.7,72.3 227.3,74.0 228.9,74.0 230.5,74.0 232.2,74.0 233.8,74.0 235.4,69.2 237.0,69.2 238.6,72.3 240.2,71.4 241.8,67.5 243.5,74.0 245.1,70.5 246.7,74.0 248.3,74.0 249.9,74.0 251.5,73.1 253.2,71.8 254.8,74.0 256.4,74.0 258.0,74.0 259.6,74.0 261.2,74.0 262.8,74.0 264.5,6.0 266.1,25.6 267.7,70.5 269.3,62.7 270.9,74.0 272.5,64.0 274.2,57.0 275.8,73.6 277.4,74.0 279.0,74.0 280.6,74.0 282.2,66.6 283.8,70.9 285.5,70.5 287.1,73.1 288.7,71.8 290.3,73.6 291.9,74.0 293.5,74.0 295.2,73.1 296.8,74.0 298.4,74.0 300.0,74.0 301.6,74.0 303.2,74.0 304.8,74.0 306.5,74.0 308.1,74.0 309.7,74.0 311.3,74.0 312.9,74.0 314.5,74.0 316.2,74.0 317.8,74.0 319.4,74.0 321.0,70.9 322.6,74.0 324.2,74.0 325.8,74.0 327.5,74.0 329.1,74.0 330.7,74.0 332.3,74.0 333.9,72.7 335.5,74.0 337.2,74.0 338.8,73.6 340.4,74.0 342.0,74.0 343.6,74.0 345.2,74.0 346.8,74.0 348.5,74.0 350.1,74.0 351.7,74.0 353.3,74.0 354.9,74.0 356.5,74.0 358.2,70.5 359.8,70.9 361.4,74.0 363.0,73.1 364.6,73.6 366.2,73.6 367.8,69.2 369.5,69.2 371.1,74.0 372.7,74.0 374.3,74.0 375.9,73.1 377.5,57.9 379.2,73.1 380.8,73.1 382.4,73.6 384.0,68.3 385.6,72.7 387.2,74.0 388.8,73.6 390.5,74.0 392.1,74.0 393.7,74.0 395.3,74.0 396.9,74.0 398.5,70.1 400.2,73.6 401.8,74.0 403.4,74.0 405.0,74.0 406.6,74.0 408.2,74.0 409.8,74.0 411.5,70.1 413.1,73.6 414.7,74.0 416.3,74.0 417.9,74.0 419.5,74.0 421.2,74.0 422.8,74.0 424.4,74.0 426.0,74.0 427.6,74.0 429.2,73.6 430.8,74.0 432.5,74.0 434.1,73.1 435.7,73.6 437.3,74.0 438.9,74.0 440.5,74.0 442.2,74.0 443.8,74.0 445.4,74.0 447.0,74.0 448.6,74.0 450.2,73.1 451.8,73.6 453.5,74.0 455.1,74.0 456.7,74.0 458.3,74.0 459.9,74.0 461.5,74.0 463.2,74.0 464.8,74.0 466.4,74.0 468.0,74.0 469.6,74.0 471.2,74.0 472.8,74.0 474.5,74.0 476.1,74.0 477.7,74.0 479.3,74.0 480.9,74.0 482.5,74.0 484.2,74.0 485.8,74.0 487.4,74.0 489.0,74.0 490.6,74.0 492.2,74.0 493.8,74.0 495.5,74.0 497.1,74.0 498.7,73.6 500.3,68.8 501.9,73.1 503.5,74.0 505.2,74.0 506.8,74.0 508.4,72.7 510.0,74.0 511.6,73.6 513.2,74.0 514.8,73.1 516.5,74.0 518.1,74.0 519.7,74.0 521.3,74.0 522.9,74.0 524.5,74.0 526.2,73.6 527.8,74.0 529.4,74.0 531.0,74.0 532.6,74.0 534.2,74.0 535.8,74.0 537.5,74.0 539.1,74.0 540.7,73.6 542.3,73.6 543.9,74.0 545.5,73.6 547.2,74.0 548.8,74.0 550.4,71.4 552.0,74.0 553.6,74.0 555.2,74.0 556.8,74.0 558.5,74.0 560.1,74.0 561.7,74.0 563.3,74.0 564.9,73.6 566.5,72.7 568.2,73.6 569.8,68.3 571.4,73.6 573.0,64.4 574.6,66.6 576.2,66.6 577.8,74.0 579.5,70.9 581.1,74.0 582.7,74.0 584.3,74.0 585.9,71.4 587.5,74.0 589.2,73.1 590.8,73.6 592.4,74.0 594.0,74.0 594.0,74 6.0,74" fill="url(#g)"/>
  <text x="594" y="76" font-size="10" text-anchor="end" fill="#888">through 2026-04-28 (UTC)</text>
</svg>