<svg xmlns="http://www.w3.org/2000/svg" width="600" height="80" viewBox="0 0 600 80">
  <defs>
    <linearGradient id="g" x1="0" x2="0" y1="0" y2="1">
      <stop offset="0%" stop-color="#4ea1ff" stop-opacity="0.6"/>
      <stop offset="100%" stop-color="#4ea1ff" stop-opacity="0.05"/>
    </linearGradient>
  </defs>
  <rect width="100%" height="100%" fill="transparent"/>
  <polyline fill="none" stroke="#4ea1ff" stroke-width="2" points="6.0,74.0 7.6,74.0 9.2,74.0 10.8,74.0 12.5,74.0 14.1,74.0 15.7,74.0 17.3,74.0 18.9,74.0 20.5,74.0 22.2,74.0 23.8,74.0 25.4,74.0 27.0,74.0 28.6,74.0 30.2,74.0 31.8,74.0 33.5,74.0 35.1,74.0 36.7,74.0 38.3,74.0 39.9,74.0 41.5,74.0 43.2,74.0 44.8,74.0 46.4,74.0 48.0,74.0 49.6,74.0 51.2,74.0 52.8,74.0 54.5,74.0 56.1,74.0 57.7,74.0 59.3,74.0 60.9,74.0 62.5,74.0 64.2,74.0 65.8,74.0 67.4,74.0 69.0,74.0 70.6,74.0 72.2,74.0 73.8,74.0 75.5,74.0 77.1,74.0 78.7,74.0 80.3,74.0 81.9,74.0 83.5,74.0 85.2,74.0 86.8,74.0 88.4,74.0 90.0,74.0 91.6,74.0 93.2,74.0 94.8,74.0 96.5,74.0 98.1,74.0 99.7,74.0 101.3,74.0 102.9,74.0 104.5,74.0 106.2,74.0 107.8,74.0 109.4,74.0 111.0,74.0 112.6,74.0 114.2,74.0 115.8,74.0 117.5,74.0 119.1,74.0 120.7,74.0 122.3,74.0 123.9,74.0 125.5,74.0 127.2,74.0 128.8,74.0 130.4,74.0 132.0,74.0 133.6,74.0 135.2,74.0 136.8,74.0 138.5,74.0 140.1,74.0 141.7,74.0 143.3,74.0 144.9,74.0 146.5,73.6 148.2,73.1 149.8,74.0 151.4,74.0 153.0,74.0 154.6,74.0 156.2,74.0 157.8,74.0 159.5,73.1 161.1,73.1 162.7,74.0 164.3,74.0 165.9,67.9 167.5,50.5 169.2,63.1 170.8,73.1 172.4,70.9 174.0,69.6 175.6,74.0 177.2,74.0 178.8,73.1 180.5,74.0 182.1,70.5 183.7,73.6 185.3,74.0 186.9,74.0 188.5,74.0 190.2,70.5 191.8,71.8 193.4,46.1 195.0,39.1 196.6,71.4 198.2,48.7 199.8,51.8 201.5,64.4 203.1,57.4 204.7,71.4 206.3,72.3 207.9,74.0 209.5,74.0 211.2,74.0 212.8,74.0 214.4,74.0 216.0,69.2 217.6,69.2 219.2,72.3 220.8,71.4 222.5,67.5 224.1,74.0 225.7,70.5 227.3,74.0 228.9,74.0 230.5,74.0 232.2,73.1 233.8,71.8 235.4,74.0 237.0,74.0 238.6,74.0 240.2,74.0 241.8,74.0 243.5,74.0 245.1,6.0 246.7,25.6 248.3,70.5 249.9,62.7 251.5,74.0 253.2,64.0 254.8,57.0 256.4,73.6 258.0,74.0 259.6,74.0 261.2,74.0 262.8,66.6 264.5,70.9 266.1,70.5 267.7,73.1 269.3,71.8 270.9,73.6 272.5,74.0 274.2,74.0 275.8,73.1 277.4,74.0 279.0,74.0 280.6,74.0 282.2,74.0 283.8,74.0 285.5,74.0 287.1,74.0 288.7,74.0 290.3,74.0 291.9,74.0 293.5,74.0 295.2,74.0 296.8,74.0 298.4,74.0 300.0,74.0 301.6,70.9 303.2,74.0 304.8,74.0 306.5,74.0 308.1,74.0 309.7,74.0 311.3,74.0 312.9,74.0 314.5,72.7 316.2,74.0 317.8,74.0 319.4,73.6 321.0,74.0 322.6,74.0 324.2,74.0 325.8,74.0 327.5,74.0 329.1,74.0 330.7,74.0 332.3,74.0 333.9,74.0 335.5,74.0 337.2,74.0 338.8,70.5 340.4,70.9 342.0,74.0 343.6,73.1 345.2,73.6 346.8,73.6 348.5,69.2 350.1,69.2 351.7,74.0 353.3,74.0 354.9,74.0 356.5,73.1 358.2,57.9 359.8,73.1 361.4,73.1 363.0,73.6 364.6,68.3 366.2,72.7 367.8,74.0 369.5,73.6 371.1,74.0 372.7,74.0 374.3,74.0 375.9,74.0 377.5,74.0 379.2,70.1 380.8,73.6 382.4,74.0 384.0,74.0 385.6,74.0 387.2,74.0 388.8,74.0 390.5,74.0 392.1,70.1 393.7,73.6 395.3,74.0 396.9,74.0 398.5,74.0 400.2,74.0 401.8,74.0 403.4,74.0 405.0,74.0 406.6,74.0 408.2,74.0 409.8,73.6 411.5,74.0 413.1,74.0 414.7,73.1 416.3,73.6 417.9,74.0 419.5,74.0 421.2,74.0 422.8,74.0 424.4,74.0 426.0,74.0 427.6,74.0 429.2,74.0 430.8,73.1 432.5,73.6 434.1,74.0 435.7,74.0 437.3,74.0 438.9,74.0 440.5,74.0 442.2,74.0 443.8,74.0 445.4,74.0 447.0,74.0 448.6,74.0 450.2,74.0 451.8,74.0 453.5,74.0 455.1,74.0 456.7,74.0 458.3,74.0 459.9,74.0 461.5,74.0 463.2,74.0 464.8,74.0 466.4,74.0 468.0,74.0 469.6,74.0 471.2,74.0 472.8,74.0 474.5,74.0 476.1,74.0 477.7,74.0 479.3,73.6 480.9,68.8 482.5,73.1 484.2,74.0 485.8,74.0 487.4,74.0 489.0,72.7 490.6,74.0 492.2,73.6 493.8,74.0 495.5,73.1 497.1,74.0 498.7,74.0 500.3,74.0 501.9,74.0 503.5,74.0 505.2,74.0 506.8,73.6 508.4,74.0 510.0,74.0 511.6,74.0 513.2,74.0 514.8,74.0 516.5,74.0 518.1,74.0 519.7,74.0 521.3,73.6 522.9,73.6 524.5,74.0 526.2,73.6 527.8,74.0 529.4,74.0 531.0,71.4 532.6,74.0 534.2,74.0 535.8,74.0 537.5,74.0 539.1,74.0 540.7,74.0 542.3,74.0 543.9,74.0 545.5,73.6 547.2,72.7 548.8,73.6 550.4,68.3 552.0,73.6 553.6,64.4 555.2,66.6 556.8,66.6 558.5,74.0 560.1,70.9 561.7,74.0 563.3,74.0 564.9,74.0 566.5,74.0 568.2,74.0 569.8,73.1 571.4,73.6 573.0,74.0 574.6,70.1 576.2,74.0 577.8,74.0 579.5,70.1 581.1,74.0 582.7,73.6 584.3,74.0 585.9,74.0 587.5,74.0 589.2,74.0 590.8,74.0 592.4,74.0 594.0,74.0"/>
  <polygon points="6.0,74.0 7.6,74.0 9.2,74.0 10.8,74.0 12.5,74.0 14.1,74.0 15.7,74.0 17.3,74.0 18.9,74.0 20.5,74.0 22.2,74.0 23.8,74.0 25.4,74.0 27.0,74.0 28.6,74.0 30.2,74.0 31.8,74.0 33.5,74.0 35.1,74.0 36.7,74.0 38.3,74.0 39.9,74.0 41.5,74.0 43.2,74.0 44.8,74.0 46.4,74.0 48.0,74.0 49.6,74.0 51.2,74.0 52.8,74.0 54.5,74.0 56.1,74.0 57.7,74.0 59.3,74.0 60.9,74.0 62.5,74.0 64.2,74.0 65.8,74.0 67.4,74.0 69.0,74.0 70.6,74.0 72.2,74.0 73.8,74.0 75.5,74.0 77.1,74.0 78.7,74.0 80.3,74.0 81.9,74.0 83.5,74.0 85.2,74.0 86.8,74.0 88.4,74.0 90.0,74.0 91.6,74.0 93.2,74.0 94.8,74.0 96.5,74.0 98.1,74.0 99.7,74.0 101.3,74.0 102.9,74.0 104.5,74.0 106.2,74.0 107.8,74.0 109.4,74.0 111.0,74.0 112.6,74.0 114.2,74.0 115.8,74.0 117.5,74.0 119.1,74.0 120.7,74.0 122.3,74.0 123.9,74.0 125.5,74.0 127.2,74.0 128.8,74.0 130.4,74.0 132.0,74.0 133.6,74.0 135.2,74.0 136.8,74.0 138.5,74.0 140.1,74.0 141.7,74.0 143.3,74.0 144.9,74.0 146.5,73.6 148.2,73.1 149.8,74.0 151.4,74.0 153.0,74.0 154.6,74.0 156.2,74.0 157.8,74.0 159.5,73.1 161.1,73.1 162.7,74.0 164.3,74.0 165.9,67.9 167.5,50.5 169.2,63.1 170.8,73.1 172.4,70.9 174.0,69.6 175.6,74.0 177.2,74.0 178.8,73.1 180.5,74.0 182.1,70.5 183.7,73.6 185.3,74.0 186.9,74.0 188.5,74.0 190.2,70.5 191.8,71.8 193.4,46.1 195.0,39.1 196.6,71.4 198.2,48.7 199.8,51.8 201.5,64.4 203.1,57.4 204.7,71.4 206.3,72.3 207.9,74.0 209.5,74.0 211.2,74.0 212.8,74.0 214.4,74.0 216.0,69.2 217.6,69.2 219.2,72.3 220.8,71.4 222.5,67.5 224.1,74.0 225.7,70.5 227.3,74.0 228.9,74.0 230.5,74.0 232.2,73.1 233.8,71.8 235.4,74.0 237.0,74.0 238.6,74.0 240.2,74.0 241.8,74.0 243.5,74.0 245.1,6.0 246.7,25.6 248.3,70.5 249.9,62.7 251.5,74.0 253.2,64.0 254.8,57.0 256.4,73.6 258.0,74.0 259.6,74.0 261.2,74.0 262.8,66.6 264.5,70.9 266.1,70.5 267.7,73.1 269.3,71.8 270.9,73.6 272.5,74.0 274.2,74.0 275.8,73.1 277.4,74.0 279.0,74.0 280.6,74.0 282.2,74.0 283.8,74.0 285.5,74.0 287.1,74.0 288.7,74.0 290.3,74.0 291.9,74.0 293.5,74.0 295.2,74.0 296.8,74.0 298.4,74.0 300.0,74.0 301.6,70.9 303.2,74.0 304.8,74.0 306.5,74.0 308.1,74.0 309.7,74.0 311.3,74.0 312.9,74.0 314.5,72.7 316.2,74.0 317.8,74.0 319.4,73.6 321.0,74.0 322.6,74.0 324.2,74.0 325.8,74.0 327.5,74.0 329.1,74.0 330.7,74.0 332.3,74.0 333.9,74.0 335.5,74.0 337.2,74.0 338.8,70.5 340.4,70.9 342.0,74.0 343.6,73.1 345.2,73.6 346.8,73.6 348.5,69.2 350.1,69.2 351.7,74.0 353.3,74.0 354.9,74.0 356.5,73.1 358.2,57.9 359.8,73.1 361.4,73.1 363.0,73.6 364.6,68.3 366.2,72.7 367.8,74.0 369.5,73.6 371.1,74.0 372.7,74.0 374.3,74.0 375.9,74.0 377.5,74.0 379.2,70.1 380.8,73.6 382.4,74.0 384.0,74.0 385.6,74.0 387.2,74.0 388.8,74.0 390.5,74.0 392.1,70.1 393.7,73.6 395.3,74.0 396.9,74.0 398.5,74.0 400.2,74.0 401.8,74.0 403.4,74.0 405.0,74.0 406.6,74.0 408.2,74.0 409.8,73.6 411.5,74.0 413.1,74.0 414.7,73.1 416.3,73.6 417.9,74.0 419.5,74.0 421.2,74.0 422.8,74.0 424.4,74.0 426.0,74.0 427.6,74.0 429.2,74.0 430.8,73.1 432.5,73.6 434.1,74.0 435.7,74.0 437.3,74.0 438.9,74.0 440.5,74.0 442.2,74.0 443.8,74.0 445.4,74.0 447.0,74.0 448.6,74.0 450.2,74.0 451.8,74.0 453.5,74.0 455.1,74.0 456.7,74.0 458.3,74.0 459.9,74.0 461.5,74.0 463.2,74.0 464.8,74.0 466.4,74.0 468.0,74.0 469.6,74.0 471.2,74.0 472.8,74.0 474.5,74.0 476.1,74.0 477.7,74.0 479.3,73.6 480.9,68.8 482.5,73.1 484.2,74.0 485.8,74.0 487.4,74.0 489.0,72.7 490.6,74.0 492.2,73.6 493.8,74.0 495.5,73.1 497.1,74.0 498.7,74.0 500.3,74.0 501.9,74.0 503.5,74.0 505.2,74.0 506.8,73.6 508.4,74.0 510.0,74.0 511.6,74.0 513.2,74.0 514.8,74.0 516.5,74.0 518.1,74.0 519.7,74.0 521.3,73.6 522.9,73.6 524.5,74.0 526.2,73.6 527.8,74.0 529.4,74.0 531.0,71.4 532.6,74.0 534.2,74.0 535.8,74.0 537.5,74.0 539.1,74.0 540.7,74.0 542.3,74.0 543.9,74.0 545.5,73.6 547.2,72.7 548.8,73.6 550.4,68.3 552.0,73.6 553.6,64.4 555.2,66.6 556.8,66.6 558.5,74.0 560.1,70.9 561.7,74.0 563.3,74.0 564.9,74.0 566.5,74.0 568.2,74.0 569.8,73.1 571.4,73.6 573.0,74.0 574.6,70.1 576.2,74.0 577.8,74.0 579.5,70.1 581.1,74.0 582.7,73.6 584.3,74.0 585.9,74.0 587.5,74.0 589.2,74.0 590.8,74.0 592.4,74.0 594.0,74.0 594.0,74 6.0,74" fill="url(#g)"/>
  <text x="594" y="76" font-size="10" text-anchor="end" fill="#888">through 2026-05-10 (UTC)</text>
</svg>