<svg xmlns="http://www.w3.org/2000/svg" width="600" height="80" viewBox="0 0 600 80">
  <defs>
    <linearGradient id="g" x1="0" x2="0" y1="0" y2="1">
      <stop offset="0%" stop-color="#4ea1ff" stop-opacity="0.6"/>
      <stop offset="100%" stop-color="#4ea1ff" stop-opacity="0.05"/>
    </linearGradient>
  </defs>
  <rect width="100%" height="100%" fill="transparent"/>
  <polyline fill="none" stroke="#4ea1ff" stroke-width="2" points="6.0,63.5 7.6,73.1 9.2,70.9 10.8,69.6 12.5,74.0 14.1,74.0 15.7,73.1 17.3,74.0 18.9,70.5 20.5,73.6 22.2,74.0 23.8,74.0 25.4,74.0 27.0,70.5 28.6,71.8 30.2,46.1 31.8,39.1 33.5,71.4 35.1,48.7 36.7,51.8 38.3,64.4 39.9,57.4 41.5,71.4 43.2,72.3 44.8,74.0 46.4,74.0 48.0,74.0 49.6,74.0 51.2,74.0 52.8,69.2 54.5,69.2 56.1,72.3 57.7,71.4 59.3,67.5 60.9,74.0 62.5,70.5 64.2,74.0 65.8,74.0 67.4,74.0 69.0,73.1 70.6,71.8 72.2,74.0 73.8,74.0 75.5,74.0 77.1,74.0 78.7,74.0 80.3,74.0 81.9,6.0 83.5,25.6 85.2,70.5 86.8,62.7 88.4,74.0 90.0,64.0 91.6,57.0 93.2,73.6 94.8,74.0 96.5,74.0 98.1,74.0 99.7,66.6 101.3,70.9 102.9,70.5 104.5,73.1 106.2,71.8 107.8,73.6 109.4,74.0 111.0,74.0 112.6,73.1 114.2,74.0 115.8,74.0 117.5,74.0 119.1,74.0 120.7,74.0 122.3,74.0 123.9,74.0 125.5,74.0 127.2,74.0 128.8,74.0 130.4,74.0 132.0,74.0 133.6,74.0 135.2,74.0 136.8,74.0 138.5,73.6 140.1,74.0 141.7,74.0 143.3,74.0 144.9,74.0 146.5,74.0 148.2,74.0 149.8,74.0 151.4,72.7 153.0,74.0 154.6,74.0 156.2,73.6 157.8,74.0 159.5,74.0 161.1,74.0 162.7,74.0 164.3,74.0 165.9,74.0 167.5,74.0 169.2,74.0 170.8,74.0 172.4,74.0 174.0,74.0 175.6,70.5 177.2,70.9 178.8,74.0 180.5,73.1 182.1,73.6 183.7,73.6 185.3,69.2 186.9,69.2 188.5,74.0 190.2,74.0 191.8,74.0 193.4,73.1 195.0,57.9 196.6,73.1 198.2,73.1 199.8,73.6 201.5,68.3 203.1,72.7 204.7,74.0 206.3,73.6 207.9,74.0 209.5,74.0 211.2,74.0 212.8,74.0 214.4,74.0 216.0,70.1 217.6,73.6 219.2,74.0 220.8,74.0 222.5,74.0 224.1,74.0 225.7,74.0 227.3,74.0 228.9,70.1 230.5,73.6 232.2,74.0 233.8,74.0 235.4,74.0 237.0,74.0 238.6,74.0 240.2,74.0 241.8,74.0 243.5,74.0 245.1,74.0 246.7,73.6 248.3,74.0 249.9,74.0 251.5,73.1 253.2,73.6 254.8,74.0 256.4,74.0 258.0,74.0 259.6,74.0 261.2,74.0 262.8,74.0 264.5,74.0 266.1,74.0 267.7,73.1 269.3,73.6 270.9,74.0 272.5,74.0 274.2,74.0 275.8,74.0 277.4,74.0 279.0,74.0 280.6,74.0 282.2,74.0 283.8,74.0 285.5,74.0 287.1,74.0 288.7,74.0 290.3,74.0 291.9,74.0 293.5,74.0 295.2,74.0 296.8,74.0 298.4,74.0 300.0,74.0 301.6,74.0 303.2,74.0 304.8,74.0 306.5,74.0 308.1,74.0 309.7,74.0 311.3,74.0 312.9,74.0 314.5,74.0 316.2,73.6 317.8,68.8 319.4,73.1 321.0,74.0 322.6,74.0 324.2,74.0 325.8,72.7 327.5,74.0 329.1,73.6 330.7,74.0 332.3,73.1 333.9,74.0 335.5,74.0 337.2,74.0 338.8,74.0 340.4,74.0 342.0,74.0 343.6,73.6 345.2,74.0 346.8,74.0 348.5,74.0 350.1,74.0 351.7,74.0 353.3,74.0 354.9,74.0 356.5,74.0 358.2,73.6 359.8,73.6 361.4,74.0 363.0,73.6 364.6,74.0 366.2,74.0 367.8,71.4 369.5,74.0 371.1,74.0 372.7,74.0 374.3,74.0 375.9,74.0 377.5,74.0 379.2,74.0 380.8,74.0 382.4,73.6 384.0,72.7 385.6,73.6 387.2,68.3 388.8,73.6 390.5,64.4 392.1,66.6 393.7,66.6 395.3,74.0 396.9,70.9 398.5,74.0 400.2,74.0 401.8,74.0 403.4,74.0 405.0,74.0 406.6,73.1 408.2,73.6 409.8,74.0 411.5,71.8 413.1,74.0 414.7,74.0 416.3,72.3 417.9,74.0 419.5,73.6 421.2,74.0 422.8,74.0 424.4,74.0 426.0,74.0 427.6,74.0 429.2,74.0 430.8,73.6 432.5,73.6 434.1,74.0 435.7,74.0 437.3,74.0 438.9,74.0 440.5,73.1 442.2,74.0 443.8,74.0 445.4,74.0 447.0,68.8 448.6,74.0 450.2,74.0 451.8,72.3 453.5,74.0 455.1,73.1 456.7,73.1 458.3,74.0 459.9,74.0 461.5,74.0 463.2,74.0 464.8,72.7 466.4,73.6 468.0,74.0 469.6,74.0 471.2,74.0 472.8,74.0 474.5,74.0 476.1,74.0 477.7,74.0 479.3,74.0 480.9,74.0 482.5,74.0 484.2,74.0 485.8,74.0 487.4,74.0 489.0,74.0 490.6,74.0 492.2,74.0 493.8,74.0 495.5,74.0 497.1,74.0 498.7,74.0 500.3,74.0 501.9,74.0 503.5,74.0 505.2,74.0 506.8,74.0 508.4,72.3 510.0,73.6 511.6,74.0 513.2,74.0 514.8,74.0 516.5,74.0 518.1,71.8 519.7,72.3 521.3,74.0 522.9,73.6 524.5,74.0 526.2,74.0 527.8,74.0 529.4,74.0 531.0,74.0 532.6,74.0 534.2,74.0 535.8,74.0 537.5,72.3 539.1,74.0 540.7,74.0 542.3,74.0 543.9,74.0 545.5,74.0 547.2,74.0 548.8,74.0 550.4,74.0 552.0,74.0 553.6,74.0 555.2,74.0 556.8,74.0 558.5,74.0 560.1,74.0 561.7,73.6 563.3,74.0 564.9,74.0 566.5,74.0 568.2,74.0 569.8,74.0 571.4,74.0 573.0,74.0 574.6,74.0 576.2,74.0 577.8,74.0 579.5,74.0 581.1,74.0 582.7,74.0 584.3,74.0 585.9,74.0 587.5,74.0 589.2,74.0 590.8,74.0 592.4,74.0 594.0,74.0"/>
  <polygon points="6.0,63.5 7.6,73.1 9.2,70.9 10.8,69.6 12.5,74.0 14.1,74.0 15.7,73.1 17.3,74.0 18.9,70.5 20.5,73.6 22.2,74.0 23.8,74.0 25.4,74.0 27.0,70.5 28.6,71.8 30.2,46.1 31.8,39.1 33.5,71.4 35.1,48.7 36.7,51.8 38.3,64.4 39.9,57.4 41.5,71.4 43.2,72.3 44.8,74.0 46.4,74.0 48.0,74.0 49.6,74.0 51.2,74.0 52.8,69.2 54.5,69.2 56.1,72.3 57.7,71.4 59.3,67.5 60.9,74.0 62.5,70.5 64.2,74.0 65.8,74.0 67.4,74.0 69.0,73.1 70.6,71.8 72.2,74.0 73.8,74.0 75.5,74.0 77.1,74.0 78.7,74.0 80.3,74.0 81.9,6.0 83.5,25.6 85.2,70.5 86.8,62.7 88.4,74.0 90.0,64.0 91.6,57.0 93.2,73.6 94.8,74.0 96.5,74.0 98.1,74.0 99.7,66.6 101.3,70.9 102.9,70.5 104.5,73.1 106.2,71.8 107.8,73.6 109.4,74.0 111.0,74.0 112.6,73.1 114.2,74.0 115.8,74.0 117.5,74.0 119.1,74.0 120.7,74.0 122.3,74.0 123.9,74.0 125.5,74.0 127.2,74.0 128.8,74.0 130.4,74.0 132.0,74.0 133.6,74.0 135.2,74.0 136.8,74.0 138.5,73.6 140.1,74.0 141.7,74.0 143.3,74.0 144.9,74.0 146.5,74.0 148.2,74.0 149.8,74.0 151.4,72.7 153.0,74.0 154.6,74.0 156.2,73.6 157.8,74.0 159.5,74.0 161.1,74.0 162.7,74.0 164.3,74.0 165.9,74.0 167.5,74.0 169.2,74.0 170.8,74.0 172.4,74.0 174.0,74.0 175.6,70.5 177.2,70.9 178.8,74.0 180.5,73.1 182.1,73.6 183.7,73.6 185.3,69.2 186.9,69.2 188.5,74.0 190.2,74.0 191.8,74.0 193.4,73.1 195.0,57.9 196.6,73.1 198.2,73.1 199.8,73.6 201.5,68.3 203.1,72.7 204.7,74.0 206.3,73.6 207.9,74.0 209.5,74.0 211.2,74.0 212.8,74.0 214.4,74.0 216.0,70.1 217.6,73.6 219.2,74.0 220.8,74.0 222.5,74.0 224.1,74.0 225.7,74.0 227.3,74.0 228.9,70.1 230.5,73.6 232.2,74.0 233.8,74.0 235.4,74.0 237.0,74.0 238.6,74.0 240.2,74.0 241.8,74.0 243.5,74.0 245.1,74.0 246.7,73.6 248.3,74.0 249.9,74.0 251.5,73.1 253.2,73.6 254.8,74.0 256.4,74.0 258.0,74.0 259.6,74.0 261.2,74.0 262.8,74.0 264.5,74.0 266.1,74.0 267.7,73.1 269.3,73.6 270.9,74.0 272.5,74.0 274.2,74.0 275.8,74.0 277.4,74.0 279.0,74.0 280.6,74.0 282.2,74.0 283.8,74.0 285.5,74.0 287.1,74.0 288.7,74.0 290.3,74.0 291.9,74.0 293.5,74.0 295.2,74.0 296.8,74.0 298.4,74.0 300.0,74.0 301.6,74.0 303.2,74.0 304.8,74.0 306.5,74.0 308.1,74.0 309.7,74.0 311.3,74.0 312.9,74.0 314.5,74.0 316.2,73.6 317.8,68.8 319.4,73.1 321.0,74.0 322.6,74.0 324.2,74.0 325.8,72.7 327.5,74.0 329.1,73.6 330.7,74.0 332.3,73.1 333.9,74.0 335.5,74.0 337.2,74.0 338.8,74.0 340.4,74.0 342.0,74.0 343.6,73.6 345.2,74.0 346.8,74.0 348.5,74.0 350.1,74.0 351.7,74.0 353.3,74.0 354.9,74.0 356.5,74.0 358.2,73.6 359.8,73.6 361.4,74.0 363.0,73.6 364.6,74.0 366.2,74.0 367.8,71.4 369.5,74.0 371.1,74.0 372.7,74.0 374.3,74.0 375.9,74.0 377.5,74.0 379.2,74.0 380.8,74.0 382.4,73.6 384.0,72.7 385.6,73.6 387.2,68.3 388.8,73.6 390.5,64.4 392.1,66.6 393.7,66.6 395.3,74.0 396.9,70.9 398.5,74.0 400.2,74.0 401.8,74.0 403.4,74.0 405.0,74.0 406.6,73.1 408.2,73.6 409.8,74.0 411.5,71.8 413.1,74.0 414.7,74.0 416.3,72.3 417.9,74.0 419.5,73.6 421.2,74.0 422.8,74.0 424.4,74.0 426.0,74.0 427.6,74.0 429.2,74.0 430.8,73.6 432.5,73.6 434.1,74.0 435.7,74.0 437.3,74.0 438.9,74.0 440.5,73.1 442.2,74.0 443.8,74.0 445.4,74.0 447.0,68.8 448.6,74.0 450.2,74.0 451.8,72.3 453.5,74.0 455.1,73.1 456.7,73.1 458.3,74.0 459.9,74.0 461.5,74.0 463.2,74.0 464.8,72.7 466.4,73.6 468.0,74.0 469.6,74.0 471.2,74.0 472.8,74.0 474.5,74.0 476.1,74.0 477.7,74.0 479.3,74.0 480.9,74.0 482.5,74.0 484.2,74.0 485.8,74.0 487.4,74.0 489.0,74.0 490.6,74.0 492.2,74.0 493.8,74.0 495.5,74.0 497.1,74.0 498.7,74.0 500.3,74.0 501.9,74.0 503.5,74.0 505.2,74.0 506.8,74.0 508.4,72.3 510.0,73.6 511.6,74.0 513.2,74.0 514.8,74.0 516.5,74.0 518.1,71.8 519.7,72.3 521.3,74.0 522.9,73.6 524.5,74.0 526.2,74.0 527.8,74.0 529.4,74.0 531.0,74.0 532.6,74.0 534.2,74.0 535.8,74.0 537.5,72.3 539.1,74.0 540.7,74.0 542.3,74.0 543.9,74.0 545.5,74.0 547.2,74.0 548.8,74.0 550.4,74.0 552.0,74.0 553.6,74.0 555.2,74.0 556.8,74.0 558.5,74.0 560.1,74.0 561.7,73.6 563.3,74.0 564.9,74.0 566.5,74.0 568.2,74.0 569.8,74.0 571.4,74.0 573.0,74.0 574.6,74.0 576.2,74.0 577.8,74.0 579.5,74.0 581.1,74.0 582.7,74.0 584.3,74.0 585.9,74.0 587.5,74.0 589.2,74.0 590.8,74.0 592.4,74.0 594.0,74.0 594.0,74 6.0,74" fill="url(#g)"/>
  <text x="594" y="76" font-size="10" text-anchor="end" fill="#888">through 2026-08-19 (UTC)</text>
</svg>