<svg xmlns="http://www.w3.org/2000/svg" width="600" height="80" viewBox="0 0 600 80">
  <defs>
    <linearGradient id="g" x1="0" x2="0" y1="0" y2="1">
      <stop offset="0%" stop-color="#4ea1ff" stop-opacity="0.6"/>
      <stop offset="100%" stop-color="#4ea1ff" stop-opacity="0.05"/>
    </linearGradient>
  </defs>
  <rect width="100%" height="100%" fill="transparent"/>
  <polyline fill="none" stroke="#4ea1ff" stroke-width="2" points="6.0,74.0 7.6,74.0 9.2,74.0 10.8,74.0 12.5,74.0 14.1,74.0 15.7,74.0 17.3,74.0 18.9,74.0 20.5,74.0 22.2,74.0 23.8,74.0 25.4,74.0 27.0,74.0 28.6,74.0 30.2,74.0 31.8,74.0 33.5,74.0 35.1,74.0 36.7,74.0 38.3,74.0 39.9,74.0 41.5,74.0 43.2,74.0 44.8,74.0 46.4,74.0 48.0,74.0 49.6,74.0 51.2,74.0 52.8,74.0 54.5,74.0 56.1,74.0 57.7,74.0 59.3,74.0 60.9,74.0 62.5,74.0 64.2,74.0 65.8,74.0 67.4,74.0 69.0,74.0 70.6,74.0 72.2,74.0 73.8,74.0 75.5,74.0 77.1,74.0 78.7,74.0 80.3,74.0 81.9,74.0 83.5,74.0 85.2,74.0 86.8,74.0 88.4,74.0 90.0,74.0 91.6,74.0 93.2,74.0 94.8,74.0 96.5,74.0 98.1,74.0 99.7,73.6 101.3,73.1 102.9,74.0 104.5,74.0 106.2,74.0 107.8,74.0 109.4,74.0 111.0,74.0 112.6,73.1 114.2,73.1 115.8,74.0 117.5,74.0 119.1,67.9 120.7,50.5 122.3,63.5 123.9,73.1 125.5,70.9 127.2,69.6 128.8,74.0 130.4,74.0 132.0,73.1 133.6,74.0 135.2,70.5 136.8,73.6 138.5,74.0 140.1,74.0 141.7,74.0 143.3,70.5 144.9,71.8 146.5,46.1 148.2,39.1 149.8,71.4 151.4,48.7 153.0,51.8 154.6,64.4 156.2,57.4 157.8,71.4 159.5,72.3 161.1,74.0 162.7,74.0 164.3,74.0 165.9,74.0 167.5,74.0 169.2,69.2 170.8,69.2 172.4,72.3 174.0,71.4 175.6,67.5 177.2,74.0 178.8,70.5 180.5,74.0 182.1,74.0 183.7,74.0 185.3,73.1 186.9,71.8 188.5,74.0 190.2,74.0 191.8,74.0 193.4,74.0 195.0,74.0 196.6,74.0 198.2,6.0 199.8,25.6 201.5,70.5 203.1,62.7 204.7,74.0 206.3,64.0 207.9,57.0 209.5,73.6 211.2,74.0 212.8,74.0 214.4,74.0 216.0,66.6 217.6,70.9 219.2,70.5 220.8,73.1 222.5,71.8 224.1,73.6 225.7,74.0 227.3,74.0 228.9,73.1 230.5,74.0 232.2,74.0 233.8,74.0 235.4,74.0 237.0,74.0 238.6,74.0 240.2,74.0 241.8,74.0 243.5,74.0 245.1,74.0 246.7,74.0 248.3,74.0 249.9,74.0 251.5,74.0 253.2,74.0 254.8,73.6 256.4,74.0 258.0,74.0 259.6,74.0 261.2,74.0 262.8,74.0 264.5,74.0 266.1,74.0 267.7,72.7 269.3,74.0 270.9,74.0 272.5,73.6 274.2,74.0 275.8,74.0 277.4,74.0 279.0,74.0 280.6,74.0 282.2,74.0 283.8,74.0 285.5,74.0 287.1,74.0 288.7,74.0 290.3,74.0 291.9,70.5 293.5,70.9 295.2,74.0 296.8,73.1 298.4,73.6 300.0,73.6 301.6,69.2 303.2,69.2 304.8,74.0 306.5,74.0 308.1,74.0 309.7,73.1 311.3,57.9 312.9,73.1 314.5,73.1 316.2,73.6 317.8,68.3 319.4,72.7 321.0,74.0 322.6,73.6 324.2,74.0 325.8,74.0 327.5,74.0 329.1,74.0 330.7,74.0 332.3,70.1 333.9,73.6 335.5,74.0 337.2,74.0 338.8,74.0 340.4,74.0 342.0,74.0 343.6,74.0 345.2,70.1 346.8,73.6 348.5,74.0 350.1,74.0 351.7,74.0 353.3,74.0 354.9,74.0 356.5,74.0 358.2,74.0 359.8,74.0 361.4,74.0 363.0,73.6 364.6,74.0 366.2,74.0 367.8,73.1 369.5,73.6 371.1,74.0 372.7,74.0 374.3,74.0 375.9,74.0 377.5,74.0 379.2,74.0 380.8,74.0 382.4,74.0 384.0,73.1 385.6,73.6 387.2,74.0 388.8,74.0 390.5,74.0 392.1,74.0 393.7,74.0 395.3,74.0 396.9,74.0 398.5,74.0 400.2,74.0 401.8,74.0 403.4,74.0 405.0,74.0 406.6,74.0 408.2,74.0 409.8,74.0 411.5,74.0 413.1,74.0 414.7,74.0 416.3,74.0 417.9,74.0 419.5,74.0 421.2,74.0 422.8,74.0 424.4,74.0 426.0,74.0 427.6,74.0 429.2,74.0 430.8,74.0 432.5,73.6 434.1,68.8 435.7,73.1 437.3,74.0 438.9,74.0 440.5,74.0 442.2,72.7 443.8,74.0 445.4,73.6 447.0,74.0 448.6,73.1 450.2,74.0 451.8,74.0 453.5,74.0 455.1,74.0 456.7,74.0 458.3,74.0 459.9,73.6 461.5,74.0 463.2,74.0 464.8,74.0 466.4,74.0 468.0,74.0 469.6,74.0 471.2,74.0 472.8,74.0 474.5,73.6 476.1,73.6 477.7,74.0 479.3,73.6 480.9,74.0 482.5,74.0 484.2,71.4 485.8,74.0 487.4,74.0 489.0,74.0 490.6,74.0 492.2,74.0 493.8,74.0 495.5,74.0 497.1,74.0 498.7,73.6 500.3,72.7 501.9,73.6 503.5,68.3 505.2,73.6 506.8,64.4 508.4,66.6 510.0,66.6 511.6,74.0 513.2,70.9 514.8,74.0 516.5,74.0 518.1,74.0 519.7,74.0 521.3,74.0 522.9,73.1 524.5,73.6 526.2,74.0 527.8,71.8 529.4,74.0 531.0,74.0 532.6,72.3 534.2,74.0 535.8,73.6 537.5,74.0 539.1,74.0 540.7,74.0 542.3,74.0 543.9,74.0 545.5,74.0 547.2,73.6 548.8,73.6 550.4,74.0 552.0,74.0 553.6,74.0 555.2,74.0 556.8,73.1 558.5,74.0 560.1,74.0 561.7,74.0 563.3,68.8 564.9,74.0 566.5,74.0 568.2,72.3 569.8,74.0 571.4,73.1 573.0,73.1 574.6,74.0 576.2,74.0 577.8,74.0 579.5,74.0 581.1,72.7 582.7,73.6 584.3,74.0 585.9,74.0 587.5,74.0 589.2,74.0 590.8,74.0 592.4,74.0 594.0,74.0"/>
  <polygon points="6.0,74.0 7.6,74.0 9.2,74.0 10.8,74.0 12.5,74.0 14.1,74.0 15.7,74.0 17.3,74.0 18.9,74.0 20.5,74.0 22.2,74.0 23.8,74.0 25.4,74.0 27.0,74.0 28.6,74.0 30.2,74.0 31.8,74.0 33.5,74.0 35.1,74.0 36.7,74.0 38.3,74.0 39.9,74.0 41.5,74.0 43.2,74.0 44.8,74.0 46.4,74.0 48.0,74.0 49.6,74.0 51.2,74.0 52.8,74.0 54.5,74.0 56.1,74.0 57.7,74.0 59.3,74.0 60.9,74.0 62.5,74.0 64.2,74.0 65.8,74.0 67.4,74.0 69.0,74.0 70.6,74.0 72.2,74.0 73.8,74.0 75.5,74.0 77.1,74.0 78.7,74.0 80.3,74.0 81.9,74.0 83.5,74.0 85.2,74.0 86.8,74.0 88.4,74.0 90.0,74.0 91.6,74.0 93.2,74.0 94.8,74.0 96.5,74.0 98.1,74.0 99.7,73.6 101.3,73.1 102.9,74.0 104.5,74.0 106.2,74.0 107.8,74.0 109.4,74.0 111.0,74.0 112.6,73.1 114.2,73.1 115.8,74.0 117.5,74.0 119.1,67.9 120.7,50.5 122.3,63.5 123.9,73.1 125.5,70.9 127.2,69.6 128.8,74.0 130.4,74.0 132.0,73.1 133.6,74.0 135.2,70.5 136.8,73.6 138.5,74.0 140.1,74.0 141.7,74.0 143.3,70.5 144.9,71.8 146.5,46.1 148.2,39.1 149.8,71.4 151.4,48.7 153.0,51.8 154.6,64.4 156.2,57.4 157.8,71.4 159.5,72.3 161.1,74.0 162.7,74.0 164.3,74.0 165.9,74.0 167.5,74.0 169.2,69.2 170.8,69.2 172.4,72.3 174.0,71.4 175.6,67.5 177.2,74.0 178.8,70.5 180.5,74.0 182.1,74.0 183.7,74.0 185.3,73.1 186.9,71.8 188.5,74.0 190.2,74.0 191.8,74.0 193.4,74.0 195.0,74.0 196.6,74.0 198.2,6.0 199.8,25.6 201.5,70.5 203.1,62.7 204.7,74.0 206.3,64.0 207.9,57.0 209.5,73.6 211.2,74.0 212.8,74.0 214.4,74.0 216.0,66.6 217.6,70.9 219.2,70.5 220.8,73.1 222.5,71.8 224.1,73.6 225.7,74.0 227.3,74.0 228.9,73.1 230.5,74.0 232.2,74.0 233.8,74.0 235.4,74.0 237.0,74.0 238.6,74.0 240.2,74.0 241.8,74.0 243.5,74.0 245.1,74.0 246.7,74.0 248.3,74.0 249.9,74.0 251.5,74.0 253.2,74.0 254.8,73.6 256.4,74.0 258.0,74.0 259.6,74.0 261.2,74.0 262.8,74.0 264.5,74.0 266.1,74.0 267.7,72.7 269.3,74.0 270.9,74.0 272.5,73.6 274.2,74.0 275.8,74.0 277.4,74.0 279.0,74.0 280.6,74.0 282.2,74.0 283.8,74.0 285.5,74.0 287.1,74.0 288.7,74.0 290.3,74.0 291.9,70.5 293.5,70.9 295.2,74.0 296.8,73.1 298.4,73.6 300.0,73.6 301.6,69.2 303.2,69.2 304.8,74.0 306.5,74.0 308.1,74.0 309.7,73.1 311.3,57.9 312.9,73.1 314.5,73.1 316.2,73.6 317.8,68.3 319.4,72.7 321.0,74.0 322.6,73.6 324.2,74.0 325.8,74.0 327.5,74.0 329.1,74.0 330.7,74.0 332.3,70.1 333.9,73.6 335.5,74.0 337.2,74.0 338.8,74.0 340.4,74.0 342.0,74.0 343.6,74.0 345.2,70.1 346.8,73.6 348.5,74.0 350.1,74.0 351.7,74.0 353.3,74.0 354.9,74.0 356.5,74.0 358.2,74.0 359.8,74.0 361.4,74.0 363.0,73.6 364.6,74.0 366.2,74.0 367.8,73.1 369.5,73.6 371.1,74.0 372.7,74.0 374.3,74.0 375.9,74.0 377.5,74.0 379.2,74.0 380.8,74.0 382.4,74.0 384.0,73.1 385.6,73.6 387.2,74.0 388.8,74.0 390.5,74.0 392.1,74.0 393.7,74.0 395.3,74.0 396.9,74.0 398.5,74.0 400.2,74.0 401.8,74.0 403.4,74.0 405.0,74.0 406.6,74.0 408.2,74.0 409.8,74.0 411.5,74.0 413.1,74.0 414.7,74.0 416.3,74.0 417.9,74.0 419.5,74.0 421.2,74.0 422.8,74.0 424.4,74.0 426.0,74.0 427.6,74.0 429.2,74.0 430.8,74.0 432.5,73.6 434.1,68.8 435.7,73.1 437.3,74.0 438.9,74.0 440.5,74.0 442.2,72.7 443.8,74.0 445.4,73.6 447.0,74.0 448.6,73.1 450.2,74.0 451.8,74.0 453.5,74.0 455.1,74.0 456.7,74.0 458.3,74.0 459.9,73.6 461.5,74.0 463.2,74.0 464.8,74.0 466.4,74.0 468.0,74.0 469.6,74.0 471.2,74.0 472.8,74.0 474.5,73.6 476.1,73.6 477.7,74.0 479.3,73.6 480.9,74.0 482.5,74.0 484.2,71.4 485.8,74.0 487.4,74.0 489.0,74.0 490.6,74.0 492.2,74.0 493.8,74.0 495.5,74.0 497.1,74.0 498.7,73.6 500.3,72.7 501.9,73.6 503.5,68.3 505.2,73.6 506.8,64.4 508.4,66.6 510.0,66.6 511.6,74.0 513.2,70.9 514.8,74.0 516.5,74.0 518.1,74.0 519.7,74.0 521.3,74.0 522.9,73.1 524.5,73.6 526.2,74.0 527.8,71.8 529.4,74.0 531.0,74.0 532.6,72.3 534.2,74.0 535.8,73.6 537.5,74.0 539.1,74.0 540.7,74.0 542.3,74.0 543.9,74.0 545.5,74.0 547.2,73.6 548.8,73.6 550.4,74.0 552.0,74.0 553.6,74.0 555.2,74.0 556.8,73.1 558.5,74.0 560.1,74.0 561.7,74.0 563.3,68.8 564.9,74.0 566.5,74.0 568.2,72.3 569.8,74.0 571.4,73.1 573.0,73.1 574.6,74.0 576.2,74.0 577.8,74.0 579.5,74.0 581.1,72.7 582.7,73.6 584.3,74.0 585.9,74.0 587.5,74.0 589.2,74.0 590.8,74.0 592.4,74.0 594.0,74.0 594.0,74 6.0,74" fill="url(#g)"/>
  <text x="594" y="76" font-size="10" text-anchor="end" fill="#888">through 2026-06-08 (UTC)</text>
</svg>