<svg xmlns="http://www.w3.org/2000/svg" width="600" height="80" viewBox="0 0 600 80">
  <defs>
    <linearGradient id="g" x1="0" x2="0" y1="0" y2="1">
      <stop offset="0%" stop-color="#4ea1ff" stop-opacity="0.6"/>
      <stop offset="100%" stop-color="#4ea1ff" stop-opacity="0.05"/>
    </linearGradient>
  </defs>
  <rect width="100%" height="100%" fill="transparent"/>
  <polyline fill="none" stroke="#4ea1ff" stroke-width="2" points="6.0,74.0 7.6,74.0 9.2,74.0 10.8,74.0 12.5,74.0 14.1,74.0 15.7,74.0 17.3,74.0 18.9,74.0 20.5,74.0 22.2,74.0 23.8,74.0 25.4,74.0 27.0,74.0 28.6,74.0 30.2,74.0 31.8,74.0 33.5,74.0 35.1,74.0 36.7,74.0 38.3,74.0 39.9,74.0 41.5,74.0 43.2,74.0 44.8,74.0 46.4,74.0 48.0,74.0 49.6,74.0 51.2,74.0 52.8,74.0 54.5,74.0 56.1,74.0 57.7,74.0 59.3,74.0 60.9,74.0 62.5,74.0 64.2,74.0 65.8,74.0 67.4,74.0 69.0,74.0 70.6,74.0 72.2,74.0 73.8,74.0 75.5,74.0 77.1,74.0 78.7,74.0 80.3,74.0 81.9,74.0 83.5,74.0 85.2,74.0 86.8,74.0 88.4,74.0 90.0,74.0 91.6,74.0 93.2,74.0 94.8,74.0 96.5,74.0 98.1,74.0 99.7,74.0 101.3,74.0 102.9,74.0 104.5,74.0 106.2,74.0 107.8,74.0 109.4,74.0 111.0,74.0 112.6,74.0 114.2,74.0 115.8,74.0 117.5,74.0 119.1,74.0 120.7,74.0 122.3,74.0 123.9,74.0 125.5,74.0 127.2,74.0 128.8,74.0 130.4,74.0 132.0,74.0 133.6,74.0 135.2,74.0 136.8,74.0 138.5,73.6 140.1,73.1 141.7,74.0 143.3,74.0 144.9,74.0 146.5,74.0 148.2,74.0 149.8,74.0 151.4,73.1 153.0,73.1 154.6,74.0 156.2,74.0 157.8,67.9 159.5,50.5 161.1,63.1 162.7,73.1 164.3,70.9 165.9,69.6 167.5,74.0 169.2,74.0 170.8,73.1 172.4,74.0 174.0,70.5 175.6,73.6 177.2,74.0 178.8,74.0 180.5,74.0 182.1,70.5 183.7,71.8 185.3,46.1 186.9,39.1 188.5,71.4 190.2,48.7 191.8,51.8 193.4,64.4 195.0,57.4 196.6,71.4 198.2,72.3 199.8,74.0 201.5,74.0 203.1,74.0 204.7,74.0 206.3,74.0 207.9,69.2 209.5,69.2 211.2,72.3 212.8,71.4 214.4,67.5 216.0,74.0 217.6,70.5 219.2,74.0 220.8,74.0 222.5,74.0 224.1,73.1 225.7,71.8 227.3,74.0 228.9,74.0 230.5,74.0 232.2,74.0 233.8,74.0 235.4,74.0 237.0,6.0 238.6,25.6 240.2,70.5 241.8,62.7 243.5,74.0 245.1,64.0 246.7,57.0 248.3,73.6 249.9,74.0 251.5,74.0 253.2,74.0 254.8,66.6 256.4,70.9 258.0,70.5 259.6,73.1 261.2,71.8 262.8,73.6 264.5,74.0 266.1,74.0 267.7,73.1 269.3,74.0 270.9,74.0 272.5,74.0 274.2,74.0 275.8,74.0 277.4,74.0 279.0,74.0 280.6,74.0 282.2,74.0 283.8,74.0 285.5,74.0 287.1,74.0 288.7,74.0 290.3,74.0 291.9,74.0 293.5,70.9 295.2,74.0 296.8,74.0 298.4,74.0 300.0,74.0 301.6,74.0 303.2,74.0 304.8,74.0 306.5,72.7 308.1,74.0 309.7,74.0 311.3,73.6 312.9,74.0 314.5,74.0 316.2,74.0 317.8,74.0 319.4,74.0 321.0,74.0 322.6,74.0 324.2,74.0 325.8,74.0 327.5,74.0 329.1,74.0 330.7,70.5 332.3,70.9 333.9,74.0 335.5,73.1 337.2,73.6 338.8,73.6 340.4,69.2 342.0,69.2 343.6,74.0 345.2,74.0 346.8,74.0 348.5,73.1 350.1,57.9 351.7,73.1 353.3,73.1 354.9,73.6 356.5,68.3 358.2,72.7 359.8,74.0 361.4,73.6 363.0,74.0 364.6,74.0 366.2,74.0 367.8,74.0 369.5,74.0 371.1,70.1 372.7,73.6 374.3,74.0 375.9,74.0 377.5,74.0 379.2,74.0 380.8,74.0 382.4,74.0 384.0,70.1 385.6,73.6 387.2,74.0 388.8,74.0 390.5,74.0 392.1,74.0 393.7,74.0 395.3,74.0 396.9,74.0 398.5,74.0 400.2,74.0 401.8,73.6 403.4,74.0 405.0,74.0 406.6,73.1 408.2,73.6 409.8,74.0 411.5,74.0 413.1,74.0 414.7,74.0 416.3,74.0 417.9,74.0 419.5,74.0 421.2,74.0 422.8,73.1 424.4,73.6 426.0,74.0 427.6,74.0 429.2,74.0 430.8,74.0 432.5,74.0 434.1,74.0 435.7,74.0 437.3,74.0 438.9,74.0 440.5,74.0 442.2,74.0 443.8,74.0 445.4,74.0 447.0,74.0 448.6,74.0 450.2,74.0 451.8,74.0 453.5,74.0 455.1,74.0 456.7,74.0 458.3,74.0 459.9,74.0 461.5,74.0 463.2,74.0 464.8,74.0 466.4,74.0 468.0,74.0 469.6,74.0 471.2,73.6 472.8,68.8 474.5,73.1 476.1,74.0 477.7,74.0 479.3,74.0 480.9,72.7 482.5,74.0 484.2,73.6 485.8,74.0 487.4,73.1 489.0,74.0 490.6,74.0 492.2,74.0 493.8,74.0 495.5,74.0 497.1,74.0 498.7,73.6 500.3,74.0 501.9,74.0 503.5,74.0 505.2,74.0 506.8,74.0 508.4,74.0 510.0,74.0 511.6,74.0 513.2,73.6 514.8,73.6 516.5,74.0 518.1,73.6 519.7,74.0 521.3,74.0 522.9,71.4 524.5,74.0 526.2,74.0 527.8,74.0 529.4,74.0 531.0,74.0 532.6,74.0 534.2,74.0 535.8,74.0 537.5,73.6 539.1,72.7 540.7,73.6 542.3,68.3 543.9,73.6 545.5,64.4 547.2,66.6 548.8,66.6 550.4,74.0 552.0,70.9 553.6,74.0 555.2,74.0 556.8,74.0 558.5,74.0 560.1,74.0 561.7,73.1 563.3,73.6 564.9,74.0 566.5,70.1 568.2,74.0 569.8,74.0 571.4,70.1 573.0,74.0 574.6,73.6 576.2,74.0 577.8,74.0 579.5,74.0 581.1,74.0 582.7,74.0 584.3,74.0 585.9,73.6 587.5,73.6 589.2,74.0 590.8,74.0 592.4,74.0 594.0,74.0"/>
  <polygon points="6.0,74.0 7.6,74.0 9.2,74.0 10.8,74.0 12.5,74.0 14.1,74.0 15.7,74.0 17.3,74.0 18.9,74.0 20.5,74.0 22.2,74.0 23.8,74.0 25.4,74.0 27.0,74.0 28.6,74.0 30.2,74.0 31.8,74.0 33.5,74.0 35.1,74.0 36.7,74.0 38.3,74.0 39.9,74.0 41.5,74.0 43.2,74.0 44.8,74.0 46.4,74.0 48.0,74.0 49.6,74.0 51.2,74.0 52.8,74.0 54.5,74.0 56.1,74.0 57.7,74.0 59.3,74.0 60.9,74.0 62.5,74.0 64.2,74.0 65.8,74.0 67.4,74.0 69.0,74.0 70.6,74.0 72.2,74.0 73.8,74.0 75.5,74.0 77.1,74.0 78.7,74.0 80.3,74.0 81.9,74.0 83.5,74.0 85.2,74.0 86.8,74.0 88.4,74.0 90.0,74.0 91.6,74.0 93.2,74.0 94.8,74.0 96.5,74.0 98.1,74.0 99.7,74.0 101.3,74.0 102.9,74.0 104.5,74.0 106.2,74.0 107.8,74.0 109.4,74.0 111.0,74.0 112.6,74.0 114.2,74.0 115.8,74.0 117.5,74.0 119.1,74.0 120.7,74.0 122.3,74.0 123.9,74.0 125.5,74.0 127.2,74.0 128.8,74.0 130.4,74.0 132.0,74.0 133.6,74.0 135.2,74.0 136.8,74.0 138.5,73.6 140.1,73.1 141.7,74.0 143.3,74.0 144.9,74.0 146.5,74.0 148.2,74.0 149.8,74.0 151.4,73.1 153.0,73.1 154.6,74.0 156.2,74.0 157.8,67.9 159.5,50.5 161.1,63.1 162.7,73.1 164.3,70.9 165.9,69.6 167.5,74.0 169.2,74.0 170.8,73.1 172.4,74.0 174.0,70.5 175.6,73.6 177.2,74.0 178.8,74.0 180.5,74.0 182.1,70.5 183.7,71.8 185.3,46.1 186.9,39.1 188.5,71.4 190.2,48.7 191.8,51.8 193.4,64.4 195.0,57.4 196.6,71.4 198.2,72.3 199.8,74.0 201.5,74.0 203.1,74.0 204.7,74.0 206.3,74.0 207.9,69.2 209.5,69.2 211.2,72.3 212.8,71.4 214.4,67.5 216.0,74.0 217.6,70.5 219.2,74.0 220.8,74.0 222.5,74.0 224.1,73.1 225.7,71.8 227.3,74.0 228.9,74.0 230.5,74.0 232.2,74.0 233.8,74.0 235.4,74.0 237.0,6.0 238.6,25.6 240.2,70.5 241.8,62.7 243.5,74.0 245.1,64.0 246.7,57.0 248.3,73.6 249.9,74.0 251.5,74.0 253.2,74.0 254.8,66.6 256.4,70.9 258.0,70.5 259.6,73.1 261.2,71.8 262.8,73.6 264.5,74.0 266.1,74.0 267.7,73.1 269.3,74.0 270.9,74.0 272.5,74.0 274.2,74.0 275.8,74.0 277.4,74.0 279.0,74.0 280.6,74.0 282.2,74.0 283.8,74.0 285.5,74.0 287.1,74.0 288.7,74.0 290.3,74.0 291.9,74.0 293.5,70.9 295.2,74.0 296.8,74.0 298.4,74.0 300.0,74.0 301.6,74.0 303.2,74.0 304.8,74.0 306.5,72.7 308.1,74.0 309.7,74.0 311.3,73.6 312.9,74.0 314.5,74.0 316.2,74.0 317.8,74.0 319.4,74.0 321.0,74.0 322.6,74.0 324.2,74.0 325.8,74.0 327.5,74.0 329.1,74.0 330.7,70.5 332.3,70.9 333.9,74.0 335.5,73.1 337.2,73.6 338.8,73.6 340.4,69.2 342.0,69.2 343.6,74.0 345.2,74.0 346.8,74.0 348.5,73.1 350.1,57.9 351.7,73.1 353.3,73.1 354.9,73.6 356.5,68.3 358.2,72.7 359.8,74.0 361.4,73.6 363.0,74.0 364.6,74.0 366.2,74.0 367.8,74.0 369.5,74.0 371.1,70.1 372.7,73.6 374.3,74.0 375.9,74.0 377.5,74.0 379.2,74.0 380.8,74.0 382.4,74.0 384.0,70.1 385.6,73.6 387.2,74.0 388.8,74.0 390.5,74.0 392.1,74.0 393.7,74.0 395.3,74.0 396.9,74.0 398.5,74.0 400.2,74.0 401.8,73.6 403.4,74.0 405.0,74.0 406.6,73.1 408.2,73.6 409.8,74.0 411.5,74.0 413.1,74.0 414.7,74.0 416.3,74.0 417.9,74.0 419.5,74.0 421.2,74.0 422.8,73.1 424.4,73.6 426.0,74.0 427.6,74.0 429.2,74.0 430.8,74.0 432.5,74.0 434.1,74.0 435.7,74.0 437.3,74.0 438.9,74.0 440.5,74.0 442.2,74.0 443.8,74.0 445.4,74.0 447.0,74.0 448.6,74.0 450.2,74.0 451.8,74.0 453.5,74.0 455.1,74.0 456.7,74.0 458.3,74.0 459.9,74.0 461.5,74.0 463.2,74.0 464.8,74.0 466.4,74.0 468.0,74.0 469.6,74.0 471.2,73.6 472.8,68.8 474.5,73.1 476.1,74.0 477.7,74.0 479.3,74.0 480.9,72.7 482.5,74.0 484.2,73.6 485.8,74.0 487.4,73.1 489.0,74.0 490.6,74.0 492.2,74.0 493.8,74.0 495.5,74.0 497.1,74.0 498.7,73.6 500.3,74.0 501.9,74.0 503.5,74.0 505.2,74.0 506.8,74.0 508.4,74.0 510.0,74.0 511.6,74.0 513.2,73.6 514.8,73.6 516.5,74.0 518.1,73.6 519.7,74.0 521.3,74.0 522.9,71.4 524.5,74.0 526.2,74.0 527.8,74.0 529.4,74.0 531.0,74.0 532.6,74.0 534.2,74.0 535.8,74.0 537.5,73.6 539.1,72.7 540.7,73.6 542.3,68.3 543.9,73.6 545.5,64.4 547.2,66.6 548.8,66.6 550.4,74.0 552.0,70.9 553.6,74.0 555.2,74.0 556.8,74.0 558.5,74.0 560.1,74.0 561.7,73.1 563.3,73.6 564.9,74.0 566.5,70.1 568.2,74.0 569.8,74.0 571.4,70.1 573.0,74.0 574.6,73.6 576.2,74.0 577.8,74.0 579.5,74.0 581.1,74.0 582.7,74.0 584.3,74.0 585.9,73.6 587.5,73.6 589.2,74.0 590.8,74.0 592.4,74.0 594.0,74.0 594.0,74 6.0,74" fill="url(#g)"/>
  <text x="594" y="76" font-size="10" text-anchor="end" fill="#888">through 2026-05-15 (UTC)</text>
</svg>