<svg xmlns="http://www.w3.org/2000/svg" width="600" height="80" viewBox="0 0 600 80">
  <defs>
    <linearGradient id="g" x1="0" x2="0" y1="0" y2="1">
      <stop offset="0%" stop-color="#4ea1ff" stop-opacity="0.6"/>
      <stop offset="100%" stop-color="#4ea1ff" stop-opacity="0.05"/>
    </linearGradient>
  </defs>
  <rect width="100%" height="100%" fill="transparent"/>
  <polyline fill="none" stroke="#4ea1ff" stroke-width="2" points="6.0,74.0 7.6,74.0 9.2,74.0 10.8,74.0 12.5,74.0 14.1,74.0 15.7,74.0 17.3,74.0 18.9,74.0 20.5,74.0 22.2,74.0 23.8,74.0 25.4,74.0 27.0,74.0 28.6,74.0 30.2,74.0 31.8,74.0 33.5,74.0 35.1,74.0 36.7,74.0 38.3,74.0 39.9,74.0 41.5,74.0 43.2,74.0 44.8,74.0 46.4,74.0 48.0,74.0 49.6,74.0 51.2,74.0 52.8,74.0 54.5,74.0 56.1,74.0 57.7,74.0 59.3,74.0 60.9,74.0 62.5,74.0 64.2,74.0 65.8,74.0 67.4,74.0 69.0,74.0 70.6,74.0 72.2,74.0 73.8,74.0 75.5,74.0 77.1,74.0 78.7,74.0 80.3,74.0 81.9,74.0 83.5,74.0 85.2,74.0 86.8,74.0 88.4,74.0 90.0,74.0 91.6,73.6 93.2,73.1 94.8,74.0 96.5,74.0 98.1,74.0 99.7,74.0 101.3,74.0 102.9,74.0 104.5,73.1 106.2,73.1 107.8,74.0 109.4,74.0 111.0,67.9 112.6,50.5 114.2,63.5 115.8,73.1 117.5,70.9 119.1,69.6 120.7,74.0 122.3,74.0 123.9,73.1 125.5,74.0 127.2,70.5 128.8,73.6 130.4,74.0 132.0,74.0 133.6,74.0 135.2,70.5 136.8,71.8 138.5,46.1 140.1,39.1 141.7,71.4 143.3,48.7 144.9,51.8 146.5,64.4 148.2,57.4 149.8,71.4 151.4,72.3 153.0,74.0 154.6,74.0 156.2,74.0 157.8,74.0 159.5,74.0 161.1,69.2 162.7,69.2 164.3,72.3 165.9,71.4 167.5,67.5 169.2,74.0 170.8,70.5 172.4,74.0 174.0,74.0 175.6,74.0 177.2,73.1 178.8,71.8 180.5,74.0 182.1,74.0 183.7,74.0 185.3,74.0 186.9,74.0 188.5,74.0 190.2,6.0 191.8,25.6 193.4,70.5 195.0,62.7 196.6,74.0 198.2,64.0 199.8,57.0 201.5,73.6 203.1,74.0 204.7,74.0 206.3,74.0 207.9,66.6 209.5,70.9 211.2,70.5 212.8,73.1 214.4,71.8 216.0,73.6 217.6,74.0 219.2,74.0 220.8,73.1 222.5,74.0 224.1,74.0 225.7,74.0 227.3,74.0 228.9,74.0 230.5,74.0 232.2,74.0 233.8,74.0 235.4,74.0 237.0,74.0 238.6,74.0 240.2,74.0 241.8,74.0 243.5,74.0 245.1,74.0 246.7,73.6 248.3,74.0 249.9,74.0 251.5,74.0 253.2,74.0 254.8,74.0 256.4,74.0 258.0,74.0 259.6,72.7 261.2,74.0 262.8,74.0 264.5,73.6 266.1,74.0 267.7,74.0 269.3,74.0 270.9,74.0 272.5,74.0 274.2,74.0 275.8,74.0 277.4,74.0 279.0,74.0 280.6,74.0 282.2,74.0 283.8,70.5 285.5,70.9 287.1,74.0 288.7,73.1 290.3,73.6 291.9,73.6 293.5,69.2 295.2,69.2 296.8,74.0 298.4,74.0 300.0,74.0 301.6,73.1 303.2,57.9 304.8,73.1 306.5,73.1 308.1,73.6 309.7,68.3 311.3,72.7 312.9,74.0 314.5,73.6 316.2,74.0 317.8,74.0 319.4,74.0 321.0,74.0 322.6,74.0 324.2,70.1 325.8,73.6 327.5,74.0 329.1,74.0 330.7,74.0 332.3,74.0 333.9,74.0 335.5,74.0 337.2,70.1 338.8,73.6 340.4,74.0 342.0,74.0 343.6,74.0 345.2,74.0 346.8,74.0 348.5,74.0 350.1,74.0 351.7,74.0 353.3,74.0 354.9,73.6 356.5,74.0 358.2,74.0 359.8,73.1 361.4,73.6 363.0,74.0 364.6,74.0 366.2,74.0 367.8,74.0 369.5,74.0 371.1,74.0 372.7,74.0 374.3,74.0 375.9,73.1 377.5,73.6 379.2,74.0 380.8,74.0 382.4,74.0 384.0,74.0 385.6,74.0 387.2,74.0 388.8,74.0 390.5,74.0 392.1,74.0 393.7,74.0 395.3,74.0 396.9,74.0 398.5,74.0 400.2,74.0 401.8,74.0 403.4,74.0 405.0,74.0 406.6,74.0 408.2,74.0 409.8,74.0 411.5,74.0 413.1,74.0 414.7,74.0 416.3,74.0 417.9,74.0 419.5,74.0 421.2,74.0 422.8,74.0 424.4,73.6 426.0,68.8 427.6,73.1 429.2,74.0 430.8,74.0 432.5,74.0 434.1,72.7 435.7,74.0 437.3,73.6 438.9,74.0 440.5,73.1 442.2,74.0 443.8,74.0 445.4,74.0 447.0,74.0 448.6,74.0 450.2,74.0 451.8,73.6 453.5,74.0 455.1,74.0 456.7,74.0 458.3,74.0 459.9,74.0 461.5,74.0 463.2,74.0 464.8,74.0 466.4,73.6 468.0,73.6 469.6,74.0 471.2,73.6 472.8,74.0 474.5,74.0 476.1,71.4 477.7,74.0 479.3,74.0 480.9,74.0 482.5,74.0 484.2,74.0 485.8,74.0 487.4,74.0 489.0,74.0 490.6,73.6 492.2,72.7 493.8,73.6 495.5,68.3 497.1,73.6 498.7,64.4 500.3,66.6 501.9,66.6 503.5,74.0 505.2,70.9 506.8,74.0 508.4,74.0 510.0,74.0 511.6,74.0 513.2,74.0 514.8,73.1 516.5,73.6 518.1,74.0 519.7,71.8 521.3,74.0 522.9,74.0 524.5,72.3 526.2,74.0 527.8,73.6 529.4,74.0 531.0,74.0 532.6,74.0 534.2,74.0 535.8,74.0 537.5,74.0 539.1,73.6 540.7,73.6 542.3,74.0 543.9,74.0 545.5,74.0 547.2,74.0 548.8,73.1 550.4,74.0 552.0,74.0 553.6,74.0 555.2,68.8 556.8,74.0 558.5,74.0 560.1,72.3 561.7,74.0 563.3,73.1 564.9,73.1 566.5,74.0 568.2,74.0 569.8,74.0 571.4,74.0 573.0,72.7 574.6,73.6 576.2,74.0 577.8,74.0 579.5,74.0 581.1,74.0 582.7,74.0 584.3,74.0 585.9,74.0 587.5,74.0 589.2,74.0 590.8,74.0 592.4,74.0 594.0,74.0"/>
  <polygon points="6.0,74.0 7.6,74.0 9.2,74.0 10.8,74.0 12.5,74.0 14.1,74.0 15.7,74.0 17.3,74.0 18.9,74.0 20.5,74.0 22.2,74.0 23.8,74.0 25.4,74.0 27.0,74.0 28.6,74.0 30.2,74.0 31.8,74.0 33.5,74.0 35.1,74.0 36.7,74.0 38.3,74.0 39.9,74.0 41.5,74.0 43.2,74.0 44.8,74.0 46.4,74.0 48.0,74.0 49.6,74.0 51.2,74.0 52.8,74.0 54.5,74.0 56.1,74.0 57.7,74.0 59.3,74.0 60.9,74.0 62.5,74.0 64.2,74.0 65.8,74.0 67.4,74.0 69.0,74.0 70.6,74.0 72.2,74.0 73.8,74.0 75.5,74.0 77.1,74.0 78.7,74.0 80.3,74.0 81.9,74.0 83.5,74.0 85.2,74.0 86.8,74.0 88.4,74.0 90.0,74.0 91.6,73.6 93.2,73.1 94.8,74.0 96.5,74.0 98.1,74.0 99.7,74.0 101.3,74.0 102.9,74.0 104.5,73.1 106.2,73.1 107.8,74.0 109.4,74.0 111.0,67.9 112.6,50.5 114.2,63.5 115.8,73.1 117.5,70.9 119.1,69.6 120.7,74.0 122.3,74.0 123.9,73.1 125.5,74.0 127.2,70.5 128.8,73.6 130.4,74.0 132.0,74.0 133.6,74.0 135.2,70.5 136.8,71.8 138.5,46.1 140.1,39.1 141.7,71.4 143.3,48.7 144.9,51.8 146.5,64.4 148.2,57.4 149.8,71.4 151.4,72.3 153.0,74.0 154.6,74.0 156.2,74.0 157.8,74.0 159.5,74.0 161.1,69.2 162.7,69.2 164.3,72.3 165.9,71.4 167.5,67.5 169.2,74.0 170.8,70.5 172.4,74.0 174.0,74.0 175.6,74.0 177.2,73.1 178.8,71.8 180.5,74.0 182.1,74.0 183.7,74.0 185.3,74.0 186.9,74.0 188.5,74.0 190.2,6.0 191.8,25.6 193.4,70.5 195.0,62.7 196.6,74.0 198.2,64.0 199.8,57.0 201.5,73.6 203.1,74.0 204.7,74.0 206.3,74.0 207.9,66.6 209.5,70.9 211.2,70.5 212.8,73.1 214.4,71.8 216.0,73.6 217.6,74.0 219.2,74.0 220.8,73.1 222.5,74.0 224.1,74.0 225.7,74.0 227.3,74.0 228.9,74.0 230.5,74.0 232.2,74.0 233.8,74.0 235.4,74.0 237.0,74.0 238.6,74.0 240.2,74.0 241.8,74.0 243.5,74.0 245.1,74.0 246.7,73.6 248.3,74.0 249.9,74.0 251.5,74.0 253.2,74.0 254.8,74.0 256.4,74.0 258.0,74.0 259.6,72.7 261.2,74.0 262.8,74.0 264.5,73.6 266.1,74.0 267.7,74.0 269.3,74.0 270.9,74.0 272.5,74.0 274.2,74.0 275.8,74.0 277.4,74.0 279.0,74.0 280.6,74.0 282.2,74.0 283.8,70.5 285.5,70.9 287.1,74.0 288.7,73.1 290.3,73.6 291.9,73.6 293.5,69.2 295.2,69.2 296.8,74.0 298.4,74.0 300.0,74.0 301.6,73.1 303.2,57.9 304.8,73.1 306.5,73.1 308.1,73.6 309.7,68.3 311.3,72.7 312.9,74.0 314.5,73.6 316.2,74.0 317.8,74.0 319.4,74.0 321.0,74.0 322.6,74.0 324.2,70.1 325.8,73.6 327.5,74.0 329.1,74.0 330.7,74.0 332.3,74.0 333.9,74.0 335.5,74.0 337.2,70.1 338.8,73.6 340.4,74.0 342.0,74.0 343.6,74.0 345.2,74.0 346.8,74.0 348.5,74.0 350.1,74.0 351.7,74.0 353.3,74.0 354.9,73.6 356.5,74.0 358.2,74.0 359.8,73.1 361.4,73.6 363.0,74.0 364.6,74.0 366.2,74.0 367.8,74.0 369.5,74.0 371.1,74.0 372.7,74.0 374.3,74.0 375.9,73.1 377.5,73.6 379.2,74.0 380.8,74.0 382.4,74.0 384.0,74.0 385.6,74.0 387.2,74.0 388.8,74.0 390.5,74.0 392.1,74.0 393.7,74.0 395.3,74.0 396.9,74.0 398.5,74.0 400.2,74.0 401.8,74.0 403.4,74.0 405.0,74.0 406.6,74.0 408.2,74.0 409.8,74.0 411.5,74.0 413.1,74.0 414.7,74.0 416.3,74.0 417.9,74.0 419.5,74.0 421.2,74.0 422.8,74.0 424.4,73.6 426.0,68.8 427.6,73.1 429.2,74.0 430.8,74.0 432.5,74.0 434.1,72.7 435.7,74.0 437.3,73.6 438.9,74.0 440.5,73.1 442.2,74.0 443.8,74.0 445.4,74.0 447.0,74.0 448.6,74.0 450.2,74.0 451.8,73.6 453.5,74.0 455.1,74.0 456.7,74.0 458.3,74.0 459.9,74.0 461.5,74.0 463.2,74.0 464.8,74.0 466.4,73.6 468.0,73.6 469.6,74.0 471.2,73.6 472.8,74.0 474.5,74.0 476.1,71.4 477.7,74.0 479.3,74.0 480.9,74.0 482.5,74.0 484.2,74.0 485.8,74.0 487.4,74.0 489.0,74.0 490.6,73.6 492.2,72.7 493.8,73.6 495.5,68.3 497.1,73.6 498.7,64.4 500.3,66.6 501.9,66.6 503.5,74.0 505.2,70.9 506.8,74.0 508.4,74.0 510.0,74.0 511.6,74.0 513.2,74.0 514.8,73.1 516.5,73.6 518.1,74.0 519.7,71.8 521.3,74.0 522.9,74.0 524.5,72.3 526.2,74.0 527.8,73.6 529.4,74.0 531.0,74.0 532.6,74.0 534.2,74.0 535.8,74.0 537.5,74.0 539.1,73.6 540.7,73.6 542.3,74.0 543.9,74.0 545.5,74.0 547.2,74.0 548.8,73.1 550.4,74.0 552.0,74.0 553.6,74.0 555.2,68.8 556.8,74.0 558.5,74.0 560.1,72.3 561.7,74.0 563.3,73.1 564.9,73.1 566.5,74.0 568.2,74.0 569.8,74.0 571.4,74.0 573.0,72.7 574.6,73.6 576.2,74.0 577.8,74.0 579.5,74.0 581.1,74.0 582.7,74.0 584.3,74.0 585.9,74.0 587.5,74.0 589.2,74.0 590.8,74.0 592.4,74.0 594.0,74.0 594.0,74 6.0,74" fill="url(#g)"/>
  <text x="594" y="76" font-size="10" text-anchor="end" fill="#888">through 2026-06-13 (UTC)</text>
</svg>