<svg xmlns="http://www.w3.org/2000/svg" width="600" height="80" viewBox="0 0 600 80">
  <defs>
    <linearGradient id="g" x1="0" x2="0" y1="0" y2="1">
      <stop offset="0%" stop-color="#4ea1ff" stop-opacity="0.6"/>
      <stop offset="100%" stop-color="#4ea1ff" stop-opacity="0.05"/>
    </linearGradient>
  </defs>
  <rect width="100%" height="100%" fill="transparent"/>
  <polyline fill="none" stroke="#4ea1ff" stroke-width="2" points="6.0,74.0 7.6,74.0 9.2,74.0 10.8,74.0 12.5,74.0 14.1,74.0 15.7,74.0 17.3,74.0 18.9,74.0 20.5,74.0 22.2,74.0 23.8,74.0 25.4,74.0 27.0,74.0 28.6,74.0 30.2,74.0 31.8,74.0 33.5,74.0 35.1,74.0 36.7,74.0 38.3,74.0 39.9,74.0 41.5,74.0 43.2,74.0 44.8,74.0 46.4,74.0 48.0,74.0 49.6,74.0 51.2,74.0 52.8,74.0 54.5,74.0 56.1,74.0 57.7,73.6 59.3,73.1 60.9,74.0 62.5,74.0 64.2,74.0 65.8,74.0 67.4,74.0 69.0,74.0 70.6,73.1 72.2,73.1 73.8,74.0 75.5,74.0 77.1,67.9 78.7,50.5 80.3,63.5 81.9,73.1 83.5,70.9 85.2,69.6 86.8,74.0 88.4,74.0 90.0,73.1 91.6,74.0 93.2,70.5 94.8,73.6 96.5,74.0 98.1,74.0 99.7,74.0 101.3,70.5 102.9,71.8 104.5,46.1 106.2,39.1 107.8,71.4 109.4,48.7 111.0,51.8 112.6,64.4 114.2,57.4 115.8,71.4 117.5,72.3 119.1,74.0 120.7,74.0 122.3,74.0 123.9,74.0 125.5,74.0 127.2,69.2 128.8,69.2 130.4,72.3 132.0,71.4 133.6,67.5 135.2,74.0 136.8,70.5 138.5,74.0 140.1,74.0 141.7,74.0 143.3,73.1 144.9,71.8 146.5,74.0 148.2,74.0 149.8,74.0 151.4,74.0 153.0,74.0 154.6,74.0 156.2,6.0 157.8,25.6 159.5,70.5 161.1,62.7 162.7,74.0 164.3,64.0 165.9,57.0 167.5,73.6 169.2,74.0 170.8,74.0 172.4,74.0 174.0,66.6 175.6,70.9 177.2,70.5 178.8,73.1 180.5,71.8 182.1,73.6 183.7,74.0 185.3,74.0 186.9,73.1 188.5,74.0 190.2,74.0 191.8,74.0 193.4,74.0 195.0,74.0 196.6,74.0 198.2,74.0 199.8,74.0 201.5,74.0 203.1,74.0 204.7,74.0 206.3,74.0 207.9,74.0 209.5,74.0 211.2,74.0 212.8,73.6 214.4,74.0 216.0,74.0 217.6,74.0 219.2,74.0 220.8,74.0 222.5,74.0 224.1,74.0 225.7,72.7 227.3,74.0 228.9,74.0 230.5,73.6 232.2,74.0 233.8,74.0 235.4,74.0 237.0,74.0 238.6,74.0 240.2,74.0 241.8,74.0 243.5,74.0 245.1,74.0 246.7,74.0 248.3,74.0 249.9,70.5 251.5,70.9 253.2,74.0 254.8,73.1 256.4,73.6 258.0,73.6 259.6,69.2 261.2,69.2 262.8,74.0 264.5,74.0 266.1,74.0 267.7,73.1 269.3,57.9 270.9,73.1 272.5,73.1 274.2,73.6 275.8,68.3 277.4,72.7 279.0,74.0 280.6,73.6 282.2,74.0 283.8,74.0 285.5,74.0 287.1,74.0 288.7,74.0 290.3,70.1 291.9,73.6 293.5,74.0 295.2,74.0 296.8,74.0 298.4,74.0 300.0,74.0 301.6,74.0 303.2,70.1 304.8,73.6 306.5,74.0 308.1,74.0 309.7,74.0 311.3,74.0 312.9,74.0 314.5,74.0 316.2,74.0 317.8,74.0 319.4,74.0 321.0,73.6 322.6,74.0 324.2,74.0 325.8,73.1 327.5,73.6 329.1,74.0 330.7,74.0 332.3,74.0 333.9,74.0 335.5,74.0 337.2,74.0 338.8,74.0 340.4,74.0 342.0,73.1 343.6,73.6 345.2,74.0 346.8,74.0 348.5,74.0 350.1,74.0 351.7,74.0 353.3,74.0 354.9,74.0 356.5,74.0 358.2,74.0 359.8,74.0 361.4,74.0 363.0,74.0 364.6,74.0 366.2,74.0 367.8,74.0 369.5,74.0 371.1,74.0 372.7,74.0 374.3,74.0 375.9,74.0 377.5,74.0 379.2,74.0 380.8,74.0 382.4,74.0 384.0,74.0 385.6,74.0 387.2,74.0 388.8,74.0 390.5,73.6 392.1,68.8 393.7,73.1 395.3,74.0 396.9,74.0 398.5,74.0 400.2,72.7 401.8,74.0 403.4,73.6 405.0,74.0 406.6,73.1 408.2,74.0 409.8,74.0 411.5,74.0 413.1,74.0 414.7,74.0 416.3,74.0 417.9,73.6 419.5,74.0 421.2,74.0 422.8,74.0 424.4,74.0 426.0,74.0 427.6,74.0 429.2,74.0 430.8,74.0 432.5,73.6 434.1,73.6 435.7,74.0 437.3,73.6 438.9,74.0 440.5,74.0 442.2,71.4 443.8,74.0 445.4,74.0 447.0,74.0 448.6,74.0 450.2,74.0 451.8,74.0 453.5,74.0 455.1,74.0 456.7,73.6 458.3,72.7 459.9,73.6 461.5,68.3 463.2,73.6 464.8,64.4 466.4,66.6 468.0,66.6 469.6,74.0 471.2,70.9 472.8,74.0 474.5,74.0 476.1,74.0 477.7,74.0 479.3,74.0 480.9,73.1 482.5,73.6 484.2,74.0 485.8,71.8 487.4,74.0 489.0,74.0 490.6,72.3 492.2,74.0 493.8,73.6 495.5,74.0 497.1,74.0 498.7,74.0 500.3,74.0 501.9,74.0 503.5,74.0 505.2,73.6 506.8,73.6 508.4,74.0 510.0,74.0 511.6,74.0 513.2,74.0 514.8,73.1 516.5,74.0 518.1,74.0 519.7,74.0 521.3,68.8 522.9,74.0 524.5,74.0 526.2,72.3 527.8,74.0 529.4,73.1 531.0,73.1 532.6,74.0 534.2,74.0 535.8,74.0 537.5,74.0 539.1,72.7 540.7,73.6 542.3,74.0 543.9,74.0 545.5,74.0 547.2,74.0 548.8,74.0 550.4,74.0 552.0,74.0 553.6,74.0 555.2,74.0 556.8,74.0 558.5,74.0 560.1,74.0 561.7,74.0 563.3,74.0 564.9,74.0 566.5,74.0 568.2,74.0 569.8,74.0 571.4,74.0 573.0,74.0 574.6,74.0 576.2,74.0 577.8,74.0 579.5,74.0 581.1,74.0 582.7,72.3 584.3,73.6 585.9,74.0 587.5,74.0 589.2,74.0 590.8,74.0 592.4,71.8 594.0,72.7"/>
  <polygon points="6.0,74.0 7.6,74.0 9.2,74.0 10.8,74.0 12.5,74.0 14.1,74.0 15.7,74.0 17.3,74.0 18.9,74.0 20.5,74.0 22.2,74.0 23.8,74.0 25.4,74.0 27.0,74.0 28.6,74.0 30.2,74.0 31.8,74.0 33.5,74.0 35.1,74.0 36.7,74.0 38.3,74.0 39.9,74.0 41.5,74.0 43.2,74.0 44.8,74.0 46.4,74.0 48.0,74.0 49.6,74.0 51.2,74.0 52.8,74.0 54.5,74.0 56.1,74.0 57.7,73.6 59.3,73.1 60.9,74.0 62.5,74.0 64.2,74.0 65.8,74.0 67.4,74.0 69.0,74.0 70.6,73.1 72.2,73.1 73.8,74.0 75.5,74.0 77.1,67.9 78.7,50.5 80.3,63.5 81.9,73.1 83.5,70.9 85.2,69.6 86.8,74.0 88.4,74.0 90.0,73.1 91.6,74.0 93.2,70.5 94.8,73.6 96.5,74.0 98.1,74.0 99.7,74.0 101.3,70.5 102.9,71.8 104.5,46.1 106.2,39.1 107.8,71.4 109.4,48.7 111.0,51.8 112.6,64.4 114.2,57.4 115.8,71.4 117.5,72.3 119.1,74.0 120.7,74.0 122.3,74.0 123.9,74.0 125.5,74.0 127.2,69.2 128.8,69.2 130.4,72.3 132.0,71.4 133.6,67.5 135.2,74.0 136.8,70.5 138.5,74.0 140.1,74.0 141.7,74.0 143.3,73.1 144.9,71.8 146.5,74.0 148.2,74.0 149.8,74.0 151.4,74.0 153.0,74.0 154.6,74.0 156.2,6.0 157.8,25.6 159.5,70.5 161.1,62.7 162.7,74.0 164.3,64.0 165.9,57.0 167.5,73.6 169.2,74.0 170.8,74.0 172.4,74.0 174.0,66.6 175.6,70.9 177.2,70.5 178.8,73.1 180.5,71.8 182.1,73.6 183.7,74.0 185.3,74.0 186.9,73.1 188.5,74.0 190.2,74.0 191.8,74.0 193.4,74.0 195.0,74.0 196.6,74.0 198.2,74.0 199.8,74.0 201.5,74.0 203.1,74.0 204.7,74.0 206.3,74.0 207.9,74.0 209.5,74.0 211.2,74.0 212.8,73.6 214.4,74.0 216.0,74.0 217.6,74.0 219.2,74.0 220.8,74.0 222.5,74.0 224.1,74.0 225.7,72.7 227.3,74.0 228.9,74.0 230.5,73.6 232.2,74.0 233.8,74.0 235.4,74.0 237.0,74.0 238.6,74.0 240.2,74.0 241.8,74.0 243.5,74.0 245.1,74.0 246.7,74.0 248.3,74.0 249.9,70.5 251.5,70.9 253.2,74.0 254.8,73.1 256.4,73.6 258.0,73.6 259.6,69.2 261.2,69.2 262.8,74.0 264.5,74.0 266.1,74.0 267.7,73.1 269.3,57.9 270.9,73.1 272.5,73.1 274.2,73.6 275.8,68.3 277.4,72.7 279.0,74.0 280.6,73.6 282.2,74.0 283.8,74.0 285.5,74.0 287.1,74.0 288.7,74.0 290.3,70.1 291.9,73.6 293.5,74.0 295.2,74.0 296.8,74.0 298.4,74.0 300.0,74.0 301.6,74.0 303.2,70.1 304.8,73.6 306.5,74.0 308.1,74.0 309.7,74.0 311.3,74.0 312.9,74.0 314.5,74.0 316.2,74.0 317.8,74.0 319.4,74.0 321.0,73.6 322.6,74.0 324.2,74.0 325.8,73.1 327.5,73.6 329.1,74.0 330.7,74.0 332.3,74.0 333.9,74.0 335.5,74.0 337.2,74.0 338.8,74.0 340.4,74.0 342.0,73.1 343.6,73.6 345.2,74.0 346.8,74.0 348.5,74.0 350.1,74.0 351.7,74.0 353.3,74.0 354.9,74.0 356.5,74.0 358.2,74.0 359.8,74.0 361.4,74.0 363.0,74.0 364.6,74.0 366.2,74.0 367.8,74.0 369.5,74.0 371.1,74.0 372.7,74.0 374.3,74.0 375.9,74.0 377.5,74.0 379.2,74.0 380.8,74.0 382.4,74.0 384.0,74.0 385.6,74.0 387.2,74.0 388.8,74.0 390.5,73.6 392.1,68.8 393.7,73.1 395.3,74.0 396.9,74.0 398.5,74.0 400.2,72.7 401.8,74.0 403.4,73.6 405.0,74.0 406.6,73.1 408.2,74.0 409.8,74.0 411.5,74.0 413.1,74.0 414.7,74.0 416.3,74.0 417.9,73.6 419.5,74.0 421.2,74.0 422.8,74.0 424.4,74.0 426.0,74.0 427.6,74.0 429.2,74.0 430.8,74.0 432.5,73.6 434.1,73.6 435.7,74.0 437.3,73.6 438.9,74.0 440.5,74.0 442.2,71.4 443.8,74.0 445.4,74.0 447.0,74.0 448.6,74.0 450.2,74.0 451.8,74.0 453.5,74.0 455.1,74.0 456.7,73.6 458.3,72.7 459.9,73.6 461.5,68.3 463.2,73.6 464.8,64.4 466.4,66.6 468.0,66.6 469.6,74.0 471.2,70.9 472.8,74.0 474.5,74.0 476.1,74.0 477.7,74.0 479.3,74.0 480.9,73.1 482.5,73.6 484.2,74.0 485.8,71.8 487.4,74.0 489.0,74.0 490.6,72.3 492.2,74.0 493.8,73.6 495.5,74.0 497.1,74.0 498.7,74.0 500.3,74.0 501.9,74.0 503.5,74.0 505.2,73.6 506.8,73.6 508.4,74.0 510.0,74.0 511.6,74.0 513.2,74.0 514.8,73.1 516.5,74.0 518.1,74.0 519.7,74.0 521.3,68.8 522.9,74.0 524.5,74.0 526.2,72.3 527.8,74.0 529.4,73.1 531.0,73.1 532.6,74.0 534.2,74.0 535.8,74.0 537.5,74.0 539.1,72.7 540.7,73.6 542.3,74.0 543.9,74.0 545.5,74.0 547.2,74.0 548.8,74.0 550.4,74.0 552.0,74.0 553.6,74.0 555.2,74.0 556.8,74.0 558.5,74.0 560.1,74.0 561.7,74.0 563.3,74.0 564.9,74.0 566.5,74.0 568.2,74.0 569.8,74.0 571.4,74.0 573.0,74.0 574.6,74.0 576.2,74.0 577.8,74.0 579.5,74.0 581.1,74.0 582.7,72.3 584.3,73.6 585.9,74.0 587.5,74.0 589.2,74.0 590.8,74.0 592.4,71.8 594.0,72.7 594.0,74 6.0,74" fill="url(#g)"/>
  <text x="594" y="76" font-size="10" text-anchor="end" fill="#888">through 2026-07-04 (UTC)</text>
</svg>