<svg xmlns="http://www.w3.org/2000/svg" width="600" height="80" viewBox="0 0 600 80">
  <defs>
    <linearGradient id="g" x1="0" x2="0" y1="0" y2="1">
      <stop offset="0%" stop-color="#4ea1ff" stop-opacity="0.6"/>
      <stop offset="100%" stop-color="#4ea1ff" stop-opacity="0.05"/>
    </linearGradient>
  </defs>
  <rect width="100%" height="100%" fill="transparent"/>
  <polyline fill="none" stroke="#4ea1ff" stroke-width="2" points="6.0,74.0 7.6,74.0 9.2,74.0 10.8,74.0 12.5,74.0 14.1,74.0 15.7,74.0 17.3,74.0 18.9,74.0 20.5,74.0 22.2,74.0 23.8,74.0 25.4,74.0 27.0,74.0 28.6,74.0 30.2,74.0 31.8,74.0 33.5,74.0 35.1,74.0 36.7,74.0 38.3,74.0 39.9,74.0 41.5,74.0 43.2,74.0 44.8,74.0 46.4,74.0 48.0,74.0 49.6,74.0 51.2,74.0 52.8,74.0 54.5,74.0 56.1,74.0 57.7,74.0 59.3,74.0 60.9,74.0 62.5,74.0 64.2,74.0 65.8,74.0 67.4,74.0 69.0,74.0 70.6,74.0 72.2,74.0 73.8,74.0 75.5,74.0 77.1,74.0 78.7,74.0 80.3,73.6 81.9,73.1 83.5,74.0 85.2,74.0 86.8,74.0 88.4,74.0 90.0,74.0 91.6,74.0 93.2,73.1 94.8,73.1 96.5,74.0 98.1,74.0 99.7,67.9 101.3,50.5 102.9,63.5 104.5,73.1 106.2,70.9 107.8,69.6 109.4,74.0 111.0,74.0 112.6,73.1 114.2,74.0 115.8,70.5 117.5,73.6 119.1,74.0 120.7,74.0 122.3,74.0 123.9,70.5 125.5,71.8 127.2,46.1 128.8,39.1 130.4,71.4 132.0,48.7 133.6,51.8 135.2,64.4 136.8,57.4 138.5,71.4 140.1,72.3 141.7,74.0 143.3,74.0 144.9,74.0 146.5,74.0 148.2,74.0 149.8,69.2 151.4,69.2 153.0,72.3 154.6,71.4 156.2,67.5 157.8,74.0 159.5,70.5 161.1,74.0 162.7,74.0 164.3,74.0 165.9,73.1 167.5,71.8 169.2,74.0 170.8,74.0 172.4,74.0 174.0,74.0 175.6,74.0 177.2,74.0 178.8,6.0 180.5,25.6 182.1,70.5 183.7,62.7 185.3,74.0 186.9,64.0 188.5,57.0 190.2,73.6 191.8,74.0 193.4,74.0 195.0,74.0 196.6,66.6 198.2,70.9 199.8,70.5 201.5,73.1 203.1,71.8 204.7,73.6 206.3,74.0 207.9,74.0 209.5,73.1 211.2,74.0 212.8,74.0 214.4,74.0 216.0,74.0 217.6,74.0 219.2,74.0 220.8,74.0 222.5,74.0 224.1,74.0 225.7,74.0 227.3,74.0 228.9,74.0 230.5,74.0 232.2,74.0 233.8,74.0 235.4,73.6 237.0,74.0 238.6,74.0 240.2,74.0 241.8,74.0 243.5,74.0 245.1,74.0 246.7,74.0 248.3,72.7 249.9,74.0 251.5,74.0 253.2,73.6 254.8,74.0 256.4,74.0 258.0,74.0 259.6,74.0 261.2,74.0 262.8,74.0 264.5,74.0 266.1,74.0 267.7,74.0 269.3,74.0 270.9,74.0 272.5,70.5 274.2,70.9 275.8,74.0 277.4,73.1 279.0,73.6 280.6,73.6 282.2,69.2 283.8,69.2 285.5,74.0 287.1,74.0 288.7,74.0 290.3,73.1 291.9,57.9 293.5,73.1 295.2,73.1 296.8,73.6 298.4,68.3 300.0,72.7 301.6,74.0 303.2,73.6 304.8,74.0 306.5,74.0 308.1,74.0 309.7,74.0 311.3,74.0 312.9,70.1 314.5,73.6 316.2,74.0 317.8,74.0 319.4,74.0 321.0,74.0 322.6,74.0 324.2,74.0 325.8,70.1 327.5,73.6 329.1,74.0 330.7,74.0 332.3,74.0 333.9,74.0 335.5,74.0 337.2,74.0 338.8,74.0 340.4,74.0 342.0,74.0 343.6,73.6 345.2,74.0 346.8,74.0 348.5,73.1 350.1,73.6 351.7,74.0 353.3,74.0 354.9,74.0 356.5,74.0 358.2,74.0 359.8,74.0 361.4,74.0 363.0,74.0 364.6,73.1 366.2,73.6 367.8,74.0 369.5,74.0 371.1,74.0 372.7,74.0 374.3,74.0 375.9,74.0 377.5,74.0 379.2,74.0 380.8,74.0 382.4,74.0 384.0,74.0 385.6,74.0 387.2,74.0 388.8,74.0 390.5,74.0 392.1,74.0 393.7,74.0 395.3,74.0 396.9,74.0 398.5,74.0 400.2,74.0 401.8,74.0 403.4,74.0 405.0,74.0 406.6,74.0 408.2,74.0 409.8,74.0 411.5,74.0 413.1,73.6 414.7,68.8 416.3,73.1 417.9,74.0 419.5,74.0 421.2,74.0 422.8,72.7 424.4,74.0 426.0,73.6 427.6,74.0 429.2,73.1 430.8,74.0 432.5,74.0 434.1,74.0 435.7,74.0 437.3,74.0 438.9,74.0 440.5,73.6 442.2,74.0 443.8,74.0 445.4,74.0 447.0,74.0 448.6,74.0 450.2,74.0 451.8,74.0 453.5,74.0 455.1,73.6 456.7,73.6 458.3,74.0 459.9,73.6 461.5,74.0 463.2,74.0 464.8,71.4 466.4,74.0 468.0,74.0 469.6,74.0 471.2,74.0 472.8,74.0 474.5,74.0 476.1,74.0 477.7,74.0 479.3,73.6 480.9,72.7 482.5,73.6 484.2,68.3 485.8,73.6 487.4,64.4 489.0,66.6 490.6,66.6 492.2,74.0 493.8,70.9 495.5,74.0 497.1,74.0 498.7,74.0 500.3,74.0 501.9,74.0 503.5,73.1 505.2,73.6 506.8,74.0 508.4,71.8 510.0,74.0 511.6,74.0 513.2,72.3 514.8,74.0 516.5,73.6 518.1,74.0 519.7,74.0 521.3,74.0 522.9,74.0 524.5,74.0 526.2,74.0 527.8,73.6 529.4,73.6 531.0,74.0 532.6,74.0 534.2,74.0 535.8,74.0 537.5,73.1 539.1,74.0 540.7,74.0 542.3,74.0 543.9,68.8 545.5,74.0 547.2,74.0 548.8,72.3 550.4,74.0 552.0,73.1 553.6,73.1 555.2,74.0 556.8,74.0 558.5,74.0 560.1,74.0 561.7,72.7 563.3,73.6 564.9,74.0 566.5,74.0 568.2,74.0 569.8,74.0 571.4,74.0 573.0,74.0 574.6,74.0 576.2,74.0 577.8,74.0 579.5,74.0 581.1,74.0 582.7,74.0 584.3,74.0 585.9,74.0 587.5,74.0 589.2,74.0 590.8,74.0 592.4,74.0 594.0,74.0"/>
  <polygon points="6.0,74.0 7.6,74.0 9.2,74.0 10.8,74.0 12.5,74.0 14.1,74.0 15.7,74.0 17.3,74.0 18.9,74.0 20.5,74.0 22.2,74.0 23.8,74.0 25.4,74.0 27.0,74.0 28.6,74.0 30.2,74.0 31.8,74.0 33.5,74.0 35.1,74.0 36.7,74.0 38.3,74.0 39.9,74.0 41.5,74.0 43.2,74.0 44.8,74.0 46.4,74.0 48.0,74.0 49.6,74.0 51.2,74.0 52.8,74.0 54.5,74.0 56.1,74.0 57.7,74.0 59.3,74.0 60.9,74.0 62.5,74.0 64.2,74.0 65.8,74.0 67.4,74.0 69.0,74.0 70.6,74.0 72.2,74.0 73.8,74.0 75.5,74.0 77.1,74.0 78.7,74.0 80.3,73.6 81.9,73.1 83.5,74.0 85.2,74.0 86.8,74.0 88.4,74.0 90.0,74.0 91.6,74.0 93.2,73.1 94.8,73.1 96.5,74.0 98.1,74.0 99.7,67.9 101.3,50.5 102.9,63.5 104.5,73.1 106.2,70.9 107.8,69.6 109.4,74.0 111.0,74.0 112.6,73.1 114.2,74.0 115.8,70.5 117.5,73.6 119.1,74.0 120.7,74.0 122.3,74.0 123.9,70.5 125.5,71.8 127.2,46.1 128.8,39.1 130.4,71.4 132.0,48.7 133.6,51.8 135.2,64.4 136.8,57.4 138.5,71.4 140.1,72.3 141.7,74.0 143.3,74.0 144.9,74.0 146.5,74.0 148.2,74.0 149.8,69.2 151.4,69.2 153.0,72.3 154.6,71.4 156.2,67.5 157.8,74.0 159.5,70.5 161.1,74.0 162.7,74.0 164.3,74.0 165.9,73.1 167.5,71.8 169.2,74.0 170.8,74.0 172.4,74.0 174.0,74.0 175.6,74.0 177.2,74.0 178.8,6.0 180.5,25.6 182.1,70.5 183.7,62.7 185.3,74.0 186.9,64.0 188.5,57.0 190.2,73.6 191.8,74.0 193.4,74.0 195.0,74.0 196.6,66.6 198.2,70.9 199.8,70.5 201.5,73.1 203.1,71.8 204.7,73.6 206.3,74.0 207.9,74.0 209.5,73.1 211.2,74.0 212.8,74.0 214.4,74.0 216.0,74.0 217.6,74.0 219.2,74.0 220.8,74.0 222.5,74.0 224.1,74.0 225.7,74.0 227.3,74.0 228.9,74.0 230.5,74.0 232.2,74.0 233.8,74.0 235.4,73.6 237.0,74.0 238.6,74.0 240.2,74.0 241.8,74.0 243.5,74.0 245.1,74.0 246.7,74.0 248.3,72.7 249.9,74.0 251.5,74.0 253.2,73.6 254.8,74.0 256.4,74.0 258.0,74.0 259.6,74.0 261.2,74.0 262.8,74.0 264.5,74.0 266.1,74.0 267.7,74.0 269.3,74.0 270.9,74.0 272.5,70.5 274.2,70.9 275.8,74.0 277.4,73.1 279.0,73.6 280.6,73.6 282.2,69.2 283.8,69.2 285.5,74.0 287.1,74.0 288.7,74.0 290.3,73.1 291.9,57.9 293.5,73.1 295.2,73.1 296.8,73.6 298.4,68.3 300.0,72.7 301.6,74.0 303.2,73.6 304.8,74.0 306.5,74.0 308.1,74.0 309.7,74.0 311.3,74.0 312.9,70.1 314.5,73.6 316.2,74.0 317.8,74.0 319.4,74.0 321.0,74.0 322.6,74.0 324.2,74.0 325.8,70.1 327.5,73.6 329.1,74.0 330.7,74.0 332.3,74.0 333.9,74.0 335.5,74.0 337.2,74.0 338.8,74.0 340.4,74.0 342.0,74.0 343.6,73.6 345.2,74.0 346.8,74.0 348.5,73.1 350.1,73.6 351.7,74.0 353.3,74.0 354.9,74.0 356.5,74.0 358.2,74.0 359.8,74.0 361.4,74.0 363.0,74.0 364.6,73.1 366.2,73.6 367.8,74.0 369.5,74.0 371.1,74.0 372.7,74.0 374.3,74.0 375.9,74.0 377.5,74.0 379.2,74.0 380.8,74.0 382.4,74.0 384.0,74.0 385.6,74.0 387.2,74.0 388.8,74.0 390.5,74.0 392.1,74.0 393.7,74.0 395.3,74.0 396.9,74.0 398.5,74.0 400.2,74.0 401.8,74.0 403.4,74.0 405.0,74.0 406.6,74.0 408.2,74.0 409.8,74.0 411.5,74.0 413.1,73.6 414.7,68.8 416.3,73.1 417.9,74.0 419.5,74.0 421.2,74.0 422.8,72.7 424.4,74.0 426.0,73.6 427.6,74.0 429.2,73.1 430.8,74.0 432.5,74.0 434.1,74.0 435.7,74.0 437.3,74.0 438.9,74.0 440.5,73.6 442.2,74.0 443.8,74.0 445.4,74.0 447.0,74.0 448.6,74.0 450.2,74.0 451.8,74.0 453.5,74.0 455.1,73.6 456.7,73.6 458.3,74.0 459.9,73.6 461.5,74.0 463.2,74.0 464.8,71.4 466.4,74.0 468.0,74.0 469.6,74.0 471.2,74.0 472.8,74.0 474.5,74.0 476.1,74.0 477.7,74.0 479.3,73.6 480.9,72.7 482.5,73.6 484.2,68.3 485.8,73.6 487.4,64.4 489.0,66.6 490.6,66.6 492.2,74.0 493.8,70.9 495.5,74.0 497.1,74.0 498.7,74.0 500.3,74.0 501.9,74.0 503.5,73.1 505.2,73.6 506.8,74.0 508.4,71.8 510.0,74.0 511.6,74.0 513.2,72.3 514.8,74.0 516.5,73.6 518.1,74.0 519.7,74.0 521.3,74.0 522.9,74.0 524.5,74.0 526.2,74.0 527.8,73.6 529.4,73.6 531.0,74.0 532.6,74.0 534.2,74.0 535.8,74.0 537.5,73.1 539.1,74.0 540.7,74.0 542.3,74.0 543.9,68.8 545.5,74.0 547.2,74.0 548.8,72.3 550.4,74.0 552.0,73.1 553.6,73.1 555.2,74.0 556.8,74.0 558.5,74.0 560.1,74.0 561.7,72.7 563.3,73.6 564.9,74.0 566.5,74.0 568.2,74.0 569.8,74.0 571.4,74.0 573.0,74.0 574.6,74.0 576.2,74.0 577.8,74.0 579.5,74.0 581.1,74.0 582.7,74.0 584.3,74.0 585.9,74.0 587.5,74.0 589.2,74.0 590.8,74.0 592.4,74.0 594.0,74.0 594.0,74 6.0,74" fill="url(#g)"/>
  <text x="594" y="76" font-size="10" text-anchor="end" fill="#888">through 2026-06-20 (UTC)</text>
</svg>