<svg xmlns="http://www.w3.org/2000/svg" width="600" height="80" viewBox="0 0 600 80">
  <defs>
    <linearGradient id="g" x1="0" x2="0" y1="0" y2="1">
      <stop offset="0%" stop-color="#4ea1ff" stop-opacity="0.6"/>
      <stop offset="100%" stop-color="#4ea1ff" stop-opacity="0.05"/>
    </linearGradient>
  </defs>
  <rect width="100%" height="100%" fill="transparent"/>
  <polyline fill="none" stroke="#4ea1ff" stroke-width="2" points="6.0,74.0 7.6,74.0 9.2,74.0 10.8,74.0 12.5,74.0 14.1,74.0 15.7,74.0 17.3,74.0 18.9,74.0 20.5,74.0 22.2,74.0 23.8,74.0 25.4,74.0 27.0,74.0 28.6,74.0 30.2,74.0 31.8,74.0 33.5,74.0 35.1,74.0 36.7,74.0 38.3,74.0 39.9,74.0 41.5,74.0 43.2,74.0 44.8,74.0 46.4,74.0 48.0,74.0 49.6,74.0 51.2,74.0 52.8,74.0 54.5,74.0 56.1,74.0 57.7,74.0 59.3,74.0 60.9,74.0 62.5,74.0 64.2,74.0 65.8,74.0 67.4,74.0 69.0,74.0 70.6,74.0 72.2,74.0 73.8,74.0 75.5,74.0 77.1,74.0 78.7,74.0 80.3,74.0 81.9,74.0 83.5,74.0 85.2,74.0 86.8,74.0 88.4,74.0 90.0,74.0 91.6,74.0 93.2,74.0 94.8,74.0 96.5,74.0 98.1,74.0 99.7,74.0 101.3,74.0 102.9,74.0 104.5,74.0 106.2,74.0 107.8,74.0 109.4,74.0 111.0,74.0 112.6,74.0 114.2,74.0 115.8,74.0 117.5,74.0 119.1,74.0 120.7,74.0 122.3,74.0 123.9,74.0 125.5,74.0 127.2,74.0 128.8,74.0 130.4,74.0 132.0,74.0 133.6,74.0 135.2,74.0 136.8,74.0 138.5,74.0 140.1,74.0 141.7,74.0 143.3,74.0 144.9,74.0 146.5,74.0 148.2,74.0 149.8,74.0 151.4,74.0 153.0,74.0 154.6,74.0 156.2,74.0 157.8,74.0 159.5,74.0 161.1,74.0 162.7,74.0 164.3,74.0 165.9,74.0 167.5,74.0 169.2,73.6 170.8,73.1 172.4,74.0 174.0,74.0 175.6,74.0 177.2,74.0 178.8,74.0 180.5,74.0 182.1,73.1 183.7,73.1 185.3,74.0 186.9,74.0 188.5,67.9 190.2,50.5 191.8,63.1 193.4,73.1 195.0,70.9 196.6,69.6 198.2,74.0 199.8,74.0 201.5,73.1 203.1,74.0 204.7,70.5 206.3,73.6 207.9,74.0 209.5,74.0 211.2,74.0 212.8,70.5 214.4,71.8 216.0,46.1 217.6,39.1 219.2,71.4 220.8,48.7 222.5,51.8 224.1,64.4 225.7,57.4 227.3,71.4 228.9,72.3 230.5,74.0 232.2,74.0 233.8,74.0 235.4,74.0 237.0,74.0 238.6,69.2 240.2,69.2 241.8,72.3 243.5,71.4 245.1,67.5 246.7,74.0 248.3,70.5 249.9,74.0 251.5,74.0 253.2,74.0 254.8,73.1 256.4,71.8 258.0,74.0 259.6,74.0 261.2,74.0 262.8,74.0 264.5,74.0 266.1,74.0 267.7,6.0 269.3,25.6 270.9,70.5 272.5,62.7 274.2,74.0 275.8,64.0 277.4,57.0 279.0,73.6 280.6,74.0 282.2,74.0 283.8,74.0 285.5,66.6 287.1,70.9 288.7,70.5 290.3,73.1 291.9,71.8 293.5,73.6 295.2,74.0 296.8,74.0 298.4,73.1 300.0,74.0 301.6,74.0 303.2,74.0 304.8,74.0 306.5,74.0 308.1,74.0 309.7,74.0 311.3,74.0 312.9,74.0 314.5,74.0 316.2,74.0 317.8,74.0 319.4,74.0 321.0,74.0 322.6,74.0 324.2,70.9 325.8,74.0 327.5,74.0 329.1,74.0 330.7,74.0 332.3,74.0 333.9,74.0 335.5,74.0 337.2,72.7 338.8,74.0 340.4,74.0 342.0,73.6 343.6,74.0 345.2,74.0 346.8,74.0 348.5,74.0 350.1,74.0 351.7,74.0 353.3,74.0 354.9,74.0 356.5,74.0 358.2,74.0 359.8,74.0 361.4,70.5 363.0,70.9 364.6,74.0 366.2,73.1 367.8,73.6 369.5,73.6 371.1,69.2 372.7,69.2 374.3,74.0 375.9,74.0 377.5,74.0 379.2,73.1 380.8,57.9 382.4,73.1 384.0,73.1 385.6,73.6 387.2,68.3 388.8,72.7 390.5,74.0 392.1,73.6 393.7,74.0 395.3,74.0 396.9,74.0 398.5,74.0 400.2,74.0 401.8,70.1 403.4,73.6 405.0,74.0 406.6,74.0 408.2,74.0 409.8,74.0 411.5,74.0 413.1,74.0 414.7,70.1 416.3,73.6 417.9,74.0 419.5,74.0 421.2,74.0 422.8,74.0 424.4,74.0 426.0,74.0 427.6,74.0 429.2,74.0 430.8,74.0 432.5,73.6 434.1,74.0 435.7,74.0 437.3,73.1 438.9,73.6 440.5,74.0 442.2,74.0 443.8,74.0 445.4,74.0 447.0,74.0 448.6,74.0 450.2,74.0 451.8,74.0 453.5,73.1 455.1,73.6 456.7,74.0 458.3,74.0 459.9,74.0 461.5,74.0 463.2,74.0 464.8,74.0 466.4,74.0 468.0,74.0 469.6,74.0 471.2,74.0 472.8,74.0 474.5,74.0 476.1,74.0 477.7,74.0 479.3,74.0 480.9,74.0 482.5,74.0 484.2,74.0 485.8,74.0 487.4,74.0 489.0,74.0 490.6,74.0 492.2,74.0 493.8,74.0 495.5,74.0 497.1,74.0 498.7,74.0 500.3,74.0 501.9,73.6 503.5,68.8 505.2,73.1 506.8,74.0 508.4,74.0 510.0,74.0 511.6,72.7 513.2,74.0 514.8,73.6 516.5,74.0 518.1,73.1 519.7,74.0 521.3,74.0 522.9,74.0 524.5,74.0 526.2,74.0 527.8,74.0 529.4,73.6 531.0,74.0 532.6,74.0 534.2,74.0 535.8,74.0 537.5,74.0 539.1,74.0 540.7,74.0 542.3,74.0 543.9,73.6 545.5,73.6 547.2,74.0 548.8,73.6 550.4,74.0 552.0,74.0 553.6,71.4 555.2,74.0 556.8,74.0 558.5,74.0 560.1,74.0 561.7,74.0 563.3,74.0 564.9,74.0 566.5,74.0 568.2,73.6 569.8,72.7 571.4,73.6 573.0,68.3 574.6,73.6 576.2,64.4 577.8,66.6 579.5,66.6 581.1,74.0 582.7,70.9 584.3,74.0 585.9,74.0 587.5,74.0 589.2,71.4 590.8,74.0 592.4,73.1 594.0,73.6"/>
  <polygon points="6.0,74.0 7.6,74.0 9.2,74.0 10.8,74.0 12.5,74.0 14.1,74.0 15.7,74.0 17.3,74.0 18.9,74.0 20.5,74.0 22.2,74.0 23.8,74.0 25.4,74.0 27.0,74.0 28.6,74.0 30.2,74.0 31.8,74.0 33.5,74.0 35.1,74.0 36.7,74.0 38.3,74.0 39.9,74.0 41.5,74.0 43.2,74.0 44.8,74.0 46.4,74.0 48.0,74.0 49.6,74.0 51.2,74.0 52.8,74.0 54.5,74.0 56.1,74.0 57.7,74.0 59.3,74.0 60.9,74.0 62.5,74.0 64.2,74.0 65.8,74.0 67.4,74.0 69.0,74.0 70.6,74.0 72.2,74.0 73.8,74.0 75.5,74.0 77.1,74.0 78.7,74.0 80.3,74.0 81.9,74.0 83.5,74.0 85.2,74.0 86.8,74.0 88.4,74.0 90.0,74.0 91.6,74.0 93.2,74.0 94.8,74.0 96.5,74.0 98.1,74.0 99.7,74.0 101.3,74.0 102.9,74.0 104.5,74.0 106.2,74.0 107.8,74.0 109.4,74.0 111.0,74.0 112.6,74.0 114.2,74.0 115.8,74.0 117.5,74.0 119.1,74.0 120.7,74.0 122.3,74.0 123.9,74.0 125.5,74.0 127.2,74.0 128.8,74.0 130.4,74.0 132.0,74.0 133.6,74.0 135.2,74.0 136.8,74.0 138.5,74.0 140.1,74.0 141.7,74.0 143.3,74.0 144.9,74.0 146.5,74.0 148.2,74.0 149.8,74.0 151.4,74.0 153.0,74.0 154.6,74.0 156.2,74.0 157.8,74.0 159.5,74.0 161.1,74.0 162.7,74.0 164.3,74.0 165.9,74.0 167.5,74.0 169.2,73.6 170.8,73.1 172.4,74.0 174.0,74.0 175.6,74.0 177.2,74.0 178.8,74.0 180.5,74.0 182.1,73.1 183.7,73.1 185.3,74.0 186.9,74.0 188.5,67.9 190.2,50.5 191.8,63.1 193.4,73.1 195.0,70.9 196.6,69.6 198.2,74.0 199.8,74.0 201.5,73.1 203.1,74.0 204.7,70.5 206.3,73.6 207.9,74.0 209.5,74.0 211.2,74.0 212.8,70.5 214.4,71.8 216.0,46.1 217.6,39.1 219.2,71.4 220.8,48.7 222.5,51.8 224.1,64.4 225.7,57.4 227.3,71.4 228.9,72.3 230.5,74.0 232.2,74.0 233.8,74.0 235.4,74.0 237.0,74.0 238.6,69.2 240.2,69.2 241.8,72.3 243.5,71.4 245.1,67.5 246.7,74.0 248.3,70.5 249.9,74.0 251.5,74.0 253.2,74.0 254.8,73.1 256.4,71.8 258.0,74.0 259.6,74.0 261.2,74.0 262.8,74.0 264.5,74.0 266.1,74.0 267.7,6.0 269.3,25.6 270.9,70.5 272.5,62.7 274.2,74.0 275.8,64.0 277.4,57.0 279.0,73.6 280.6,74.0 282.2,74.0 283.8,74.0 285.5,66.6 287.1,70.9 288.7,70.5 290.3,73.1 291.9,71.8 293.5,73.6 295.2,74.0 296.8,74.0 298.4,73.1 300.0,74.0 301.6,74.0 303.2,74.0 304.8,74.0 306.5,74.0 308.1,74.0 309.7,74.0 311.3,74.0 312.9,74.0 314.5,74.0 316.2,74.0 317.8,74.0 319.4,74.0 321.0,74.0 322.6,74.0 324.2,70.9 325.8,74.0 327.5,74.0 329.1,74.0 330.7,74.0 332.3,74.0 333.9,74.0 335.5,74.0 337.2,72.7 338.8,74.0 340.4,74.0 342.0,73.6 343.6,74.0 345.2,74.0 346.8,74.0 348.5,74.0 350.1,74.0 351.7,74.0 353.3,74.0 354.9,74.0 356.5,74.0 358.2,74.0 359.8,74.0 361.4,70.5 363.0,70.9 364.6,74.0 366.2,73.1 367.8,73.6 369.5,73.6 371.1,69.2 372.7,69.2 374.3,74.0 375.9,74.0 377.5,74.0 379.2,73.1 380.8,57.9 382.4,73.1 384.0,73.1 385.6,73.6 387.2,68.3 388.8,72.7 390.5,74.0 392.1,73.6 393.7,74.0 395.3,74.0 396.9,74.0 398.5,74.0 400.2,74.0 401.8,70.1 403.4,73.6 405.0,74.0 406.6,74.0 408.2,74.0 409.8,74.0 411.5,74.0 413.1,74.0 414.7,70.1 416.3,73.6 417.9,74.0 419.5,74.0 421.2,74.0 422.8,74.0 424.4,74.0 426.0,74.0 427.6,74.0 429.2,74.0 430.8,74.0 432.5,73.6 434.1,74.0 435.7,74.0 437.3,73.1 438.9,73.6 440.5,74.0 442.2,74.0 443.8,74.0 445.4,74.0 447.0,74.0 448.6,74.0 450.2,74.0 451.8,74.0 453.5,73.1 455.1,73.6 456.7,74.0 458.3,74.0 459.9,74.0 461.5,74.0 463.2,74.0 464.8,74.0 466.4,74.0 468.0,74.0 469.6,74.0 471.2,74.0 472.8,74.0 474.5,74.0 476.1,74.0 477.7,74.0 479.3,74.0 480.9,74.0 482.5,74.0 484.2,74.0 485.8,74.0 487.4,74.0 489.0,74.0 490.6,74.0 492.2,74.0 493.8,74.0 495.5,74.0 497.1,74.0 498.7,74.0 500.3,74.0 501.9,73.6 503.5,68.8 505.2,73.1 506.8,74.0 508.4,74.0 510.0,74.0 511.6,72.7 513.2,74.0 514.8,73.6 516.5,74.0 518.1,73.1 519.7,74.0 521.3,74.0 522.9,74.0 524.5,74.0 526.2,74.0 527.8,74.0 529.4,73.6 531.0,74.0 532.6,74.0 534.2,74.0 535.8,74.0 537.5,74.0 539.1,74.0 540.7,74.0 542.3,74.0 543.9,73.6 545.5,73.6 547.2,74.0 548.8,73.6 550.4,74.0 552.0,74.0 553.6,71.4 555.2,74.0 556.8,74.0 558.5,74.0 560.1,74.0 561.7,74.0 563.3,74.0 564.9,74.0 566.5,74.0 568.2,73.6 569.8,72.7 571.4,73.6 573.0,68.3 574.6,73.6 576.2,64.4 577.8,66.6 579.5,66.6 581.1,74.0 582.7,70.9 584.3,74.0 585.9,74.0 587.5,74.0 589.2,71.4 590.8,74.0 592.4,73.1 594.0,73.6 594.0,74 6.0,74" fill="url(#g)"/>
  <text x="594" y="76" font-size="10" text-anchor="end" fill="#888">through 2026-04-26 (UTC)</text>
</svg>