<svg xmlns="http://www.w3.org/2000/svg" width="600" height="80" viewBox="0 0 600 80">
  <defs>
    <linearGradient id="g" x1="0" x2="0" y1="0" y2="1">
      <stop offset="0%" stop-color="#4ea1ff" stop-opacity="0.6"/>
      <stop offset="100%" stop-color="#4ea1ff" stop-opacity="0.05"/>
    </linearGradient>
  </defs>
  <rect width="100%" height="100%" fill="transparent"/>
  <polyline fill="none" stroke="#4ea1ff" stroke-width="2" points="6.0,74.0 7.6,74.0 9.2,74.0 10.8,74.0 12.5,74.0 14.1,74.0 15.7,74.0 17.3,74.0 18.9,74.0 20.5,74.0 22.2,74.0 23.8,74.0 25.4,74.0 27.0,74.0 28.6,74.0 30.2,74.0 31.8,74.0 33.5,74.0 35.1,74.0 36.7,74.0 38.3,74.0 39.9,74.0 41.5,74.0 43.2,74.0 44.8,74.0 46.4,74.0 48.0,74.0 49.6,74.0 51.2,74.0 52.8,74.0 54.5,74.0 56.1,74.0 57.7,74.0 59.3,74.0 60.9,74.0 62.5,74.0 64.2,74.0 65.8,74.0 67.4,74.0 69.0,74.0 70.6,74.0 72.2,74.0 73.8,74.0 75.5,74.0 77.1,74.0 78.7,74.0 80.3,74.0 81.9,74.0 83.5,74.0 85.2,74.0 86.8,74.0 88.4,74.0 90.0,74.0 91.6,74.0 93.2,74.0 94.8,74.0 96.5,74.0 98.1,74.0 99.7,74.0 101.3,74.0 102.9,74.0 104.5,74.0 106.2,74.0 107.8,74.0 109.4,74.0 111.0,74.0 112.6,74.0 114.2,74.0 115.8,74.0 117.5,74.0 119.1,74.0 120.7,74.0 122.3,74.0 123.9,74.0 125.5,74.0 127.2,74.0 128.8,74.0 130.4,74.0 132.0,74.0 133.6,74.0 135.2,74.0 136.8,74.0 138.5,74.0 140.1,74.0 141.7,74.0 143.3,74.0 144.9,74.0 146.5,74.0 148.2,74.0 149.8,74.0 151.4,74.0 153.0,74.0 154.6,74.0 156.2,74.0 157.8,74.0 159.5,74.0 161.1,74.0 162.7,74.0 164.3,74.0 165.9,74.0 167.5,74.0 169.2,74.0 170.8,74.0 172.4,74.0 174.0,74.0 175.6,74.0 177.2,74.0 178.8,74.0 180.5,74.0 182.1,74.0 183.7,74.0 185.3,74.0 186.9,74.0 188.5,73.6 190.2,73.2 191.8,74.0 193.4,74.0 195.0,74.0 196.6,74.0 198.2,74.0 199.8,74.0 201.5,73.2 203.1,73.2 204.7,74.0 206.3,74.0 207.9,66.8 209.5,49.1 211.2,61.9 212.8,73.2 214.4,71.2 216.0,70.0 217.6,74.0 219.2,74.0 220.8,73.2 222.5,74.0 224.1,70.4 225.7,73.6 227.3,74.0 228.9,74.0 230.5,74.0 232.2,68.4 233.8,72.0 235.4,48.2 237.0,41.4 238.6,71.6 240.2,50.3 241.8,53.5 243.5,65.1 245.1,58.3 246.7,71.6 248.3,72.4 249.9,74.0 251.5,74.0 253.2,74.0 254.8,74.0 256.4,74.0 258.0,69.6 259.6,69.6 261.2,72.4 262.8,71.6 264.5,68.0 266.1,74.0 267.7,70.8 269.3,74.0 270.9,74.0 272.5,74.0 274.2,73.2 275.8,72.0 277.4,74.0 279.0,74.0 280.6,74.0 282.2,74.0 283.8,74.0 285.5,74.0 287.1,6.0 288.7,27.3 290.3,70.8 291.9,61.9 293.5,74.0 295.2,64.7 296.8,58.3 298.4,73.6 300.0,74.0 301.6,74.0 303.2,74.0 304.8,67.2 306.5,71.2 308.1,69.6 309.7,73.2 311.3,72.0 312.9,73.6 314.5,74.0 316.2,74.0 317.8,73.2 319.4,74.0 321.0,74.0 322.6,74.0 324.2,74.0 325.8,74.0 327.5,74.0 329.1,74.0 330.7,74.0 332.3,74.0 333.9,74.0 335.5,74.0 337.2,74.0 338.8,74.0 340.4,74.0 342.0,74.0 343.6,71.2 345.2,74.0 346.8,74.0 348.5,74.0 350.1,74.0 351.7,74.0 353.3,74.0 354.9,74.0 356.5,72.8 358.2,74.0 359.8,74.0 361.4,71.6 363.0,74.0 364.6,74.0 366.2,74.0 367.8,74.0 369.5,74.0 371.1,74.0 372.7,74.0 374.3,74.0 375.9,74.0 377.5,74.0 379.2,74.0 380.8,70.4 382.4,71.2 384.0,74.0 385.6,73.2 387.2,73.6 388.8,73.6 390.5,69.6 392.1,69.6 393.7,74.0 395.3,74.0 396.9,74.0 398.5,73.2 400.2,58.3 401.8,73.2 403.4,71.6 405.0,73.6 406.6,68.8 408.2,72.8 409.8,74.0 411.5,73.6 413.1,74.0 414.7,74.0 416.3,74.0 417.9,74.0 419.5,74.0 421.2,70.4 422.8,73.2 424.4,74.0 426.0,74.0 427.6,74.0 429.2,74.0 430.8,74.0 432.5,74.0 434.1,70.4 435.7,73.6 437.3,74.0 438.9,74.0 440.5,74.0 442.2,74.0 443.8,74.0 445.4,74.0 447.0,74.0 448.6,74.0 450.2,74.0 451.8,73.6 453.5,74.0 455.1,74.0 456.7,72.8 458.3,73.6 459.9,74.0 461.5,74.0 463.2,74.0 464.8,74.0 466.4,74.0 468.0,74.0 469.6,74.0 471.2,74.0 472.8,73.2 474.5,73.6 476.1,74.0 477.7,74.0 479.3,74.0 480.9,74.0 482.5,74.0 484.2,74.0 485.8,74.0 487.4,74.0 489.0,74.0 490.6,74.0 492.2,74.0 493.8,74.0 495.5,74.0 497.1,74.0 498.7,74.0 500.3,74.0 501.9,74.0 503.5,74.0 505.2,74.0 506.8,74.0 508.4,74.0 510.0,74.0 511.6,74.0 513.2,74.0 514.8,74.0 516.5,74.0 518.1,74.0 519.7,74.0 521.3,73.6 522.9,64.7 524.5,71.6 526.2,74.0 527.8,74.0 529.4,74.0 531.0,72.4 532.6,73.6 534.2,73.2 535.8,74.0 537.5,73.2 539.1,74.0 540.7,74.0 542.3,74.0 543.9,74.0 545.5,74.0 547.2,74.0 548.8,73.6 550.4,73.6 552.0,74.0 553.6,74.0 555.2,74.0 556.8,74.0 558.5,74.0 560.1,74.0 561.7,74.0 563.3,73.6 564.9,73.6 566.5,74.0 568.2,73.6 569.8,74.0 571.4,74.0 573.0,71.6 574.6,74.0 576.2,74.0 577.8,74.0 579.5,72.8 581.1,74.0 582.7,74.0 584.3,74.0 585.9,74.0 587.5,73.6 589.2,72.8 590.8,73.2 592.4,68.8 594.0,73.2"/>
  <polygon points="6.0,74.0 7.6,74.0 9.2,74.0 10.8,74.0 12.5,74.0 14.1,74.0 15.7,74.0 17.3,74.0 18.9,74.0 20.5,74.0 22.2,74.0 23.8,74.0 25.4,74.0 27.0,74.0 28.6,74.0 30.2,74.0 31.8,74.0 33.5,74.0 35.1,74.0 36.7,74.0 38.3,74.0 39.9,74.0 41.5,74.0 43.2,74.0 44.8,74.0 46.4,74.0 48.0,74.0 49.6,74.0 51.2,74.0 52.8,74.0 54.5,74.0 56.1,74.0 57.7,74.0 59.3,74.0 60.9,74.0 62.5,74.0 64.2,74.0 65.8,74.0 67.4,74.0 69.0,74.0 70.6,74.0 72.2,74.0 73.8,74.0 75.5,74.0 77.1,74.0 78.7,74.0 80.3,74.0 81.9,74.0 83.5,74.0 85.2,74.0 86.8,74.0 88.4,74.0 90.0,74.0 91.6,74.0 93.2,74.0 94.8,74.0 96.5,74.0 98.1,74.0 99.7,74.0 101.3,74.0 102.9,74.0 104.5,74.0 106.2,74.0 107.8,74.0 109.4,74.0 111.0,74.0 112.6,74.0 114.2,74.0 115.8,74.0 117.5,74.0 119.1,74.0 120.7,74.0 122.3,74.0 123.9,74.0 125.5,74.0 127.2,74.0 128.8,74.0 130.4,74.0 132.0,74.0 133.6,74.0 135.2,74.0 136.8,74.0 138.5,74.0 140.1,74.0 141.7,74.0 143.3,74.0 144.9,74.0 146.5,74.0 148.2,74.0 149.8,74.0 151.4,74.0 153.0,74.0 154.6,74.0 156.2,74.0 157.8,74.0 159.5,74.0 161.1,74.0 162.7,74.0 164.3,74.0 165.9,74.0 167.5,74.0 169.2,74.0 170.8,74.0 172.4,74.0 174.0,74.0 175.6,74.0 177.2,74.0 178.8,74.0 180.5,74.0 182.1,74.0 183.7,74.0 185.3,74.0 186.9,74.0 188.5,73.6 190.2,73.2 191.8,74.0 193.4,74.0 195.0,74.0 196.6,74.0 198.2,74.0 199.8,74.0 201.5,73.2 203.1,73.2 204.7,74.0 206.3,74.0 207.9,66.8 209.5,49.1 211.2,61.9 212.8,73.2 214.4,71.2 216.0,70.0 217.6,74.0 219.2,74.0 220.8,73.2 222.5,74.0 224.1,70.4 225.7,73.6 227.3,74.0 228.9,74.0 230.5,74.0 232.2,68.4 233.8,72.0 235.4,48.2 237.0,41.4 238.6,71.6 240.2,50.3 241.8,53.5 243.5,65.1 245.1,58.3 246.7,71.6 248.3,72.4 249.9,74.0 251.5,74.0 253.2,74.0 254.8,74.0 256.4,74.0 258.0,69.6 259.6,69.6 261.2,72.4 262.8,71.6 264.5,68.0 266.1,74.0 267.7,70.8 269.3,74.0 270.9,74.0 272.5,74.0 274.2,73.2 275.8,72.0 277.4,74.0 279.0,74.0 280.6,74.0 282.2,74.0 283.8,74.0 285.5,74.0 287.1,6.0 288.7,27.3 290.3,70.8 291.9,61.9 293.5,74.0 295.2,64.7 296.8,58.3 298.4,73.6 300.0,74.0 301.6,74.0 303.2,74.0 304.8,67.2 306.5,71.2 308.1,69.6 309.7,73.2 311.3,72.0 312.9,73.6 314.5,74.0 316.2,74.0 317.8,73.2 319.4,74.0 321.0,74.0 322.6,74.0 324.2,74.0 325.8,74.0 327.5,74.0 329.1,74.0 330.7,74.0 332.3,74.0 333.9,74.0 335.5,74.0 337.2,74.0 338.8,74.0 340.4,74.0 342.0,74.0 343.6,71.2 345.2,74.0 346.8,74.0 348.5,74.0 350.1,74.0 351.7,74.0 353.3,74.0 354.9,74.0 356.5,72.8 358.2,74.0 359.8,74.0 361.4,71.6 363.0,74.0 364.6,74.0 366.2,74.0 367.8,74.0 369.5,74.0 371.1,74.0 372.7,74.0 374.3,74.0 375.9,74.0 377.5,74.0 379.2,74.0 380.8,70.4 382.4,71.2 384.0,74.0 385.6,73.2 387.2,73.6 388.8,73.6 390.5,69.6 392.1,69.6 393.7,74.0 395.3,74.0 396.9,74.0 398.5,73.2 400.2,58.3 401.8,73.2 403.4,71.6 405.0,73.6 406.6,68.8 408.2,72.8 409.8,74.0 411.5,73.6 413.1,74.0 414.7,74.0 416.3,74.0 417.9,74.0 419.5,74.0 421.2,70.4 422.8,73.2 424.4,74.0 426.0,74.0 427.6,74.0 429.2,74.0 430.8,74.0 432.5,74.0 434.1,70.4 435.7,73.6 437.3,74.0 438.9,74.0 440.5,74.0 442.2,74.0 443.8,74.0 445.4,74.0 447.0,74.0 448.6,74.0 450.2,74.0 451.8,73.6 453.5,74.0 455.1,74.0 456.7,72.8 458.3,73.6 459.9,74.0 461.5,74.0 463.2,74.0 464.8,74.0 466.4,74.0 468.0,74.0 469.6,74.0 471.2,74.0 472.8,73.2 474.5,73.6 476.1,74.0 477.7,74.0 479.3,74.0 480.9,74.0 482.5,74.0 484.2,74.0 485.8,74.0 487.4,74.0 489.0,74.0 490.6,74.0 492.2,74.0 493.8,74.0 495.5,74.0 497.1,74.0 498.7,74.0 500.3,74.0 501.9,74.0 503.5,74.0 505.2,74.0 506.8,74.0 508.4,74.0 510.0,74.0 511.6,74.0 513.2,74.0 514.8,74.0 516.5,74.0 518.1,74.0 519.7,74.0 521.3,73.6 522.9,64.7 524.5,71.6 526.2,74.0 527.8,74.0 529.4,74.0 531.0,72.4 532.6,73.6 534.2,73.2 535.8,74.0 537.5,73.2 539.1,74.0 540.7,74.0 542.3,74.0 543.9,74.0 545.5,74.0 547.2,74.0 548.8,73.6 550.4,73.6 552.0,74.0 553.6,74.0 555.2,74.0 556.8,74.0 558.5,74.0 560.1,74.0 561.7,74.0 563.3,73.6 564.9,73.6 566.5,74.0 568.2,73.6 569.8,74.0 571.4,74.0 573.0,71.6 574.6,74.0 576.2,74.0 577.8,74.0 579.5,72.8 581.1,74.0 582.7,74.0 584.3,74.0 585.9,74.0 587.5,73.6 589.2,72.8 590.8,73.2 592.4,68.8 594.0,73.2 594.0,74 6.0,74" fill="url(#g)"/>
  <text x="594" y="76" font-size="10" text-anchor="end" fill="#888">through 2026-04-14 (UTC)</text>
</svg>