<svg xmlns="http://www.w3.org/2000/svg" width="600" height="80" viewBox="0 0 600 80">
  <defs>
    <linearGradient id="g" x1="0" x2="0" y1="0" y2="1">
      <stop offset="0%" stop-color="#4ea1ff" stop-opacity="0.6"/>
      <stop offset="100%" stop-color="#4ea1ff" stop-opacity="0.05"/>
    </linearGradient>
  </defs>
  <rect width="100%" height="100%" fill="transparent"/>
  <polyline fill="none" stroke="#4ea1ff" stroke-width="2" points="6.0,74.0 7.6,74.0 9.2,74.0 10.8,74.0 12.5,74.0 14.1,74.0 15.7,74.0 17.3,74.0 18.9,74.0 20.5,74.0 22.2,74.0 23.8,74.0 25.4,74.0 27.0,74.0 28.6,74.0 30.2,74.0 31.8,74.0 33.5,74.0 35.1,74.0 36.7,74.0 38.3,74.0 39.9,74.0 41.5,74.0 43.2,74.0 44.8,74.0 46.4,74.0 48.0,74.0 49.6,74.0 51.2,74.0 52.8,74.0 54.5,74.0 56.1,74.0 57.7,74.0 59.3,74.0 60.9,74.0 62.5,74.0 64.2,74.0 65.8,74.0 67.4,74.0 69.0,74.0 70.6,74.0 72.2,74.0 73.8,74.0 75.5,74.0 77.1,74.0 78.7,74.0 80.3,74.0 81.9,74.0 83.5,74.0 85.2,74.0 86.8,74.0 88.4,74.0 90.0,74.0 91.6,74.0 93.2,74.0 94.8,74.0 96.5,74.0 98.1,74.0 99.7,74.0 101.3,74.0 102.9,74.0 104.5,74.0 106.2,74.0 107.8,73.6 109.4,73.1 111.0,74.0 112.6,74.0 114.2,74.0 115.8,74.0 117.5,74.0 119.1,74.0 120.7,73.1 122.3,73.1 123.9,74.0 125.5,74.0 127.2,67.9 128.8,50.5 130.4,63.5 132.0,73.1 133.6,70.9 135.2,69.6 136.8,74.0 138.5,74.0 140.1,73.1 141.7,74.0 143.3,70.5 144.9,73.6 146.5,74.0 148.2,74.0 149.8,74.0 151.4,70.5 153.0,71.8 154.6,46.1 156.2,39.1 157.8,71.4 159.5,48.7 161.1,51.8 162.7,64.4 164.3,57.4 165.9,71.4 167.5,72.3 169.2,74.0 170.8,74.0 172.4,74.0 174.0,74.0 175.6,74.0 177.2,69.2 178.8,69.2 180.5,72.3 182.1,71.4 183.7,67.5 185.3,74.0 186.9,70.5 188.5,74.0 190.2,74.0 191.8,74.0 193.4,73.1 195.0,71.8 196.6,74.0 198.2,74.0 199.8,74.0 201.5,74.0 203.1,74.0 204.7,74.0 206.3,6.0 207.9,25.6 209.5,70.5 211.2,62.7 212.8,74.0 214.4,64.0 216.0,57.0 217.6,73.6 219.2,74.0 220.8,74.0 222.5,74.0 224.1,66.6 225.7,70.9 227.3,70.5 228.9,73.1 230.5,71.8 232.2,73.6 233.8,74.0 235.4,74.0 237.0,73.1 238.6,74.0 240.2,74.0 241.8,74.0 243.5,74.0 245.1,74.0 246.7,74.0 248.3,74.0 249.9,74.0 251.5,74.0 253.2,74.0 254.8,74.0 256.4,74.0 258.0,74.0 259.6,74.0 261.2,74.0 262.8,73.6 264.5,74.0 266.1,74.0 267.7,74.0 269.3,74.0 270.9,74.0 272.5,74.0 274.2,74.0 275.8,72.7 277.4,74.0 279.0,74.0 280.6,73.6 282.2,74.0 283.8,74.0 285.5,74.0 287.1,74.0 288.7,74.0 290.3,74.0 291.9,74.0 293.5,74.0 295.2,74.0 296.8,74.0 298.4,74.0 300.0,70.5 301.6,70.9 303.2,74.0 304.8,73.1 306.5,73.6 308.1,73.6 309.7,69.2 311.3,69.2 312.9,74.0 314.5,74.0 316.2,74.0 317.8,73.1 319.4,57.9 321.0,73.1 322.6,73.1 324.2,73.6 325.8,68.3 327.5,72.7 329.1,74.0 330.7,73.6 332.3,74.0 333.9,74.0 335.5,74.0 337.2,74.0 338.8,74.0 340.4,70.1 342.0,73.6 343.6,74.0 345.2,74.0 346.8,74.0 348.5,74.0 350.1,74.0 351.7,74.0 353.3,70.1 354.9,73.6 356.5,74.0 358.2,74.0 359.8,74.0 361.4,74.0 363.0,74.0 364.6,74.0 366.2,74.0 367.8,74.0 369.5,74.0 371.1,73.6 372.7,74.0 374.3,74.0 375.9,73.1 377.5,73.6 379.2,74.0 380.8,74.0 382.4,74.0 384.0,74.0 385.6,74.0 387.2,74.0 388.8,74.0 390.5,74.0 392.1,73.1 393.7,73.6 395.3,74.0 396.9,74.0 398.5,74.0 400.2,74.0 401.8,74.0 403.4,74.0 405.0,74.0 406.6,74.0 408.2,74.0 409.8,74.0 411.5,74.0 413.1,74.0 414.7,74.0 416.3,74.0 417.9,74.0 419.5,74.0 421.2,74.0 422.8,74.0 424.4,74.0 426.0,74.0 427.6,74.0 429.2,74.0 430.8,74.0 432.5,74.0 434.1,74.0 435.7,74.0 437.3,74.0 438.9,74.0 440.5,73.6 442.2,68.8 443.8,73.1 445.4,74.0 447.0,74.0 448.6,74.0 450.2,72.7 451.8,74.0 453.5,73.6 455.1,74.0 456.7,73.1 458.3,74.0 459.9,74.0 461.5,74.0 463.2,74.0 464.8,74.0 466.4,74.0 468.0,73.6 469.6,74.0 471.2,74.0 472.8,74.0 474.5,74.0 476.1,74.0 477.7,74.0 479.3,74.0 480.9,74.0 482.5,73.6 484.2,73.6 485.8,74.0 487.4,73.6 489.0,74.0 490.6,74.0 492.2,71.4 493.8,74.0 495.5,74.0 497.1,74.0 498.7,74.0 500.3,74.0 501.9,74.0 503.5,74.0 505.2,74.0 506.8,73.6 508.4,72.7 510.0,73.6 511.6,68.3 513.2,73.6 514.8,64.4 516.5,66.6 518.1,66.6 519.7,74.0 521.3,70.9 522.9,74.0 524.5,74.0 526.2,74.0 527.8,74.0 529.4,74.0 531.0,73.1 532.6,73.6 534.2,74.0 535.8,71.8 537.5,74.0 539.1,74.0 540.7,72.3 542.3,74.0 543.9,73.6 545.5,74.0 547.2,74.0 548.8,74.0 550.4,74.0 552.0,74.0 553.6,74.0 555.2,73.6 556.8,73.6 558.5,74.0 560.1,74.0 561.7,74.0 563.3,74.0 564.9,73.1 566.5,74.0 568.2,74.0 569.8,74.0 571.4,68.8 573.0,74.0 574.6,74.0 576.2,72.3 577.8,74.0 579.5,73.1 581.1,73.1 582.7,74.0 584.3,74.0 585.9,74.0 587.5,74.0 589.2,72.7 590.8,73.6 592.4,74.0 594.0,74.0"/>
  <polygon points="6.0,74.0 7.6,74.0 9.2,74.0 10.8,74.0 12.5,74.0 14.1,74.0 15.7,74.0 17.3,74.0 18.9,74.0 20.5,74.0 22.2,74.0 23.8,74.0 25.4,74.0 27.0,74.0 28.6,74.0 30.2,74.0 31.8,74.0 33.5,74.0 35.1,74.0 36.7,74.0 38.3,74.0 39.9,74.0 41.5,74.0 43.2,74.0 44.8,74.0 46.4,74.0 48.0,74.0 49.6,74.0 51.2,74.0 52.8,74.0 54.5,74.0 56.1,74.0 57.7,74.0 59.3,74.0 60.9,74.0 62.5,74.0 64.2,74.0 65.8,74.0 67.4,74.0 69.0,74.0 70.6,74.0 72.2,74.0 73.8,74.0 75.5,74.0 77.1,74.0 78.7,74.0 80.3,74.0 81.9,74.0 83.5,74.0 85.2,74.0 86.8,74.0 88.4,74.0 90.0,74.0 91.6,74.0 93.2,74.0 94.8,74.0 96.5,74.0 98.1,74.0 99.7,74.0 101.3,74.0 102.9,74.0 104.5,74.0 106.2,74.0 107.8,73.6 109.4,73.1 111.0,74.0 112.6,74.0 114.2,74.0 115.8,74.0 117.5,74.0 119.1,74.0 120.7,73.1 122.3,73.1 123.9,74.0 125.5,74.0 127.2,67.9 128.8,50.5 130.4,63.5 132.0,73.1 133.6,70.9 135.2,69.6 136.8,74.0 138.5,74.0 140.1,73.1 141.7,74.0 143.3,70.5 144.9,73.6 146.5,74.0 148.2,74.0 149.8,74.0 151.4,70.5 153.0,71.8 154.6,46.1 156.2,39.1 157.8,71.4 159.5,48.7 161.1,51.8 162.7,64.4 164.3,57.4 165.9,71.4 167.5,72.3 169.2,74.0 170.8,74.0 172.4,74.0 174.0,74.0 175.6,74.0 177.2,69.2 178.8,69.2 180.5,72.3 182.1,71.4 183.7,67.5 185.3,74.0 186.9,70.5 188.5,74.0 190.2,74.0 191.8,74.0 193.4,73.1 195.0,71.8 196.6,74.0 198.2,74.0 199.8,74.0 201.5,74.0 203.1,74.0 204.7,74.0 206.3,6.0 207.9,25.6 209.5,70.5 211.2,62.7 212.8,74.0 214.4,64.0 216.0,57.0 217.6,73.6 219.2,74.0 220.8,74.0 222.5,74.0 224.1,66.6 225.7,70.9 227.3,70.5 228.9,73.1 230.5,71.8 232.2,73.6 233.8,74.0 235.4,74.0 237.0,73.1 238.6,74.0 240.2,74.0 241.8,74.0 243.5,74.0 245.1,74.0 246.7,74.0 248.3,74.0 249.9,74.0 251.5,74.0 253.2,74.0 254.8,74.0 256.4,74.0 258.0,74.0 259.6,74.0 261.2,74.0 262.8,73.6 264.5,74.0 266.1,74.0 267.7,74.0 269.3,74.0 270.9,74.0 272.5,74.0 274.2,74.0 275.8,72.7 277.4,74.0 279.0,74.0 280.6,73.6 282.2,74.0 283.8,74.0 285.5,74.0 287.1,74.0 288.7,74.0 290.3,74.0 291.9,74.0 293.5,74.0 295.2,74.0 296.8,74.0 298.4,74.0 300.0,70.5 301.6,70.9 303.2,74.0 304.8,73.1 306.5,73.6 308.1,73.6 309.7,69.2 311.3,69.2 312.9,74.0 314.5,74.0 316.2,74.0 317.8,73.1 319.4,57.9 321.0,73.1 322.6,73.1 324.2,73.6 325.8,68.3 327.5,72.7 329.1,74.0 330.7,73.6 332.3,74.0 333.9,74.0 335.5,74.0 337.2,74.0 338.8,74.0 340.4,70.1 342.0,73.6 343.6,74.0 345.2,74.0 346.8,74.0 348.5,74.0 350.1,74.0 351.7,74.0 353.3,70.1 354.9,73.6 356.5,74.0 358.2,74.0 359.8,74.0 361.4,74.0 363.0,74.0 364.6,74.0 366.2,74.0 367.8,74.0 369.5,74.0 371.1,73.6 372.7,74.0 374.3,74.0 375.9,73.1 377.5,73.6 379.2,74.0 380.8,74.0 382.4,74.0 384.0,74.0 385.6,74.0 387.2,74.0 388.8,74.0 390.5,74.0 392.1,73.1 393.7,73.6 395.3,74.0 396.9,74.0 398.5,74.0 400.2,74.0 401.8,74.0 403.4,74.0 405.0,74.0 406.6,74.0 408.2,74.0 409.8,74.0 411.5,74.0 413.1,74.0 414.7,74.0 416.3,74.0 417.9,74.0 419.5,74.0 421.2,74.0 422.8,74.0 424.4,74.0 426.0,74.0 427.6,74.0 429.2,74.0 430.8,74.0 432.5,74.0 434.1,74.0 435.7,74.0 437.3,74.0 438.9,74.0 440.5,73.6 442.2,68.8 443.8,73.1 445.4,74.0 447.0,74.0 448.6,74.0 450.2,72.7 451.8,74.0 453.5,73.6 455.1,74.0 456.7,73.1 458.3,74.0 459.9,74.0 461.5,74.0 463.2,74.0 464.8,74.0 466.4,74.0 468.0,73.6 469.6,74.0 471.2,74.0 472.8,74.0 474.5,74.0 476.1,74.0 477.7,74.0 479.3,74.0 480.9,74.0 482.5,73.6 484.2,73.6 485.8,74.0 487.4,73.6 489.0,74.0 490.6,74.0 492.2,71.4 493.8,74.0 495.5,74.0 497.1,74.0 498.7,74.0 500.3,74.0 501.9,74.0 503.5,74.0 505.2,74.0 506.8,73.6 508.4,72.7 510.0,73.6 511.6,68.3 513.2,73.6 514.8,64.4 516.5,66.6 518.1,66.6 519.7,74.0 521.3,70.9 522.9,74.0 524.5,74.0 526.2,74.0 527.8,74.0 529.4,74.0 531.0,73.1 532.6,73.6 534.2,74.0 535.8,71.8 537.5,74.0 539.1,74.0 540.7,72.3 542.3,74.0 543.9,73.6 545.5,74.0 547.2,74.0 548.8,74.0 550.4,74.0 552.0,74.0 553.6,74.0 555.2,73.6 556.8,73.6 558.5,74.0 560.1,74.0 561.7,74.0 563.3,74.0 564.9,73.1 566.5,74.0 568.2,74.0 569.8,74.0 571.4,68.8 573.0,74.0 574.6,74.0 576.2,72.3 577.8,74.0 579.5,73.1 581.1,73.1 582.7,74.0 584.3,74.0 585.9,74.0 587.5,74.0 589.2,72.7 590.8,73.6 592.4,74.0 594.0,74.0 594.0,74 6.0,74" fill="url(#g)"/>
  <text x="594" y="76" font-size="10" text-anchor="end" fill="#888">through 2026-06-03 (UTC)</text>
</svg>