<svg xmlns="http://www.w3.org/2000/svg" width="600" height="80" viewBox="0 0 600 80">
  <defs>
    <linearGradient id="g" x1="0" x2="0" y1="0" y2="1">
      <stop offset="0%" stop-color="#4ea1ff" stop-opacity="0.6"/>
      <stop offset="100%" stop-color="#4ea1ff" stop-opacity="0.05"/>
    </linearGradient>
  </defs>
  <rect width="100%" height="100%" fill="transparent"/>
  <polyline fill="none" stroke="#4ea1ff" stroke-width="2" points="6.0,74.0 7.6,74.0 9.2,74.0 10.8,74.0 12.5,74.0 14.1,74.0 15.7,74.0 17.3,74.0 18.9,74.0 20.5,74.0 22.2,74.0 23.8,74.0 25.4,74.0 27.0,74.0 28.6,74.0 30.2,74.0 31.8,74.0 33.5,74.0 35.1,74.0 36.7,74.0 38.3,74.0 39.9,74.0 41.5,74.0 43.2,74.0 44.8,74.0 46.4,74.0 48.0,73.6 49.6,73.1 51.2,74.0 52.8,74.0 54.5,74.0 56.1,74.0 57.7,74.0 59.3,74.0 60.9,73.1 62.5,73.1 64.2,74.0 65.8,74.0 67.4,67.9 69.0,50.5 70.6,63.5 72.2,73.1 73.8,70.9 75.5,69.6 77.1,74.0 78.7,74.0 80.3,73.1 81.9,74.0 83.5,70.5 85.2,73.6 86.8,74.0 88.4,74.0 90.0,74.0 91.6,70.5 93.2,71.8 94.8,46.1 96.5,39.1 98.1,71.4 99.7,48.7 101.3,51.8 102.9,64.4 104.5,57.4 106.2,71.4 107.8,72.3 109.4,74.0 111.0,74.0 112.6,74.0 114.2,74.0 115.8,74.0 117.5,69.2 119.1,69.2 120.7,72.3 122.3,71.4 123.9,67.5 125.5,74.0 127.2,70.5 128.8,74.0 130.4,74.0 132.0,74.0 133.6,73.1 135.2,71.8 136.8,74.0 138.5,74.0 140.1,74.0 141.7,74.0 143.3,74.0 144.9,74.0 146.5,6.0 148.2,25.6 149.8,70.5 151.4,62.7 153.0,74.0 154.6,64.0 156.2,57.0 157.8,73.6 159.5,74.0 161.1,74.0 162.7,74.0 164.3,66.6 165.9,70.9 167.5,70.5 169.2,73.1 170.8,71.8 172.4,73.6 174.0,74.0 175.6,74.0 177.2,73.1 178.8,74.0 180.5,74.0 182.1,74.0 183.7,74.0 185.3,74.0 186.9,74.0 188.5,74.0 190.2,74.0 191.8,74.0 193.4,74.0 195.0,74.0 196.6,74.0 198.2,74.0 199.8,74.0 201.5,74.0 203.1,73.6 204.7,74.0 206.3,74.0 207.9,74.0 209.5,74.0 211.2,74.0 212.8,74.0 214.4,74.0 216.0,72.7 217.6,74.0 219.2,74.0 220.8,73.6 222.5,74.0 224.1,74.0 225.7,74.0 227.3,74.0 228.9,74.0 230.5,74.0 232.2,74.0 233.8,74.0 235.4,74.0 237.0,74.0 238.6,74.0 240.2,70.5 241.8,70.9 243.5,74.0 245.1,73.1 246.7,73.6 248.3,73.6 249.9,69.2 251.5,69.2 253.2,74.0 254.8,74.0 256.4,74.0 258.0,73.1 259.6,57.9 261.2,73.1 262.8,73.1 264.5,73.6 266.1,68.3 267.7,72.7 269.3,74.0 270.9,73.6 272.5,74.0 274.2,74.0 275.8,74.0 277.4,74.0 279.0,74.0 280.6,70.1 282.2,73.6 283.8,74.0 285.5,74.0 287.1,74.0 288.7,74.0 290.3,74.0 291.9,74.0 293.5,70.1 295.2,73.6 296.8,74.0 298.4,74.0 300.0,74.0 301.6,74.0 303.2,74.0 304.8,74.0 306.5,74.0 308.1,74.0 309.7,74.0 311.3,73.6 312.9,74.0 314.5,74.0 316.2,73.1 317.8,73.6 319.4,74.0 321.0,74.0 322.6,74.0 324.2,74.0 325.8,74.0 327.5,74.0 329.1,74.0 330.7,74.0 332.3,73.1 333.9,73.6 335.5,74.0 337.2,74.0 338.8,74.0 340.4,74.0 342.0,74.0 343.6,74.0 345.2,74.0 346.8,74.0 348.5,74.0 350.1,74.0 351.7,74.0 353.3,74.0 354.9,74.0 356.5,74.0 358.2,74.0 359.8,74.0 361.4,74.0 363.0,74.0 364.6,74.0 366.2,74.0 367.8,74.0 369.5,74.0 371.1,74.0 372.7,74.0 374.3,74.0 375.9,74.0 377.5,74.0 379.2,74.0 380.8,73.6 382.4,68.8 384.0,73.1 385.6,74.0 387.2,74.0 388.8,74.0 390.5,72.7 392.1,74.0 393.7,73.6 395.3,74.0 396.9,73.1 398.5,74.0 400.2,74.0 401.8,74.0 403.4,74.0 405.0,74.0 406.6,74.0 408.2,73.6 409.8,74.0 411.5,74.0 413.1,74.0 414.7,74.0 416.3,74.0 417.9,74.0 419.5,74.0 421.2,74.0 422.8,73.6 424.4,73.6 426.0,74.0 427.6,73.6 429.2,74.0 430.8,74.0 432.5,71.4 434.1,74.0 435.7,74.0 437.3,74.0 438.9,74.0 440.5,74.0 442.2,74.0 443.8,74.0 445.4,74.0 447.0,73.6 448.6,72.7 450.2,73.6 451.8,68.3 453.5,73.6 455.1,64.4 456.7,66.6 458.3,66.6 459.9,74.0 461.5,70.9 463.2,74.0 464.8,74.0 466.4,74.0 468.0,74.0 469.6,74.0 471.2,73.1 472.8,73.6 474.5,74.0 476.1,71.8 477.7,74.0 479.3,74.0 480.9,72.3 482.5,74.0 484.2,73.6 485.8,74.0 487.4,74.0 489.0,74.0 490.6,74.0 492.2,74.0 493.8,74.0 495.5,73.6 497.1,73.6 498.7,74.0 500.3,74.0 501.9,74.0 503.5,74.0 505.2,73.1 506.8,74.0 508.4,74.0 510.0,74.0 511.6,68.8 513.2,74.0 514.8,74.0 516.5,72.3 518.1,74.0 519.7,73.1 521.3,73.1 522.9,74.0 524.5,74.0 526.2,74.0 527.8,74.0 529.4,72.7 531.0,73.6 532.6,74.0 534.2,74.0 535.8,74.0 537.5,74.0 539.1,74.0 540.7,74.0 542.3,74.0 543.9,74.0 545.5,74.0 547.2,74.0 548.8,74.0 550.4,74.0 552.0,74.0 553.6,74.0 555.2,74.0 556.8,74.0 558.5,74.0 560.1,74.0 561.7,74.0 563.3,74.0 564.9,74.0 566.5,74.0 568.2,74.0 569.8,74.0 571.4,74.0 573.0,72.3 574.6,73.6 576.2,74.0 577.8,74.0 579.5,74.0 581.1,74.0 582.7,71.8 584.3,72.3 585.9,74.0 587.5,73.6 589.2,74.0 590.8,74.0 592.4,74.0 594.0,74.0"/>
  <polygon points="6.0,74.0 7.6,74.0 9.2,74.0 10.8,74.0 12.5,74.0 14.1,74.0 15.7,74.0 17.3,74.0 18.9,74.0 20.5,74.0 22.2,74.0 23.8,74.0 25.4,74.0 27.0,74.0 28.6,74.0 30.2,74.0 31.8,74.0 33.5,74.0 35.1,74.0 36.7,74.0 38.3,74.0 39.9,74.0 41.5,74.0 43.2,74.0 44.8,74.0 46.4,74.0 48.0,73.6 49.6,73.1 51.2,74.0 52.8,74.0 54.5,74.0 56.1,74.0 57.7,74.0 59.3,74.0 60.9,73.1 62.5,73.1 64.2,74.0 65.8,74.0 67.4,67.9 69.0,50.5 70.6,63.5 72.2,73.1 73.8,70.9 75.5,69.6 77.1,74.0 78.7,74.0 80.3,73.1 81.9,74.0 83.5,70.5 85.2,73.6 86.8,74.0 88.4,74.0 90.0,74.0 91.6,70.5 93.2,71.8 94.8,46.1 96.5,39.1 98.1,71.4 99.7,48.7 101.3,51.8 102.9,64.4 104.5,57.4 106.2,71.4 107.8,72.3 109.4,74.0 111.0,74.0 112.6,74.0 114.2,74.0 115.8,74.0 117.5,69.2 119.1,69.2 120.7,72.3 122.3,71.4 123.9,67.5 125.5,74.0 127.2,70.5 128.8,74.0 130.4,74.0 132.0,74.0 133.6,73.1 135.2,71.8 136.8,74.0 138.5,74.0 140.1,74.0 141.7,74.0 143.3,74.0 144.9,74.0 146.5,6.0 148.2,25.6 149.8,70.5 151.4,62.7 153.0,74.0 154.6,64.0 156.2,57.0 157.8,73.6 159.5,74.0 161.1,74.0 162.7,74.0 164.3,66.6 165.9,70.9 167.5,70.5 169.2,73.1 170.8,71.8 172.4,73.6 174.0,74.0 175.6,74.0 177.2,73.1 178.8,74.0 180.5,74.0 182.1,74.0 183.7,74.0 185.3,74.0 186.9,74.0 188.5,74.0 190.2,74.0 191.8,74.0 193.4,74.0 195.0,74.0 196.6,74.0 198.2,74.0 199.8,74.0 201.5,74.0 203.1,73.6 204.7,74.0 206.3,74.0 207.9,74.0 209.5,74.0 211.2,74.0 212.8,74.0 214.4,74.0 216.0,72.7 217.6,74.0 219.2,74.0 220.8,73.6 222.5,74.0 224.1,74.0 225.7,74.0 227.3,74.0 228.9,74.0 230.5,74.0 232.2,74.0 233.8,74.0 235.4,74.0 237.0,74.0 238.6,74.0 240.2,70.5 241.8,70.9 243.5,74.0 245.1,73.1 246.7,73.6 248.3,73.6 249.9,69.2 251.5,69.2 253.2,74.0 254.8,74.0 256.4,74.0 258.0,73.1 259.6,57.9 261.2,73.1 262.8,73.1 264.5,73.6 266.1,68.3 267.7,72.7 269.3,74.0 270.9,73.6 272.5,74.0 274.2,74.0 275.8,74.0 277.4,74.0 279.0,74.0 280.6,70.1 282.2,73.6 283.8,74.0 285.5,74.0 287.1,74.0 288.7,74.0 290.3,74.0 291.9,74.0 293.5,70.1 295.2,73.6 296.8,74.0 298.4,74.0 300.0,74.0 301.6,74.0 303.2,74.0 304.8,74.0 306.5,74.0 308.1,74.0 309.7,74.0 311.3,73.6 312.9,74.0 314.5,74.0 316.2,73.1 317.8,73.6 319.4,74.0 321.0,74.0 322.6,74.0 324.2,74.0 325.8,74.0 327.5,74.0 329.1,74.0 330.7,74.0 332.3,73.1 333.9,73.6 335.5,74.0 337.2,74.0 338.8,74.0 340.4,74.0 342.0,74.0 343.6,74.0 345.2,74.0 346.8,74.0 348.5,74.0 350.1,74.0 351.7,74.0 353.3,74.0 354.9,74.0 356.5,74.0 358.2,74.0 359.8,74.0 361.4,74.0 363.0,74.0 364.6,74.0 366.2,74.0 367.8,74.0 369.5,74.0 371.1,74.0 372.7,74.0 374.3,74.0 375.9,74.0 377.5,74.0 379.2,74.0 380.8,73.6 382.4,68.8 384.0,73.1 385.6,74.0 387.2,74.0 388.8,74.0 390.5,72.7 392.1,74.0 393.7,73.6 395.3,74.0 396.9,73.1 398.5,74.0 400.2,74.0 401.8,74.0 403.4,74.0 405.0,74.0 406.6,74.0 408.2,73.6 409.8,74.0 411.5,74.0 413.1,74.0 414.7,74.0 416.3,74.0 417.9,74.0 419.5,74.0 421.2,74.0 422.8,73.6 424.4,73.6 426.0,74.0 427.6,73.6 429.2,74.0 430.8,74.0 432.5,71.4 434.1,74.0 435.7,74.0 437.3,74.0 438.9,74.0 440.5,74.0 442.2,74.0 443.8,74.0 445.4,74.0 447.0,73.6 448.6,72.7 450.2,73.6 451.8,68.3 453.5,73.6 455.1,64.4 456.7,66.6 458.3,66.6 459.9,74.0 461.5,70.9 463.2,74.0 464.8,74.0 466.4,74.0 468.0,74.0 469.6,74.0 471.2,73.1 472.8,73.6 474.5,74.0 476.1,71.8 477.7,74.0 479.3,74.0 480.9,72.3 482.5,74.0 484.2,73.6 485.8,74.0 487.4,74.0 489.0,74.0 490.6,74.0 492.2,74.0 493.8,74.0 495.5,73.6 497.1,73.6 498.7,74.0 500.3,74.0 501.9,74.0 503.5,74.0 505.2,73.1 506.8,74.0 508.4,74.0 510.0,74.0 511.6,68.8 513.2,74.0 514.8,74.0 516.5,72.3 518.1,74.0 519.7,73.1 521.3,73.1 522.9,74.0 524.5,74.0 526.2,74.0 527.8,74.0 529.4,72.7 531.0,73.6 532.6,74.0 534.2,74.0 535.8,74.0 537.5,74.0 539.1,74.0 540.7,74.0 542.3,74.0 543.9,74.0 545.5,74.0 547.2,74.0 548.8,74.0 550.4,74.0 552.0,74.0 553.6,74.0 555.2,74.0 556.8,74.0 558.5,74.0 560.1,74.0 561.7,74.0 563.3,74.0 564.9,74.0 566.5,74.0 568.2,74.0 569.8,74.0 571.4,74.0 573.0,72.3 574.6,73.6 576.2,74.0 577.8,74.0 579.5,74.0 581.1,74.0 582.7,71.8 584.3,72.3 585.9,74.0 587.5,73.6 589.2,74.0 590.8,74.0 592.4,74.0 594.0,74.0 594.0,74 6.0,74" fill="url(#g)"/>
  <text x="594" y="76" font-size="10" text-anchor="end" fill="#888">through 2026-07-10 (UTC)</text>
</svg>