<svg xmlns="http://www.w3.org/2000/svg" width="600" height="80" viewBox="0 0 600 80">
  <defs>
    <linearGradient id="g" x1="0" x2="0" y1="0" y2="1">
      <stop offset="0%" stop-color="#4ea1ff" stop-opacity="0.6"/>
      <stop offset="100%" stop-color="#4ea1ff" stop-opacity="0.05"/>
    </linearGradient>
  </defs>
  <rect width="100%" height="100%" fill="transparent"/>
  <polyline fill="none" stroke="#4ea1ff" stroke-width="2" points="6.0,74.0 7.6,74.0 9.2,74.0 10.8,74.0 12.5,74.0 14.1,74.0 15.7,74.0 17.3,74.0 18.9,74.0 20.5,74.0 22.2,74.0 23.8,74.0 25.4,74.0 27.0,74.0 28.6,74.0 30.2,74.0 31.8,74.0 33.5,74.0 35.1,74.0 36.7,74.0 38.3,74.0 39.9,74.0 41.5,74.0 43.2,74.0 44.8,74.0 46.4,74.0 48.0,74.0 49.6,74.0 51.2,74.0 52.8,74.0 54.5,74.0 56.1,74.0 57.7,74.0 59.3,74.0 60.9,74.0 62.5,74.0 64.2,73.6 65.8,73.1 67.4,74.0 69.0,74.0 70.6,74.0 72.2,74.0 73.8,74.0 75.5,74.0 77.1,73.1 78.7,73.1 80.3,74.0 81.9,74.0 83.5,67.9 85.2,50.5 86.8,63.5 88.4,73.1 90.0,70.9 91.6,69.6 93.2,74.0 94.8,74.0 96.5,73.1 98.1,74.0 99.7,70.5 101.3,73.6 102.9,74.0 104.5,74.0 106.2,74.0 107.8,70.5 109.4,71.8 111.0,46.1 112.6,39.1 114.2,71.4 115.8,48.7 117.5,51.8 119.1,64.4 120.7,57.4 122.3,71.4 123.9,72.3 125.5,74.0 127.2,74.0 128.8,74.0 130.4,74.0 132.0,74.0 133.6,69.2 135.2,69.2 136.8,72.3 138.5,71.4 140.1,67.5 141.7,74.0 143.3,70.5 144.9,74.0 146.5,74.0 148.2,74.0 149.8,73.1 151.4,71.8 153.0,74.0 154.6,74.0 156.2,74.0 157.8,74.0 159.5,74.0 161.1,74.0 162.7,6.0 164.3,25.6 165.9,70.5 167.5,62.7 169.2,74.0 170.8,64.0 172.4,57.0 174.0,73.6 175.6,74.0 177.2,74.0 178.8,74.0 180.5,66.6 182.1,70.9 183.7,70.5 185.3,73.1 186.9,71.8 188.5,73.6 190.2,74.0 191.8,74.0 193.4,73.1 195.0,74.0 196.6,74.0 198.2,74.0 199.8,74.0 201.5,74.0 203.1,74.0 204.7,74.0 206.3,74.0 207.9,74.0 209.5,74.0 211.2,74.0 212.8,74.0 214.4,74.0 216.0,74.0 217.6,74.0 219.2,73.6 220.8,74.0 222.5,74.0 224.1,74.0 225.7,74.0 227.3,74.0 228.9,74.0 230.5,74.0 232.2,72.7 233.8,74.0 235.4,74.0 237.0,73.6 238.6,74.0 240.2,74.0 241.8,74.0 243.5,74.0 245.1,74.0 246.7,74.0 248.3,74.0 249.9,74.0 251.5,74.0 253.2,74.0 254.8,74.0 256.4,70.5 258.0,70.9 259.6,74.0 261.2,73.1 262.8,73.6 264.5,73.6 266.1,69.2 267.7,69.2 269.3,74.0 270.9,74.0 272.5,74.0 274.2,73.1 275.8,57.9 277.4,73.1 279.0,73.1 280.6,73.6 282.2,68.3 283.8,72.7 285.5,74.0 287.1,73.6 288.7,74.0 290.3,74.0 291.9,74.0 293.5,74.0 295.2,74.0 296.8,70.1 298.4,73.6 300.0,74.0 301.6,74.0 303.2,74.0 304.8,74.0 306.5,74.0 308.1,74.0 309.7,70.1 311.3,73.6 312.9,74.0 314.5,74.0 316.2,74.0 317.8,74.0 319.4,74.0 321.0,74.0 322.6,74.0 324.2,74.0 325.8,74.0 327.5,73.6 329.1,74.0 330.7,74.0 332.3,73.1 333.9,73.6 335.5,74.0 337.2,74.0 338.8,74.0 340.4,74.0 342.0,74.0 343.6,74.0 345.2,74.0 346.8,74.0 348.5,73.1 350.1,73.6 351.7,74.0 353.3,74.0 354.9,74.0 356.5,74.0 358.2,74.0 359.8,74.0 361.4,74.0 363.0,74.0 364.6,74.0 366.2,74.0 367.8,74.0 369.5,74.0 371.1,74.0 372.7,74.0 374.3,74.0 375.9,74.0 377.5,74.0 379.2,74.0 380.8,74.0 382.4,74.0 384.0,74.0 385.6,74.0 387.2,74.0 388.8,74.0 390.5,74.0 392.1,74.0 393.7,74.0 395.3,74.0 396.9,73.6 398.5,68.8 400.2,73.1 401.8,74.0 403.4,74.0 405.0,74.0 406.6,72.7 408.2,74.0 409.8,73.6 411.5,74.0 413.1,73.1 414.7,74.0 416.3,74.0 417.9,74.0 419.5,74.0 421.2,74.0 422.8,74.0 424.4,73.6 426.0,74.0 427.6,74.0 429.2,74.0 430.8,74.0 432.5,74.0 434.1,74.0 435.7,74.0 437.3,74.0 438.9,73.6 440.5,73.6 442.2,74.0 443.8,73.6 445.4,74.0 447.0,74.0 448.6,71.4 450.2,74.0 451.8,74.0 453.5,74.0 455.1,74.0 456.7,74.0 458.3,74.0 459.9,74.0 461.5,74.0 463.2,73.6 464.8,72.7 466.4,73.6 468.0,68.3 469.6,73.6 471.2,64.4 472.8,66.6 474.5,66.6 476.1,74.0 477.7,70.9 479.3,74.0 480.9,74.0 482.5,74.0 484.2,74.0 485.8,74.0 487.4,73.1 489.0,73.6 490.6,74.0 492.2,71.8 493.8,74.0 495.5,74.0 497.1,72.3 498.7,74.0 500.3,73.6 501.9,74.0 503.5,74.0 505.2,74.0 506.8,74.0 508.4,74.0 510.0,74.0 511.6,73.6 513.2,73.6 514.8,74.0 516.5,74.0 518.1,74.0 519.7,74.0 521.3,73.1 522.9,74.0 524.5,74.0 526.2,74.0 527.8,68.8 529.4,74.0 531.0,74.0 532.6,72.3 534.2,74.0 535.8,73.1 537.5,73.1 539.1,74.0 540.7,74.0 542.3,74.0 543.9,74.0 545.5,72.7 547.2,73.6 548.8,74.0 550.4,74.0 552.0,74.0 553.6,74.0 555.2,74.0 556.8,74.0 558.5,74.0 560.1,74.0 561.7,74.0 563.3,74.0 564.9,74.0 566.5,74.0 568.2,74.0 569.8,74.0 571.4,74.0 573.0,74.0 574.6,74.0 576.2,74.0 577.8,74.0 579.5,74.0 581.1,74.0 582.7,74.0 584.3,74.0 585.9,74.0 587.5,74.0 589.2,72.3 590.8,73.6 592.4,74.0 594.0,74.0"/>
  <polygon points="6.0,74.0 7.6,74.0 9.2,74.0 10.8,74.0 12.5,74.0 14.1,74.0 15.7,74.0 17.3,74.0 18.9,74.0 20.5,74.0 22.2,74.0 23.8,74.0 25.4,74.0 27.0,74.0 28.6,74.0 30.2,74.0 31.8,74.0 33.5,74.0 35.1,74.0 36.7,74.0 38.3,74.0 39.9,74.0 41.5,74.0 43.2,74.0 44.8,74.0 46.4,74.0 48.0,74.0 49.6,74.0 51.2,74.0 52.8,74.0 54.5,74.0 56.1,74.0 57.7,74.0 59.3,74.0 60.9,74.0 62.5,74.0 64.2,73.6 65.8,73.1 67.4,74.0 69.0,74.0 70.6,74.0 72.2,74.0 73.8,74.0 75.5,74.0 77.1,73.1 78.7,73.1 80.3,74.0 81.9,74.0 83.5,67.9 85.2,50.5 86.8,63.5 88.4,73.1 90.0,70.9 91.6,69.6 93.2,74.0 94.8,74.0 96.5,73.1 98.1,74.0 99.7,70.5 101.3,73.6 102.9,74.0 104.5,74.0 106.2,74.0 107.8,70.5 109.4,71.8 111.0,46.1 112.6,39.1 114.2,71.4 115.8,48.7 117.5,51.8 119.1,64.4 120.7,57.4 122.3,71.4 123.9,72.3 125.5,74.0 127.2,74.0 128.8,74.0 130.4,74.0 132.0,74.0 133.6,69.2 135.2,69.2 136.8,72.3 138.5,71.4 140.1,67.5 141.7,74.0 143.3,70.5 144.9,74.0 146.5,74.0 148.2,74.0 149.8,73.1 151.4,71.8 153.0,74.0 154.6,74.0 156.2,74.0 157.8,74.0 159.5,74.0 161.1,74.0 162.7,6.0 164.3,25.6 165.9,70.5 167.5,62.7 169.2,74.0 170.8,64.0 172.4,57.0 174.0,73.6 175.6,74.0 177.2,74.0 178.8,74.0 180.5,66.6 182.1,70.9 183.7,70.5 185.3,73.1 186.9,71.8 188.5,73.6 190.2,74.0 191.8,74.0 193.4,73.1 195.0,74.0 196.6,74.0 198.2,74.0 199.8,74.0 201.5,74.0 203.1,74.0 204.7,74.0 206.3,74.0 207.9,74.0 209.5,74.0 211.2,74.0 212.8,74.0 214.4,74.0 216.0,74.0 217.6,74.0 219.2,73.6 220.8,74.0 222.5,74.0 224.1,74.0 225.7,74.0 227.3,74.0 228.9,74.0 230.5,74.0 232.2,72.7 233.8,74.0 235.4,74.0 237.0,73.6 238.6,74.0 240.2,74.0 241.8,74.0 243.5,74.0 245.1,74.0 246.7,74.0 248.3,74.0 249.9,74.0 251.5,74.0 253.2,74.0 254.8,74.0 256.4,70.5 258.0,70.9 259.6,74.0 261.2,73.1 262.8,73.6 264.5,73.6 266.1,69.2 267.7,69.2 269.3,74.0 270.9,74.0 272.5,74.0 274.2,73.1 275.8,57.9 277.4,73.1 279.0,73.1 280.6,73.6 282.2,68.3 283.8,72.7 285.5,74.0 287.1,73.6 288.7,74.0 290.3,74.0 291.9,74.0 293.5,74.0 295.2,74.0 296.8,70.1 298.4,73.6 300.0,74.0 301.6,74.0 303.2,74.0 304.8,74.0 306.5,74.0 308.1,74.0 309.7,70.1 311.3,73.6 312.9,74.0 314.5,74.0 316.2,74.0 317.8,74.0 319.4,74.0 321.0,74.0 322.6,74.0 324.2,74.0 325.8,74.0 327.5,73.6 329.1,74.0 330.7,74.0 332.3,73.1 333.9,73.6 335.5,74.0 337.2,74.0 338.8,74.0 340.4,74.0 342.0,74.0 343.6,74.0 345.2,74.0 346.8,74.0 348.5,73.1 350.1,73.6 351.7,74.0 353.3,74.0 354.9,74.0 356.5,74.0 358.2,74.0 359.8,74.0 361.4,74.0 363.0,74.0 364.6,74.0 366.2,74.0 367.8,74.0 369.5,74.0 371.1,74.0 372.7,74.0 374.3,74.0 375.9,74.0 377.5,74.0 379.2,74.0 380.8,74.0 382.4,74.0 384.0,74.0 385.6,74.0 387.2,74.0 388.8,74.0 390.5,74.0 392.1,74.0 393.7,74.0 395.3,74.0 396.9,73.6 398.5,68.8 400.2,73.1 401.8,74.0 403.4,74.0 405.0,74.0 406.6,72.7 408.2,74.0 409.8,73.6 411.5,74.0 413.1,73.1 414.7,74.0 416.3,74.0 417.9,74.0 419.5,74.0 421.2,74.0 422.8,74.0 424.4,73.6 426.0,74.0 427.6,74.0 429.2,74.0 430.8,74.0 432.5,74.0 434.1,74.0 435.7,74.0 437.3,74.0 438.9,73.6 440.5,73.6 442.2,74.0 443.8,73.6 445.4,74.0 447.0,74.0 448.6,71.4 450.2,74.0 451.8,74.0 453.5,74.0 455.1,74.0 456.7,74.0 458.3,74.0 459.9,74.0 461.5,74.0 463.2,73.6 464.8,72.7 466.4,73.6 468.0,68.3 469.6,73.6 471.2,64.4 472.8,66.6 474.5,66.6 476.1,74.0 477.7,70.9 479.3,74.0 480.9,74.0 482.5,74.0 484.2,74.0 485.8,74.0 487.4,73.1 489.0,73.6 490.6,74.0 492.2,71.8 493.8,74.0 495.5,74.0 497.1,72.3 498.7,74.0 500.3,73.6 501.9,74.0 503.5,74.0 505.2,74.0 506.8,74.0 508.4,74.0 510.0,74.0 511.6,73.6 513.2,73.6 514.8,74.0 516.5,74.0 518.1,74.0 519.7,74.0 521.3,73.1 522.9,74.0 524.5,74.0 526.2,74.0 527.8,68.8 529.4,74.0 531.0,74.0 532.6,72.3 534.2,74.0 535.8,73.1 537.5,73.1 539.1,74.0 540.7,74.0 542.3,74.0 543.9,74.0 545.5,72.7 547.2,73.6 548.8,74.0 550.4,74.0 552.0,74.0 553.6,74.0 555.2,74.0 556.8,74.0 558.5,74.0 560.1,74.0 561.7,74.0 563.3,74.0 564.9,74.0 566.5,74.0 568.2,74.0 569.8,74.0 571.4,74.0 573.0,74.0 574.6,74.0 576.2,74.0 577.8,74.0 579.5,74.0 581.1,74.0 582.7,74.0 584.3,74.0 585.9,74.0 587.5,74.0 589.2,72.3 590.8,73.6 592.4,74.0 594.0,74.0 594.0,74 6.0,74" fill="url(#g)"/>
  <text x="594" y="76" font-size="10" text-anchor="end" fill="#888">through 2026-06-30 (UTC)</text>
</svg>