<svg xmlns="http://www.w3.org/2000/svg" width="600" height="80" viewBox="0 0 600 80">
  <defs>
    <linearGradient id="g" x1="0" x2="0" y1="0" y2="1">
      <stop offset="0%" stop-color="#4ea1ff" stop-opacity="0.6"/>
      <stop offset="100%" stop-color="#4ea1ff" stop-opacity="0.05"/>
    </linearGradient>
  </defs>
  <rect width="100%" height="100%" fill="transparent"/>
  <polyline fill="none" stroke="#4ea1ff" stroke-width="2" points="6.0,74.0 7.6,74.0 9.2,74.0 10.8,74.0 12.5,74.0 14.1,74.0 15.7,74.0 17.3,74.0 18.9,74.0 20.5,74.0 22.2,74.0 23.8,74.0 25.4,74.0 27.0,74.0 28.6,74.0 30.2,74.0 31.8,74.0 33.5,74.0 35.1,74.0 36.7,74.0 38.3,74.0 39.9,74.0 41.5,74.0 43.2,74.0 44.8,74.0 46.4,74.0 48.0,74.0 49.6,74.0 51.2,74.0 52.8,74.0 54.5,74.0 56.1,74.0 57.7,74.0 59.3,74.0 60.9,74.0 62.5,74.0 64.2,74.0 65.8,74.0 67.4,74.0 69.0,74.0 70.6,74.0 72.2,73.6 73.8,73.1 75.5,74.0 77.1,74.0 78.7,74.0 80.3,74.0 81.9,74.0 83.5,74.0 85.2,73.1 86.8,73.1 88.4,74.0 90.0,74.0 91.6,67.9 93.2,50.5 94.8,63.5 96.5,73.1 98.1,70.9 99.7,69.6 101.3,74.0 102.9,74.0 104.5,73.1 106.2,74.0 107.8,70.5 109.4,73.6 111.0,74.0 112.6,74.0 114.2,74.0 115.8,70.5 117.5,71.8 119.1,46.1 120.7,39.1 122.3,71.4 123.9,48.7 125.5,51.8 127.2,64.4 128.8,57.4 130.4,71.4 132.0,72.3 133.6,74.0 135.2,74.0 136.8,74.0 138.5,74.0 140.1,74.0 141.7,69.2 143.3,69.2 144.9,72.3 146.5,71.4 148.2,67.5 149.8,74.0 151.4,70.5 153.0,74.0 154.6,74.0 156.2,74.0 157.8,73.1 159.5,71.8 161.1,74.0 162.7,74.0 164.3,74.0 165.9,74.0 167.5,74.0 169.2,74.0 170.8,6.0 172.4,25.6 174.0,70.5 175.6,62.7 177.2,74.0 178.8,64.0 180.5,57.0 182.1,73.6 183.7,74.0 185.3,74.0 186.9,74.0 188.5,66.6 190.2,70.9 191.8,70.5 193.4,73.1 195.0,71.8 196.6,73.6 198.2,74.0 199.8,74.0 201.5,73.1 203.1,74.0 204.7,74.0 206.3,74.0 207.9,74.0 209.5,74.0 211.2,74.0 212.8,74.0 214.4,74.0 216.0,74.0 217.6,74.0 219.2,74.0 220.8,74.0 222.5,74.0 224.1,74.0 225.7,74.0 227.3,73.6 228.9,74.0 230.5,74.0 232.2,74.0 233.8,74.0 235.4,74.0 237.0,74.0 238.6,74.0 240.2,72.7 241.8,74.0 243.5,74.0 245.1,73.6 246.7,74.0 248.3,74.0 249.9,74.0 251.5,74.0 253.2,74.0 254.8,74.0 256.4,74.0 258.0,74.0 259.6,74.0 261.2,74.0 262.8,74.0 264.5,70.5 266.1,70.9 267.7,74.0 269.3,73.1 270.9,73.6 272.5,73.6 274.2,69.2 275.8,69.2 277.4,74.0 279.0,74.0 280.6,74.0 282.2,73.1 283.8,57.9 285.5,73.1 287.1,73.1 288.7,73.6 290.3,68.3 291.9,72.7 293.5,74.0 295.2,73.6 296.8,74.0 298.4,74.0 300.0,74.0 301.6,74.0 303.2,74.0 304.8,70.1 306.5,73.6 308.1,74.0 309.7,74.0 311.3,74.0 312.9,74.0 314.5,74.0 316.2,74.0 317.8,70.1 319.4,73.6 321.0,74.0 322.6,74.0 324.2,74.0 325.8,74.0 327.5,74.0 329.1,74.0 330.7,74.0 332.3,74.0 333.9,74.0 335.5,73.6 337.2,74.0 338.8,74.0 340.4,73.1 342.0,73.6 343.6,74.0 345.2,74.0 346.8,74.0 348.5,74.0 350.1,74.0 351.7,74.0 353.3,74.0 354.9,74.0 356.5,73.1 358.2,73.6 359.8,74.0 361.4,74.0 363.0,74.0 364.6,74.0 366.2,74.0 367.8,74.0 369.5,74.0 371.1,74.0 372.7,74.0 374.3,74.0 375.9,74.0 377.5,74.0 379.2,74.0 380.8,74.0 382.4,74.0 384.0,74.0 385.6,74.0 387.2,74.0 388.8,74.0 390.5,74.0 392.1,74.0 393.7,74.0 395.3,74.0 396.9,74.0 398.5,74.0 400.2,74.0 401.8,74.0 403.4,74.0 405.0,73.6 406.6,68.8 408.2,73.1 409.8,74.0 411.5,74.0 413.1,74.0 414.7,72.7 416.3,74.0 417.9,73.6 419.5,74.0 421.2,73.1 422.8,74.0 424.4,74.0 426.0,74.0 427.6,74.0 429.2,74.0 430.8,74.0 432.5,73.6 434.1,74.0 435.7,74.0 437.3,74.0 438.9,74.0 440.5,74.0 442.2,74.0 443.8,74.0 445.4,74.0 447.0,73.6 448.6,73.6 450.2,74.0 451.8,73.6 453.5,74.0 455.1,74.0 456.7,71.4 458.3,74.0 459.9,74.0 461.5,74.0 463.2,74.0 464.8,74.0 466.4,74.0 468.0,74.0 469.6,74.0 471.2,73.6 472.8,72.7 474.5,73.6 476.1,68.3 477.7,73.6 479.3,64.4 480.9,66.6 482.5,66.6 484.2,74.0 485.8,70.9 487.4,74.0 489.0,74.0 490.6,74.0 492.2,74.0 493.8,74.0 495.5,73.1 497.1,73.6 498.7,74.0 500.3,71.8 501.9,74.0 503.5,74.0 505.2,72.3 506.8,74.0 508.4,73.6 510.0,74.0 511.6,74.0 513.2,74.0 514.8,74.0 516.5,74.0 518.1,74.0 519.7,73.6 521.3,73.6 522.9,74.0 524.5,74.0 526.2,74.0 527.8,74.0 529.4,73.1 531.0,74.0 532.6,74.0 534.2,74.0 535.8,68.8 537.5,74.0 539.1,74.0 540.7,72.3 542.3,74.0 543.9,73.1 545.5,73.1 547.2,74.0 548.8,74.0 550.4,74.0 552.0,74.0 553.6,72.7 555.2,73.6 556.8,74.0 558.5,74.0 560.1,74.0 561.7,74.0 563.3,74.0 564.9,74.0 566.5,74.0 568.2,74.0 569.8,74.0 571.4,74.0 573.0,74.0 574.6,74.0 576.2,74.0 577.8,74.0 579.5,74.0 581.1,74.0 582.7,74.0 584.3,74.0 585.9,74.0 587.5,74.0 589.2,74.0 590.8,74.0 592.4,74.0 594.0,74.0"/>
  <polygon points="6.0,74.0 7.6,74.0 9.2,74.0 10.8,74.0 12.5,74.0 14.1,74.0 15.7,74.0 17.3,74.0 18.9,74.0 20.5,74.0 22.2,74.0 23.8,74.0 25.4,74.0 27.0,74.0 28.6,74.0 30.2,74.0 31.8,74.0 33.5,74.0 35.1,74.0 36.7,74.0 38.3,74.0 39.9,74.0 41.5,74.0 43.2,74.0 44.8,74.0 46.4,74.0 48.0,74.0 49.6,74.0 51.2,74.0 52.8,74.0 54.5,74.0 56.1,74.0 57.7,74.0 59.3,74.0 60.9,74.0 62.5,74.0 64.2,74.0 65.8,74.0 67.4,74.0 69.0,74.0 70.6,74.0 72.2,73.6 73.8,73.1 75.5,74.0 77.1,74.0 78.7,74.0 80.3,74.0 81.9,74.0 83.5,74.0 85.2,73.1 86.8,73.1 88.4,74.0 90.0,74.0 91.6,67.9 93.2,50.5 94.8,63.5 96.5,73.1 98.1,70.9 99.7,69.6 101.3,74.0 102.9,74.0 104.5,73.1 106.2,74.0 107.8,70.5 109.4,73.6 111.0,74.0 112.6,74.0 114.2,74.0 115.8,70.5 117.5,71.8 119.1,46.1 120.7,39.1 122.3,71.4 123.9,48.7 125.5,51.8 127.2,64.4 128.8,57.4 130.4,71.4 132.0,72.3 133.6,74.0 135.2,74.0 136.8,74.0 138.5,74.0 140.1,74.0 141.7,69.2 143.3,69.2 144.9,72.3 146.5,71.4 148.2,67.5 149.8,74.0 151.4,70.5 153.0,74.0 154.6,74.0 156.2,74.0 157.8,73.1 159.5,71.8 161.1,74.0 162.7,74.0 164.3,74.0 165.9,74.0 167.5,74.0 169.2,74.0 170.8,6.0 172.4,25.6 174.0,70.5 175.6,62.7 177.2,74.0 178.8,64.0 180.5,57.0 182.1,73.6 183.7,74.0 185.3,74.0 186.9,74.0 188.5,66.6 190.2,70.9 191.8,70.5 193.4,73.1 195.0,71.8 196.6,73.6 198.2,74.0 199.8,74.0 201.5,73.1 203.1,74.0 204.7,74.0 206.3,74.0 207.9,74.0 209.5,74.0 211.2,74.0 212.8,74.0 214.4,74.0 216.0,74.0 217.6,74.0 219.2,74.0 220.8,74.0 222.5,74.0 224.1,74.0 225.7,74.0 227.3,73.6 228.9,74.0 230.5,74.0 232.2,74.0 233.8,74.0 235.4,74.0 237.0,74.0 238.6,74.0 240.2,72.7 241.8,74.0 243.5,74.0 245.1,73.6 246.7,74.0 248.3,74.0 249.9,74.0 251.5,74.0 253.2,74.0 254.8,74.0 256.4,74.0 258.0,74.0 259.6,74.0 261.2,74.0 262.8,74.0 264.5,70.5 266.1,70.9 267.7,74.0 269.3,73.1 270.9,73.6 272.5,73.6 274.2,69.2 275.8,69.2 277.4,74.0 279.0,74.0 280.6,74.0 282.2,73.1 283.8,57.9 285.5,73.1 287.1,73.1 288.7,73.6 290.3,68.3 291.9,72.7 293.5,74.0 295.2,73.6 296.8,74.0 298.4,74.0 300.0,74.0 301.6,74.0 303.2,74.0 304.8,70.1 306.5,73.6 308.1,74.0 309.7,74.0 311.3,74.0 312.9,74.0 314.5,74.0 316.2,74.0 317.8,70.1 319.4,73.6 321.0,74.0 322.6,74.0 324.2,74.0 325.8,74.0 327.5,74.0 329.1,74.0 330.7,74.0 332.3,74.0 333.9,74.0 335.5,73.6 337.2,74.0 338.8,74.0 340.4,73.1 342.0,73.6 343.6,74.0 345.2,74.0 346.8,74.0 348.5,74.0 350.1,74.0 351.7,74.0 353.3,74.0 354.9,74.0 356.5,73.1 358.2,73.6 359.8,74.0 361.4,74.0 363.0,74.0 364.6,74.0 366.2,74.0 367.8,74.0 369.5,74.0 371.1,74.0 372.7,74.0 374.3,74.0 375.9,74.0 377.5,74.0 379.2,74.0 380.8,74.0 382.4,74.0 384.0,74.0 385.6,74.0 387.2,74.0 388.8,74.0 390.5,74.0 392.1,74.0 393.7,74.0 395.3,74.0 396.9,74.0 398.5,74.0 400.2,74.0 401.8,74.0 403.4,74.0 405.0,73.6 406.6,68.8 408.2,73.1 409.8,74.0 411.5,74.0 413.1,74.0 414.7,72.7 416.3,74.0 417.9,73.6 419.5,74.0 421.2,73.1 422.8,74.0 424.4,74.0 426.0,74.0 427.6,74.0 429.2,74.0 430.8,74.0 432.5,73.6 434.1,74.0 435.7,74.0 437.3,74.0 438.9,74.0 440.5,74.0 442.2,74.0 443.8,74.0 445.4,74.0 447.0,73.6 448.6,73.6 450.2,74.0 451.8,73.6 453.5,74.0 455.1,74.0 456.7,71.4 458.3,74.0 459.9,74.0 461.5,74.0 463.2,74.0 464.8,74.0 466.4,74.0 468.0,74.0 469.6,74.0 471.2,73.6 472.8,72.7 474.5,73.6 476.1,68.3 477.7,73.6 479.3,64.4 480.9,66.6 482.5,66.6 484.2,74.0 485.8,70.9 487.4,74.0 489.0,74.0 490.6,74.0 492.2,74.0 493.8,74.0 495.5,73.1 497.1,73.6 498.7,74.0 500.3,71.8 501.9,74.0 503.5,74.0 505.2,72.3 506.8,74.0 508.4,73.6 510.0,74.0 511.6,74.0 513.2,74.0 514.8,74.0 516.5,74.0 518.1,74.0 519.7,73.6 521.3,73.6 522.9,74.0 524.5,74.0 526.2,74.0 527.8,74.0 529.4,73.1 531.0,74.0 532.6,74.0 534.2,74.0 535.8,68.8 537.5,74.0 539.1,74.0 540.7,72.3 542.3,74.0 543.9,73.1 545.5,73.1 547.2,74.0 548.8,74.0 550.4,74.0 552.0,74.0 553.6,72.7 555.2,73.6 556.8,74.0 558.5,74.0 560.1,74.0 561.7,74.0 563.3,74.0 564.9,74.0 566.5,74.0 568.2,74.0 569.8,74.0 571.4,74.0 573.0,74.0 574.6,74.0 576.2,74.0 577.8,74.0 579.5,74.0 581.1,74.0 582.7,74.0 584.3,74.0 585.9,74.0 587.5,74.0 589.2,74.0 590.8,74.0 592.4,74.0 594.0,74.0 594.0,74 6.0,74" fill="url(#g)"/>
  <text x="594" y="76" font-size="10" text-anchor="end" fill="#888">through 2026-06-25 (UTC)</text>
</svg>