<svg xmlns="http://www.w3.org/2000/svg" width="600" height="80" viewBox="0 0 600 80">
  <defs>
    <linearGradient id="g" x1="0" x2="0" y1="0" y2="1">
      <stop offset="0%" stop-color="#4ea1ff" stop-opacity="0.6"/>
      <stop offset="100%" stop-color="#4ea1ff" stop-opacity="0.05"/>
    </linearGradient>
  </defs>
  <rect width="100%" height="100%" fill="transparent"/>
  <polyline fill="none" stroke="#4ea1ff" stroke-width="2" points="6.0,74.0 7.6,74.0 9.2,74.0 10.8,74.0 12.5,74.0 14.1,74.0 15.7,74.0 17.3,74.0 18.9,74.0 20.5,74.0 22.2,74.0 23.8,74.0 25.4,74.0 27.0,74.0 28.6,74.0 30.2,74.0 31.8,74.0 33.5,74.0 35.1,74.0 36.7,74.0 38.3,74.0 39.9,74.0 41.5,74.0 43.2,74.0 44.8,74.0 46.4,74.0 48.0,74.0 49.6,74.0 51.2,74.0 52.8,73.6 54.5,73.1 56.1,74.0 57.7,74.0 59.3,74.0 60.9,74.0 62.5,74.0 64.2,74.0 65.8,73.1 67.4,73.1 69.0,74.0 70.6,74.0 72.2,67.9 73.8,50.5 75.5,63.5 77.1,73.1 78.7,70.9 80.3,69.6 81.9,74.0 83.5,74.0 85.2,73.1 86.8,74.0 88.4,70.5 90.0,73.6 91.6,74.0 93.2,74.0 94.8,74.0 96.5,70.5 98.1,71.8 99.7,46.1 101.3,39.1 102.9,71.4 104.5,48.7 106.2,51.8 107.8,64.4 109.4,57.4 111.0,71.4 112.6,72.3 114.2,74.0 115.8,74.0 117.5,74.0 119.1,74.0 120.7,74.0 122.3,69.2 123.9,69.2 125.5,72.3 127.2,71.4 128.8,67.5 130.4,74.0 132.0,70.5 133.6,74.0 135.2,74.0 136.8,74.0 138.5,73.1 140.1,71.8 141.7,74.0 143.3,74.0 144.9,74.0 146.5,74.0 148.2,74.0 149.8,74.0 151.4,6.0 153.0,25.6 154.6,70.5 156.2,62.7 157.8,74.0 159.5,64.0 161.1,57.0 162.7,73.6 164.3,74.0 165.9,74.0 167.5,74.0 169.2,66.6 170.8,70.9 172.4,70.5 174.0,73.1 175.6,71.8 177.2,73.6 178.8,74.0 180.5,74.0 182.1,73.1 183.7,74.0 185.3,74.0 186.9,74.0 188.5,74.0 190.2,74.0 191.8,74.0 193.4,74.0 195.0,74.0 196.6,74.0 198.2,74.0 199.8,74.0 201.5,74.0 203.1,74.0 204.7,74.0 206.3,74.0 207.9,73.6 209.5,74.0 211.2,74.0 212.8,74.0 214.4,74.0 216.0,74.0 217.6,74.0 219.2,74.0 220.8,72.7 222.5,74.0 224.1,74.0 225.7,73.6 227.3,74.0 228.9,74.0 230.5,74.0 232.2,74.0 233.8,74.0 235.4,74.0 237.0,74.0 238.6,74.0 240.2,74.0 241.8,74.0 243.5,74.0 245.1,70.5 246.7,70.9 248.3,74.0 249.9,73.1 251.5,73.6 253.2,73.6 254.8,69.2 256.4,69.2 258.0,74.0 259.6,74.0 261.2,74.0 262.8,73.1 264.5,57.9 266.1,73.1 267.7,73.1 269.3,73.6 270.9,68.3 272.5,72.7 274.2,74.0 275.8,73.6 277.4,74.0 279.0,74.0 280.6,74.0 282.2,74.0 283.8,74.0 285.5,70.1 287.1,73.6 288.7,74.0 290.3,74.0 291.9,74.0 293.5,74.0 295.2,74.0 296.8,74.0 298.4,70.1 300.0,73.6 301.6,74.0 303.2,74.0 304.8,74.0 306.5,74.0 308.1,74.0 309.7,74.0 311.3,74.0 312.9,74.0 314.5,74.0 316.2,73.6 317.8,74.0 319.4,74.0 321.0,73.1 322.6,73.6 324.2,74.0 325.8,74.0 327.5,74.0 329.1,74.0 330.7,74.0 332.3,74.0 333.9,74.0 335.5,74.0 337.2,73.1 338.8,73.6 340.4,74.0 342.0,74.0 343.6,74.0 345.2,74.0 346.8,74.0 348.5,74.0 350.1,74.0 351.7,74.0 353.3,74.0 354.9,74.0 356.5,74.0 358.2,74.0 359.8,74.0 361.4,74.0 363.0,74.0 364.6,74.0 366.2,74.0 367.8,74.0 369.5,74.0 371.1,74.0 372.7,74.0 374.3,74.0 375.9,74.0 377.5,74.0 379.2,74.0 380.8,74.0 382.4,74.0 384.0,74.0 385.6,73.6 387.2,68.8 388.8,73.1 390.5,74.0 392.1,74.0 393.7,74.0 395.3,72.7 396.9,74.0 398.5,73.6 400.2,74.0 401.8,73.1 403.4,74.0 405.0,74.0 406.6,74.0 408.2,74.0 409.8,74.0 411.5,74.0 413.1,73.6 414.7,74.0 416.3,74.0 417.9,74.0 419.5,74.0 421.2,74.0 422.8,74.0 424.4,74.0 426.0,74.0 427.6,73.6 429.2,73.6 430.8,74.0 432.5,73.6 434.1,74.0 435.7,74.0 437.3,71.4 438.9,74.0 440.5,74.0 442.2,74.0 443.8,74.0 445.4,74.0 447.0,74.0 448.6,74.0 450.2,74.0 451.8,73.6 453.5,72.7 455.1,73.6 456.7,68.3 458.3,73.6 459.9,64.4 461.5,66.6 463.2,66.6 464.8,74.0 466.4,70.9 468.0,74.0 469.6,74.0 471.2,74.0 472.8,74.0 474.5,74.0 476.1,73.1 477.7,73.6 479.3,74.0 480.9,71.8 482.5,74.0 484.2,74.0 485.8,72.3 487.4,74.0 489.0,73.6 490.6,74.0 492.2,74.0 493.8,74.0 495.5,74.0 497.1,74.0 498.7,74.0 500.3,73.6 501.9,73.6 503.5,74.0 505.2,74.0 506.8,74.0 508.4,74.0 510.0,73.1 511.6,74.0 513.2,74.0 514.8,74.0 516.5,68.8 518.1,74.0 519.7,74.0 521.3,72.3 522.9,74.0 524.5,73.1 526.2,73.1 527.8,74.0 529.4,74.0 531.0,74.0 532.6,74.0 534.2,72.7 535.8,73.6 537.5,74.0 539.1,74.0 540.7,74.0 542.3,74.0 543.9,74.0 545.5,74.0 547.2,74.0 548.8,74.0 550.4,74.0 552.0,74.0 553.6,74.0 555.2,74.0 556.8,74.0 558.5,74.0 560.1,74.0 561.7,74.0 563.3,74.0 564.9,74.0 566.5,74.0 568.2,74.0 569.8,74.0 571.4,74.0 573.0,74.0 574.6,74.0 576.2,74.0 577.8,72.3 579.5,73.6 581.1,74.0 582.7,74.0 584.3,74.0 585.9,74.0 587.5,71.8 589.2,72.3 590.8,74.0 592.4,73.6 594.0,74.0"/>
  <polygon points="6.0,74.0 7.6,74.0 9.2,74.0 10.8,74.0 12.5,74.0 14.1,74.0 15.7,74.0 17.3,74.0 18.9,74.0 20.5,74.0 22.2,74.0 23.8,74.0 25.4,74.0 27.0,74.0 28.6,74.0 30.2,74.0 31.8,74.0 33.5,74.0 35.1,74.0 36.7,74.0 38.3,74.0 39.9,74.0 41.5,74.0 43.2,74.0 44.8,74.0 46.4,74.0 48.0,74.0 49.6,74.0 51.2,74.0 52.8,73.6 54.5,73.1 56.1,74.0 57.7,74.0 59.3,74.0 60.9,74.0 62.5,74.0 64.2,74.0 65.8,73.1 67.4,73.1 69.0,74.0 70.6,74.0 72.2,67.9 73.8,50.5 75.5,63.5 77.1,73.1 78.7,70.9 80.3,69.6 81.9,74.0 83.5,74.0 85.2,73.1 86.8,74.0 88.4,70.5 90.0,73.6 91.6,74.0 93.2,74.0 94.8,74.0 96.5,70.5 98.1,71.8 99.7,46.1 101.3,39.1 102.9,71.4 104.5,48.7 106.2,51.8 107.8,64.4 109.4,57.4 111.0,71.4 112.6,72.3 114.2,74.0 115.8,74.0 117.5,74.0 119.1,74.0 120.7,74.0 122.3,69.2 123.9,69.2 125.5,72.3 127.2,71.4 128.8,67.5 130.4,74.0 132.0,70.5 133.6,74.0 135.2,74.0 136.8,74.0 138.5,73.1 140.1,71.8 141.7,74.0 143.3,74.0 144.9,74.0 146.5,74.0 148.2,74.0 149.8,74.0 151.4,6.0 153.0,25.6 154.6,70.5 156.2,62.7 157.8,74.0 159.5,64.0 161.1,57.0 162.7,73.6 164.3,74.0 165.9,74.0 167.5,74.0 169.2,66.6 170.8,70.9 172.4,70.5 174.0,73.1 175.6,71.8 177.2,73.6 178.8,74.0 180.5,74.0 182.1,73.1 183.7,74.0 185.3,74.0 186.9,74.0 188.5,74.0 190.2,74.0 191.8,74.0 193.4,74.0 195.0,74.0 196.6,74.0 198.2,74.0 199.8,74.0 201.5,74.0 203.1,74.0 204.7,74.0 206.3,74.0 207.9,73.6 209.5,74.0 211.2,74.0 212.8,74.0 214.4,74.0 216.0,74.0 217.6,74.0 219.2,74.0 220.8,72.7 222.5,74.0 224.1,74.0 225.7,73.6 227.3,74.0 228.9,74.0 230.5,74.0 232.2,74.0 233.8,74.0 235.4,74.0 237.0,74.0 238.6,74.0 240.2,74.0 241.8,74.0 243.5,74.0 245.1,70.5 246.7,70.9 248.3,74.0 249.9,73.1 251.5,73.6 253.2,73.6 254.8,69.2 256.4,69.2 258.0,74.0 259.6,74.0 261.2,74.0 262.8,73.1 264.5,57.9 266.1,73.1 267.7,73.1 269.3,73.6 270.9,68.3 272.5,72.7 274.2,74.0 275.8,73.6 277.4,74.0 279.0,74.0 280.6,74.0 282.2,74.0 283.8,74.0 285.5,70.1 287.1,73.6 288.7,74.0 290.3,74.0 291.9,74.0 293.5,74.0 295.2,74.0 296.8,74.0 298.4,70.1 300.0,73.6 301.6,74.0 303.2,74.0 304.8,74.0 306.5,74.0 308.1,74.0 309.7,74.0 311.3,74.0 312.9,74.0 314.5,74.0 316.2,73.6 317.8,74.0 319.4,74.0 321.0,73.1 322.6,73.6 324.2,74.0 325.8,74.0 327.5,74.0 329.1,74.0 330.7,74.0 332.3,74.0 333.9,74.0 335.5,74.0 337.2,73.1 338.8,73.6 340.4,74.0 342.0,74.0 343.6,74.0 345.2,74.0 346.8,74.0 348.5,74.0 350.1,74.0 351.7,74.0 353.3,74.0 354.9,74.0 356.5,74.0 358.2,74.0 359.8,74.0 361.4,74.0 363.0,74.0 364.6,74.0 366.2,74.0 367.8,74.0 369.5,74.0 371.1,74.0 372.7,74.0 374.3,74.0 375.9,74.0 377.5,74.0 379.2,74.0 380.8,74.0 382.4,74.0 384.0,74.0 385.6,73.6 387.2,68.8 388.8,73.1 390.5,74.0 392.1,74.0 393.7,74.0 395.3,72.7 396.9,74.0 398.5,73.6 400.2,74.0 401.8,73.1 403.4,74.0 405.0,74.0 406.6,74.0 408.2,74.0 409.8,74.0 411.5,74.0 413.1,73.6 414.7,74.0 416.3,74.0 417.9,74.0 419.5,74.0 421.2,74.0 422.8,74.0 424.4,74.0 426.0,74.0 427.6,73.6 429.2,73.6 430.8,74.0 432.5,73.6 434.1,74.0 435.7,74.0 437.3,71.4 438.9,74.0 440.5,74.0 442.2,74.0 443.8,74.0 445.4,74.0 447.0,74.0 448.6,74.0 450.2,74.0 451.8,73.6 453.5,72.7 455.1,73.6 456.7,68.3 458.3,73.6 459.9,64.4 461.5,66.6 463.2,66.6 464.8,74.0 466.4,70.9 468.0,74.0 469.6,74.0 471.2,74.0 472.8,74.0 474.5,74.0 476.1,73.1 477.7,73.6 479.3,74.0 480.9,71.8 482.5,74.0 484.2,74.0 485.8,72.3 487.4,74.0 489.0,73.6 490.6,74.0 492.2,74.0 493.8,74.0 495.5,74.0 497.1,74.0 498.7,74.0 500.3,73.6 501.9,73.6 503.5,74.0 505.2,74.0 506.8,74.0 508.4,74.0 510.0,73.1 511.6,74.0 513.2,74.0 514.8,74.0 516.5,68.8 518.1,74.0 519.7,74.0 521.3,72.3 522.9,74.0 524.5,73.1 526.2,73.1 527.8,74.0 529.4,74.0 531.0,74.0 532.6,74.0 534.2,72.7 535.8,73.6 537.5,74.0 539.1,74.0 540.7,74.0 542.3,74.0 543.9,74.0 545.5,74.0 547.2,74.0 548.8,74.0 550.4,74.0 552.0,74.0 553.6,74.0 555.2,74.0 556.8,74.0 558.5,74.0 560.1,74.0 561.7,74.0 563.3,74.0 564.9,74.0 566.5,74.0 568.2,74.0 569.8,74.0 571.4,74.0 573.0,74.0 574.6,74.0 576.2,74.0 577.8,72.3 579.5,73.6 581.1,74.0 582.7,74.0 584.3,74.0 585.9,74.0 587.5,71.8 589.2,72.3 590.8,74.0 592.4,73.6 594.0,74.0 594.0,74 6.0,74" fill="url(#g)"/>
  <text x="594" y="76" font-size="10" text-anchor="end" fill="#888">through 2026-07-07 (UTC)</text>
</svg>