<svg xmlns="http://www.w3.org/2000/svg" width="600" height="80" viewBox="0 0 600 80">
  <defs>
    <linearGradient id="g" x1="0" x2="0" y1="0" y2="1">
      <stop offset="0%" stop-color="#4ea1ff" stop-opacity="0.6"/>
      <stop offset="100%" stop-color="#4ea1ff" stop-opacity="0.05"/>
    </linearGradient>
  </defs>
  <rect width="100%" height="100%" fill="transparent"/>
  <polyline fill="none" stroke="#4ea1ff" stroke-width="2" points="6.0,74.0 7.6,74.0 9.2,74.0 10.8,74.0 12.5,74.0 14.1,74.0 15.7,74.0 17.3,74.0 18.9,74.0 20.5,74.0 22.2,74.0 23.8,74.0 25.4,74.0 27.0,74.0 28.6,74.0 30.2,74.0 31.8,74.0 33.5,74.0 35.1,74.0 36.7,74.0 38.3,74.0 39.9,73.6 41.5,73.1 43.2,74.0 44.8,74.0 46.4,74.0 48.0,74.0 49.6,74.0 51.2,74.0 52.8,73.1 54.5,73.1 56.1,74.0 57.7,74.0 59.3,67.9 60.9,50.5 62.5,63.5 64.2,73.1 65.8,70.9 67.4,69.6 69.0,74.0 70.6,74.0 72.2,73.1 73.8,74.0 75.5,70.5 77.1,73.6 78.7,74.0 80.3,74.0 81.9,74.0 83.5,70.5 85.2,71.8 86.8,46.1 88.4,39.1 90.0,71.4 91.6,48.7 93.2,51.8 94.8,64.4 96.5,57.4 98.1,71.4 99.7,72.3 101.3,74.0 102.9,74.0 104.5,74.0 106.2,74.0 107.8,74.0 109.4,69.2 111.0,69.2 112.6,72.3 114.2,71.4 115.8,67.5 117.5,74.0 119.1,70.5 120.7,74.0 122.3,74.0 123.9,74.0 125.5,73.1 127.2,71.8 128.8,74.0 130.4,74.0 132.0,74.0 133.6,74.0 135.2,74.0 136.8,74.0 138.5,6.0 140.1,25.6 141.7,70.5 143.3,62.7 144.9,74.0 146.5,64.0 148.2,57.0 149.8,73.6 151.4,74.0 153.0,74.0 154.6,74.0 156.2,66.6 157.8,70.9 159.5,70.5 161.1,73.1 162.7,71.8 164.3,73.6 165.9,74.0 167.5,74.0 169.2,73.1 170.8,74.0 172.4,74.0 174.0,74.0 175.6,74.0 177.2,74.0 178.8,74.0 180.5,74.0 182.1,74.0 183.7,74.0 185.3,74.0 186.9,74.0 188.5,74.0 190.2,74.0 191.8,74.0 193.4,74.0 195.0,73.6 196.6,74.0 198.2,74.0 199.8,74.0 201.5,74.0 203.1,74.0 204.7,74.0 206.3,74.0 207.9,72.7 209.5,74.0 211.2,74.0 212.8,73.6 214.4,74.0 216.0,74.0 217.6,74.0 219.2,74.0 220.8,74.0 222.5,74.0 224.1,74.0 225.7,74.0 227.3,74.0 228.9,74.0 230.5,74.0 232.2,70.5 233.8,70.9 235.4,74.0 237.0,73.1 238.6,73.6 240.2,73.6 241.8,69.2 243.5,69.2 245.1,74.0 246.7,74.0 248.3,74.0 249.9,73.1 251.5,57.9 253.2,73.1 254.8,73.1 256.4,73.6 258.0,68.3 259.6,72.7 261.2,74.0 262.8,73.6 264.5,74.0 266.1,74.0 267.7,74.0 269.3,74.0 270.9,74.0 272.5,70.1 274.2,73.6 275.8,74.0 277.4,74.0 279.0,74.0 280.6,74.0 282.2,74.0 283.8,74.0 285.5,70.1 287.1,73.6 288.7,74.0 290.3,74.0 291.9,74.0 293.5,74.0 295.2,74.0 296.8,74.0 298.4,74.0 300.0,74.0 301.6,74.0 303.2,73.6 304.8,74.0 306.5,74.0 308.1,73.1 309.7,73.6 311.3,74.0 312.9,74.0 314.5,74.0 316.2,74.0 317.8,74.0 319.4,74.0 321.0,74.0 322.6,74.0 324.2,73.1 325.8,73.6 327.5,74.0 329.1,74.0 330.7,74.0 332.3,74.0 333.9,74.0 335.5,74.0 337.2,74.0 338.8,74.0 340.4,74.0 342.0,74.0 343.6,74.0 345.2,74.0 346.8,74.0 348.5,74.0 350.1,74.0 351.7,74.0 353.3,74.0 354.9,74.0 356.5,74.0 358.2,74.0 359.8,74.0 361.4,74.0 363.0,74.0 364.6,74.0 366.2,74.0 367.8,74.0 369.5,74.0 371.1,74.0 372.7,73.6 374.3,68.8 375.9,73.1 377.5,74.0 379.2,74.0 380.8,74.0 382.4,72.7 384.0,74.0 385.6,73.6 387.2,74.0 388.8,73.1 390.5,74.0 392.1,74.0 393.7,74.0 395.3,74.0 396.9,74.0 398.5,74.0 400.2,73.6 401.8,74.0 403.4,74.0 405.0,74.0 406.6,74.0 408.2,74.0 409.8,74.0 411.5,74.0 413.1,74.0 414.7,73.6 416.3,73.6 417.9,74.0 419.5,73.6 421.2,74.0 422.8,74.0 424.4,71.4 426.0,74.0 427.6,74.0 429.2,74.0 430.8,74.0 432.5,74.0 434.1,74.0 435.7,74.0 437.3,74.0 438.9,73.6 440.5,72.7 442.2,73.6 443.8,68.3 445.4,73.6 447.0,64.4 448.6,66.6 450.2,66.6 451.8,74.0 453.5,70.9 455.1,74.0 456.7,74.0 458.3,74.0 459.9,74.0 461.5,74.0 463.2,73.1 464.8,73.6 466.4,74.0 468.0,71.8 469.6,74.0 471.2,74.0 472.8,72.3 474.5,74.0 476.1,73.6 477.7,74.0 479.3,74.0 480.9,74.0 482.5,74.0 484.2,74.0 485.8,74.0 487.4,73.6 489.0,73.6 490.6,74.0 492.2,74.0 493.8,74.0 495.5,74.0 497.1,73.1 498.7,74.0 500.3,74.0 501.9,74.0 503.5,68.8 505.2,74.0 506.8,74.0 508.4,72.3 510.0,74.0 511.6,73.1 513.2,73.1 514.8,74.0 516.5,74.0 518.1,74.0 519.7,74.0 521.3,72.7 522.9,73.6 524.5,74.0 526.2,74.0 527.8,74.0 529.4,74.0 531.0,74.0 532.6,74.0 534.2,74.0 535.8,74.0 537.5,74.0 539.1,74.0 540.7,74.0 542.3,74.0 543.9,74.0 545.5,74.0 547.2,74.0 548.8,74.0 550.4,74.0 552.0,74.0 553.6,74.0 555.2,74.0 556.8,74.0 558.5,74.0 560.1,74.0 561.7,74.0 563.3,74.0 564.9,72.3 566.5,73.6 568.2,74.0 569.8,74.0 571.4,74.0 573.0,74.0 574.6,71.8 576.2,72.3 577.8,74.0 579.5,73.6 581.1,74.0 582.7,74.0 584.3,74.0 585.9,74.0 587.5,74.0 589.2,74.0 590.8,74.0 592.4,74.0 594.0,72.3"/>
  <polygon points="6.0,74.0 7.6,74.0 9.2,74.0 10.8,74.0 12.5,74.0 14.1,74.0 15.7,74.0 17.3,74.0 18.9,74.0 20.5,74.0 22.2,74.0 23.8,74.0 25.4,74.0 27.0,74.0 28.6,74.0 30.2,74.0 31.8,74.0 33.5,74.0 35.1,74.0 36.7,74.0 38.3,74.0 39.9,73.6 41.5,73.1 43.2,74.0 44.8,74.0 46.4,74.0 48.0,74.0 49.6,74.0 51.2,74.0 52.8,73.1 54.5,73.1 56.1,74.0 57.7,74.0 59.3,67.9 60.9,50.5 62.5,63.5 64.2,73.1 65.8,70.9 67.4,69.6 69.0,74.0 70.6,74.0 72.2,73.1 73.8,74.0 75.5,70.5 77.1,73.6 78.7,74.0 80.3,74.0 81.9,74.0 83.5,70.5 85.2,71.8 86.8,46.1 88.4,39.1 90.0,71.4 91.6,48.7 93.2,51.8 94.8,64.4 96.5,57.4 98.1,71.4 99.7,72.3 101.3,74.0 102.9,74.0 104.5,74.0 106.2,74.0 107.8,74.0 109.4,69.2 111.0,69.2 112.6,72.3 114.2,71.4 115.8,67.5 117.5,74.0 119.1,70.5 120.7,74.0 122.3,74.0 123.9,74.0 125.5,73.1 127.2,71.8 128.8,74.0 130.4,74.0 132.0,74.0 133.6,74.0 135.2,74.0 136.8,74.0 138.5,6.0 140.1,25.6 141.7,70.5 143.3,62.7 144.9,74.0 146.5,64.0 148.2,57.0 149.8,73.6 151.4,74.0 153.0,74.0 154.6,74.0 156.2,66.6 157.8,70.9 159.5,70.5 161.1,73.1 162.7,71.8 164.3,73.6 165.9,74.0 167.5,74.0 169.2,73.1 170.8,74.0 172.4,74.0 174.0,74.0 175.6,74.0 177.2,74.0 178.8,74.0 180.5,74.0 182.1,74.0 183.7,74.0 185.3,74.0 186.9,74.0 188.5,74.0 190.2,74.0 191.8,74.0 193.4,74.0 195.0,73.6 196.6,74.0 198.2,74.0 199.8,74.0 201.5,74.0 203.1,74.0 204.7,74.0 206.3,74.0 207.9,72.7 209.5,74.0 211.2,74.0 212.8,73.6 214.4,74.0 216.0,74.0 217.6,74.0 219.2,74.0 220.8,74.0 222.5,74.0 224.1,74.0 225.7,74.0 227.3,74.0 228.9,74.0 230.5,74.0 232.2,70.5 233.8,70.9 235.4,74.0 237.0,73.1 238.6,73.6 240.2,73.6 241.8,69.2 243.5,69.2 245.1,74.0 246.7,74.0 248.3,74.0 249.9,73.1 251.5,57.9 253.2,73.1 254.8,73.1 256.4,73.6 258.0,68.3 259.6,72.7 261.2,74.0 262.8,73.6 264.5,74.0 266.1,74.0 267.7,74.0 269.3,74.0 270.9,74.0 272.5,70.1 274.2,73.6 275.8,74.0 277.4,74.0 279.0,74.0 280.6,74.0 282.2,74.0 283.8,74.0 285.5,70.1 287.1,73.6 288.7,74.0 290.3,74.0 291.9,74.0 293.5,74.0 295.2,74.0 296.8,74.0 298.4,74.0 300.0,74.0 301.6,74.0 303.2,73.6 304.8,74.0 306.5,74.0 308.1,73.1 309.7,73.6 311.3,74.0 312.9,74.0 314.5,74.0 316.2,74.0 317.8,74.0 319.4,74.0 321.0,74.0 322.6,74.0 324.2,73.1 325.8,73.6 327.5,74.0 329.1,74.0 330.7,74.0 332.3,74.0 333.9,74.0 335.5,74.0 337.2,74.0 338.8,74.0 340.4,74.0 342.0,74.0 343.6,74.0 345.2,74.0 346.8,74.0 348.5,74.0 350.1,74.0 351.7,74.0 353.3,74.0 354.9,74.0 356.5,74.0 358.2,74.0 359.8,74.0 361.4,74.0 363.0,74.0 364.6,74.0 366.2,74.0 367.8,74.0 369.5,74.0 371.1,74.0 372.7,73.6 374.3,68.8 375.9,73.1 377.5,74.0 379.2,74.0 380.8,74.0 382.4,72.7 384.0,74.0 385.6,73.6 387.2,74.0 388.8,73.1 390.5,74.0 392.1,74.0 393.7,74.0 395.3,74.0 396.9,74.0 398.5,74.0 400.2,73.6 401.8,74.0 403.4,74.0 405.0,74.0 406.6,74.0 408.2,74.0 409.8,74.0 411.5,74.0 413.1,74.0 414.7,73.6 416.3,73.6 417.9,74.0 419.5,73.6 421.2,74.0 422.8,74.0 424.4,71.4 426.0,74.0 427.6,74.0 429.2,74.0 430.8,74.0 432.5,74.0 434.1,74.0 435.7,74.0 437.3,74.0 438.9,73.6 440.5,72.7 442.2,73.6 443.8,68.3 445.4,73.6 447.0,64.4 448.6,66.6 450.2,66.6 451.8,74.0 453.5,70.9 455.1,74.0 456.7,74.0 458.3,74.0 459.9,74.0 461.5,74.0 463.2,73.1 464.8,73.6 466.4,74.0 468.0,71.8 469.6,74.0 471.2,74.0 472.8,72.3 474.5,74.0 476.1,73.6 477.7,74.0 479.3,74.0 480.9,74.0 482.5,74.0 484.2,74.0 485.8,74.0 487.4,73.6 489.0,73.6 490.6,74.0 492.2,74.0 493.8,74.0 495.5,74.0 497.1,73.1 498.7,74.0 500.3,74.0 501.9,74.0 503.5,68.8 505.2,74.0 506.8,74.0 508.4,72.3 510.0,74.0 511.6,73.1 513.2,73.1 514.8,74.0 516.5,74.0 518.1,74.0 519.7,74.0 521.3,72.7 522.9,73.6 524.5,74.0 526.2,74.0 527.8,74.0 529.4,74.0 531.0,74.0 532.6,74.0 534.2,74.0 535.8,74.0 537.5,74.0 539.1,74.0 540.7,74.0 542.3,74.0 543.9,74.0 545.5,74.0 547.2,74.0 548.8,74.0 550.4,74.0 552.0,74.0 553.6,74.0 555.2,74.0 556.8,74.0 558.5,74.0 560.1,74.0 561.7,74.0 563.3,74.0 564.9,72.3 566.5,73.6 568.2,74.0 569.8,74.0 571.4,74.0 573.0,74.0 574.6,71.8 576.2,72.3 577.8,74.0 579.5,73.6 581.1,74.0 582.7,74.0 584.3,74.0 585.9,74.0 587.5,74.0 589.2,74.0 590.8,74.0 592.4,74.0 594.0,72.3 594.0,74 6.0,74" fill="url(#g)"/>
  <text x="594" y="76" font-size="10" text-anchor="end" fill="#888">through 2026-07-15 (UTC)</text>
</svg>