<svg xmlns="http://www.w3.org/2000/svg" width="600" height="80" viewBox="0 0 600 80">
  <defs>
    <linearGradient id="g" x1="0" x2="0" y1="0" y2="1">
      <stop offset="0%" stop-color="#4ea1ff" stop-opacity="0.6"/>
      <stop offset="100%" stop-color="#4ea1ff" stop-opacity="0.05"/>
    </linearGradient>
  </defs>
  <rect width="100%" height="100%" fill="transparent"/>
  <polyline fill="none" stroke="#4ea1ff" stroke-width="2" points="6.0,74.0 7.6,74.0 9.2,74.0 10.8,74.0 12.5,74.0 14.1,74.0 15.7,74.0 17.3,74.0 18.9,74.0 20.5,74.0 22.2,74.0 23.8,74.0 25.4,74.0 27.0,74.0 28.6,74.0 30.2,74.0 31.8,74.0 33.5,73.6 35.1,73.1 36.7,74.0 38.3,74.0 39.9,74.0 41.5,74.0 43.2,74.0 44.8,74.0 46.4,73.1 48.0,73.1 49.6,74.0 51.2,74.0 52.8,67.9 54.5,50.5 56.1,63.5 57.7,73.1 59.3,70.9 60.9,69.6 62.5,74.0 64.2,74.0 65.8,73.1 67.4,74.0 69.0,70.5 70.6,73.6 72.2,74.0 73.8,74.0 75.5,74.0 77.1,70.5 78.7,71.8 80.3,46.1 81.9,39.1 83.5,71.4 85.2,48.7 86.8,51.8 88.4,64.4 90.0,57.4 91.6,71.4 93.2,72.3 94.8,74.0 96.5,74.0 98.1,74.0 99.7,74.0 101.3,74.0 102.9,69.2 104.5,69.2 106.2,72.3 107.8,71.4 109.4,67.5 111.0,74.0 112.6,70.5 114.2,74.0 115.8,74.0 117.5,74.0 119.1,73.1 120.7,71.8 122.3,74.0 123.9,74.0 125.5,74.0 127.2,74.0 128.8,74.0 130.4,74.0 132.0,6.0 133.6,25.6 135.2,70.5 136.8,62.7 138.5,74.0 140.1,64.0 141.7,57.0 143.3,73.6 144.9,74.0 146.5,74.0 148.2,74.0 149.8,66.6 151.4,70.9 153.0,70.5 154.6,73.1 156.2,71.8 157.8,73.6 159.5,74.0 161.1,74.0 162.7,73.1 164.3,74.0 165.9,74.0 167.5,74.0 169.2,74.0 170.8,74.0 172.4,74.0 174.0,74.0 175.6,74.0 177.2,74.0 178.8,74.0 180.5,74.0 182.1,74.0 183.7,74.0 185.3,74.0 186.9,74.0 188.5,73.6 190.2,74.0 191.8,74.0 193.4,74.0 195.0,74.0 196.6,74.0 198.2,74.0 199.8,74.0 201.5,72.7 203.1,74.0 204.7,74.0 206.3,73.6 207.9,74.0 209.5,74.0 211.2,74.0 212.8,74.0 214.4,74.0 216.0,74.0 217.6,74.0 219.2,74.0 220.8,74.0 222.5,74.0 224.1,74.0 225.7,70.5 227.3,70.9 228.9,74.0 230.5,73.1 232.2,73.6 233.8,73.6 235.4,69.2 237.0,69.2 238.6,74.0 240.2,74.0 241.8,74.0 243.5,73.1 245.1,57.9 246.7,73.1 248.3,73.1 249.9,73.6 251.5,68.3 253.2,72.7 254.8,74.0 256.4,73.6 258.0,74.0 259.6,74.0 261.2,74.0 262.8,74.0 264.5,74.0 266.1,70.1 267.7,73.6 269.3,74.0 270.9,74.0 272.5,74.0 274.2,74.0 275.8,74.0 277.4,74.0 279.0,70.1 280.6,73.6 282.2,74.0 283.8,74.0 285.5,74.0 287.1,74.0 288.7,74.0 290.3,74.0 291.9,74.0 293.5,74.0 295.2,74.0 296.8,73.6 298.4,74.0 300.0,74.0 301.6,73.1 303.2,73.6 304.8,74.0 306.5,74.0 308.1,74.0 309.7,74.0 311.3,74.0 312.9,74.0 314.5,74.0 316.2,74.0 317.8,73.1 319.4,73.6 321.0,74.0 322.6,74.0 324.2,74.0 325.8,74.0 327.5,74.0 329.1,74.0 330.7,74.0 332.3,74.0 333.9,74.0 335.5,74.0 337.2,74.0 338.8,74.0 340.4,74.0 342.0,74.0 343.6,74.0 345.2,74.0 346.8,74.0 348.5,74.0 350.1,74.0 351.7,74.0 353.3,74.0 354.9,74.0 356.5,74.0 358.2,74.0 359.8,74.0 361.4,74.0 363.0,74.0 364.6,74.0 366.2,73.6 367.8,68.8 369.5,73.1 371.1,74.0 372.7,74.0 374.3,74.0 375.9,72.7 377.5,74.0 379.2,73.6 380.8,74.0 382.4,73.1 384.0,74.0 385.6,74.0 387.2,74.0 388.8,74.0 390.5,74.0 392.1,74.0 393.7,73.6 395.3,74.0 396.9,74.0 398.5,74.0 400.2,74.0 401.8,74.0 403.4,74.0 405.0,74.0 406.6,74.0 408.2,73.6 409.8,73.6 411.5,74.0 413.1,73.6 414.7,74.0 416.3,74.0 417.9,71.4 419.5,74.0 421.2,74.0 422.8,74.0 424.4,74.0 426.0,74.0 427.6,74.0 429.2,74.0 430.8,74.0 432.5,73.6 434.1,72.7 435.7,73.6 437.3,68.3 438.9,73.6 440.5,64.4 442.2,66.6 443.8,66.6 445.4,74.0 447.0,70.9 448.6,74.0 450.2,74.0 451.8,74.0 453.5,74.0 455.1,74.0 456.7,73.1 458.3,73.6 459.9,74.0 461.5,71.8 463.2,74.0 464.8,74.0 466.4,72.3 468.0,74.0 469.6,73.6 471.2,74.0 472.8,74.0 474.5,74.0 476.1,74.0 477.7,74.0 479.3,74.0 480.9,73.6 482.5,73.6 484.2,74.0 485.8,74.0 487.4,74.0 489.0,74.0 490.6,73.1 492.2,74.0 493.8,74.0 495.5,74.0 497.1,68.8 498.7,74.0 500.3,74.0 501.9,72.3 503.5,74.0 505.2,73.1 506.8,73.1 508.4,74.0 510.0,74.0 511.6,74.0 513.2,74.0 514.8,72.7 516.5,73.6 518.1,74.0 519.7,74.0 521.3,74.0 522.9,74.0 524.5,74.0 526.2,74.0 527.8,74.0 529.4,74.0 531.0,74.0 532.6,74.0 534.2,74.0 535.8,74.0 537.5,74.0 539.1,74.0 540.7,74.0 542.3,74.0 543.9,74.0 545.5,74.0 547.2,74.0 548.8,74.0 550.4,74.0 552.0,74.0 553.6,74.0 555.2,74.0 556.8,74.0 558.5,72.3 560.1,73.6 561.7,74.0 563.3,74.0 564.9,74.0 566.5,74.0 568.2,71.8 569.8,72.3 571.4,74.0 573.0,73.6 574.6,74.0 576.2,74.0 577.8,74.0 579.5,74.0 581.1,74.0 582.7,74.0 584.3,74.0 585.9,74.0 587.5,72.3 589.2,74.0 590.8,74.0 592.4,74.0 594.0,74.0"/>
  <polygon points="6.0,74.0 7.6,74.0 9.2,74.0 10.8,74.0 12.5,74.0 14.1,74.0 15.7,74.0 17.3,74.0 18.9,74.0 20.5,74.0 22.2,74.0 23.8,74.0 25.4,74.0 27.0,74.0 28.6,74.0 30.2,74.0 31.8,74.0 33.5,73.6 35.1,73.1 36.7,74.0 38.3,74.0 39.9,74.0 41.5,74.0 43.2,74.0 44.8,74.0 46.4,73.1 48.0,73.1 49.6,74.0 51.2,74.0 52.8,67.9 54.5,50.5 56.1,63.5 57.7,73.1 59.3,70.9 60.9,69.6 62.5,74.0 64.2,74.0 65.8,73.1 67.4,74.0 69.0,70.5 70.6,73.6 72.2,74.0 73.8,74.0 75.5,74.0 77.1,70.5 78.7,71.8 80.3,46.1 81.9,39.1 83.5,71.4 85.2,48.7 86.8,51.8 88.4,64.4 90.0,57.4 91.6,71.4 93.2,72.3 94.8,74.0 96.5,74.0 98.1,74.0 99.7,74.0 101.3,74.0 102.9,69.2 104.5,69.2 106.2,72.3 107.8,71.4 109.4,67.5 111.0,74.0 112.6,70.5 114.2,74.0 115.8,74.0 117.5,74.0 119.1,73.1 120.7,71.8 122.3,74.0 123.9,74.0 125.5,74.0 127.2,74.0 128.8,74.0 130.4,74.0 132.0,6.0 133.6,25.6 135.2,70.5 136.8,62.7 138.5,74.0 140.1,64.0 141.7,57.0 143.3,73.6 144.9,74.0 146.5,74.0 148.2,74.0 149.8,66.6 151.4,70.9 153.0,70.5 154.6,73.1 156.2,71.8 157.8,73.6 159.5,74.0 161.1,74.0 162.7,73.1 164.3,74.0 165.9,74.0 167.5,74.0 169.2,74.0 170.8,74.0 172.4,74.0 174.0,74.0 175.6,74.0 177.2,74.0 178.8,74.0 180.5,74.0 182.1,74.0 183.7,74.0 185.3,74.0 186.9,74.0 188.5,73.6 190.2,74.0 191.8,74.0 193.4,74.0 195.0,74.0 196.6,74.0 198.2,74.0 199.8,74.0 201.5,72.7 203.1,74.0 204.7,74.0 206.3,73.6 207.9,74.0 209.5,74.0 211.2,74.0 212.8,74.0 214.4,74.0 216.0,74.0 217.6,74.0 219.2,74.0 220.8,74.0 222.5,74.0 224.1,74.0 225.7,70.5 227.3,70.9 228.9,74.0 230.5,73.1 232.2,73.6 233.8,73.6 235.4,69.2 237.0,69.2 238.6,74.0 240.2,74.0 241.8,74.0 243.5,73.1 245.1,57.9 246.7,73.1 248.3,73.1 249.9,73.6 251.5,68.3 253.2,72.7 254.8,74.0 256.4,73.6 258.0,74.0 259.6,74.0 261.2,74.0 262.8,74.0 264.5,74.0 266.1,70.1 267.7,73.6 269.3,74.0 270.9,74.0 272.5,74.0 274.2,74.0 275.8,74.0 277.4,74.0 279.0,70.1 280.6,73.6 282.2,74.0 283.8,74.0 285.5,74.0 287.1,74.0 288.7,74.0 290.3,74.0 291.9,74.0 293.5,74.0 295.2,74.0 296.8,73.6 298.4,74.0 300.0,74.0 301.6,73.1 303.2,73.6 304.8,74.0 306.5,74.0 308.1,74.0 309.7,74.0 311.3,74.0 312.9,74.0 314.5,74.0 316.2,74.0 317.8,73.1 319.4,73.6 321.0,74.0 322.6,74.0 324.2,74.0 325.8,74.0 327.5,74.0 329.1,74.0 330.7,74.0 332.3,74.0 333.9,74.0 335.5,74.0 337.2,74.0 338.8,74.0 340.4,74.0 342.0,74.0 343.6,74.0 345.2,74.0 346.8,74.0 348.5,74.0 350.1,74.0 351.7,74.0 353.3,74.0 354.9,74.0 356.5,74.0 358.2,74.0 359.8,74.0 361.4,74.0 363.0,74.0 364.6,74.0 366.2,73.6 367.8,68.8 369.5,73.1 371.1,74.0 372.7,74.0 374.3,74.0 375.9,72.7 377.5,74.0 379.2,73.6 380.8,74.0 382.4,73.1 384.0,74.0 385.6,74.0 387.2,74.0 388.8,74.0 390.5,74.0 392.1,74.0 393.7,73.6 395.3,74.0 396.9,74.0 398.5,74.0 400.2,74.0 401.8,74.0 403.4,74.0 405.0,74.0 406.6,74.0 408.2,73.6 409.8,73.6 411.5,74.0 413.1,73.6 414.7,74.0 416.3,74.0 417.9,71.4 419.5,74.0 421.2,74.0 422.8,74.0 424.4,74.0 426.0,74.0 427.6,74.0 429.2,74.0 430.8,74.0 432.5,73.6 434.1,72.7 435.7,73.6 437.3,68.3 438.9,73.6 440.5,64.4 442.2,66.6 443.8,66.6 445.4,74.0 447.0,70.9 448.6,74.0 450.2,74.0 451.8,74.0 453.5,74.0 455.1,74.0 456.7,73.1 458.3,73.6 459.9,74.0 461.5,71.8 463.2,74.0 464.8,74.0 466.4,72.3 468.0,74.0 469.6,73.6 471.2,74.0 472.8,74.0 474.5,74.0 476.1,74.0 477.7,74.0 479.3,74.0 480.9,73.6 482.5,73.6 484.2,74.0 485.8,74.0 487.4,74.0 489.0,74.0 490.6,73.1 492.2,74.0 493.8,74.0 495.5,74.0 497.1,68.8 498.7,74.0 500.3,74.0 501.9,72.3 503.5,74.0 505.2,73.1 506.8,73.1 508.4,74.0 510.0,74.0 511.6,74.0 513.2,74.0 514.8,72.7 516.5,73.6 518.1,74.0 519.7,74.0 521.3,74.0 522.9,74.0 524.5,74.0 526.2,74.0 527.8,74.0 529.4,74.0 531.0,74.0 532.6,74.0 534.2,74.0 535.8,74.0 537.5,74.0 539.1,74.0 540.7,74.0 542.3,74.0 543.9,74.0 545.5,74.0 547.2,74.0 548.8,74.0 550.4,74.0 552.0,74.0 553.6,74.0 555.2,74.0 556.8,74.0 558.5,72.3 560.1,73.6 561.7,74.0 563.3,74.0 564.9,74.0 566.5,74.0 568.2,71.8 569.8,72.3 571.4,74.0 573.0,73.6 574.6,74.0 576.2,74.0 577.8,74.0 579.5,74.0 581.1,74.0 582.7,74.0 584.3,74.0 585.9,74.0 587.5,72.3 589.2,74.0 590.8,74.0 592.4,74.0 594.0,74.0 594.0,74 6.0,74" fill="url(#g)"/>
  <text x="594" y="76" font-size="10" text-anchor="end" fill="#888">through 2026-07-19 (UTC)</text>
</svg>