<svg xmlns="http://www.w3.org/2000/svg" width="600" height="80" viewBox="0 0 600 80">
  <defs>
    <linearGradient id="g" x1="0" x2="0" y1="0" y2="1">
      <stop offset="0%" stop-color="#4ea1ff" stop-opacity="0.6"/>
      <stop offset="100%" stop-color="#4ea1ff" stop-opacity="0.05"/>
    </linearGradient>
  </defs>
  <rect width="100%" height="100%" fill="transparent"/>
  <polyline fill="none" stroke="#4ea1ff" stroke-width="2" points="6.0,74.0 7.6,74.0 9.2,74.0 10.8,74.0 12.5,74.0 14.1,74.0 15.7,74.0 17.3,74.0 18.9,74.0 20.5,74.0 22.2,74.0 23.8,74.0 25.4,74.0 27.0,74.0 28.6,74.0 30.2,74.0 31.8,74.0 33.5,74.0 35.1,74.0 36.7,74.0 38.3,74.0 39.9,74.0 41.5,74.0 43.2,74.0 44.8,74.0 46.4,74.0 48.0,74.0 49.6,73.6 51.2,73.1 52.8,74.0 54.5,74.0 56.1,74.0 57.7,74.0 59.3,74.0 60.9,74.0 62.5,73.1 64.2,73.1 65.8,74.0 67.4,74.0 69.0,67.9 70.6,50.5 72.2,63.5 73.8,73.1 75.5,70.9 77.1,69.6 78.7,74.0 80.3,74.0 81.9,73.1 83.5,74.0 85.2,70.5 86.8,73.6 88.4,74.0 90.0,74.0 91.6,74.0 93.2,70.5 94.8,71.8 96.5,46.1 98.1,39.1 99.7,71.4 101.3,48.7 102.9,51.8 104.5,64.4 106.2,57.4 107.8,71.4 109.4,72.3 111.0,74.0 112.6,74.0 114.2,74.0 115.8,74.0 117.5,74.0 119.1,69.2 120.7,69.2 122.3,72.3 123.9,71.4 125.5,67.5 127.2,74.0 128.8,70.5 130.4,74.0 132.0,74.0 133.6,74.0 135.2,73.1 136.8,71.8 138.5,74.0 140.1,74.0 141.7,74.0 143.3,74.0 144.9,74.0 146.5,74.0 148.2,6.0 149.8,25.6 151.4,70.5 153.0,62.7 154.6,74.0 156.2,64.0 157.8,57.0 159.5,73.6 161.1,74.0 162.7,74.0 164.3,74.0 165.9,66.6 167.5,70.9 169.2,70.5 170.8,73.1 172.4,71.8 174.0,73.6 175.6,74.0 177.2,74.0 178.8,73.1 180.5,74.0 182.1,74.0 183.7,74.0 185.3,74.0 186.9,74.0 188.5,74.0 190.2,74.0 191.8,74.0 193.4,74.0 195.0,74.0 196.6,74.0 198.2,74.0 199.8,74.0 201.5,74.0 203.1,74.0 204.7,73.6 206.3,74.0 207.9,74.0 209.5,74.0 211.2,74.0 212.8,74.0 214.4,74.0 216.0,74.0 217.6,72.7 219.2,74.0 220.8,74.0 222.5,73.6 224.1,74.0 225.7,74.0 227.3,74.0 228.9,74.0 230.5,74.0 232.2,74.0 233.8,74.0 235.4,74.0 237.0,74.0 238.6,74.0 240.2,74.0 241.8,70.5 243.5,70.9 245.1,74.0 246.7,73.1 248.3,73.6 249.9,73.6 251.5,69.2 253.2,69.2 254.8,74.0 256.4,74.0 258.0,74.0 259.6,73.1 261.2,57.9 262.8,73.1 264.5,73.1 266.1,73.6 267.7,68.3 269.3,72.7 270.9,74.0 272.5,73.6 274.2,74.0 275.8,74.0 277.4,74.0 279.0,74.0 280.6,74.0 282.2,70.1 283.8,73.6 285.5,74.0 287.1,74.0 288.7,74.0 290.3,74.0 291.9,74.0 293.5,74.0 295.2,70.1 296.8,73.6 298.4,74.0 300.0,74.0 301.6,74.0 303.2,74.0 304.8,74.0 306.5,74.0 308.1,74.0 309.7,74.0 311.3,74.0 312.9,73.6 314.5,74.0 316.2,74.0 317.8,73.1 319.4,73.6 321.0,74.0 322.6,74.0 324.2,74.0 325.8,74.0 327.5,74.0 329.1,74.0 330.7,74.0 332.3,74.0 333.9,73.1 335.5,73.6 337.2,74.0 338.8,74.0 340.4,74.0 342.0,74.0 343.6,74.0 345.2,74.0 346.8,74.0 348.5,74.0 350.1,74.0 351.7,74.0 353.3,74.0 354.9,74.0 356.5,74.0 358.2,74.0 359.8,74.0 361.4,74.0 363.0,74.0 364.6,74.0 366.2,74.0 367.8,74.0 369.5,74.0 371.1,74.0 372.7,74.0 374.3,74.0 375.9,74.0 377.5,74.0 379.2,74.0 380.8,74.0 382.4,73.6 384.0,68.8 385.6,73.1 387.2,74.0 388.8,74.0 390.5,74.0 392.1,72.7 393.7,74.0 395.3,73.6 396.9,74.0 398.5,73.1 400.2,74.0 401.8,74.0 403.4,74.0 405.0,74.0 406.6,74.0 408.2,74.0 409.8,73.6 411.5,74.0 413.1,74.0 414.7,74.0 416.3,74.0 417.9,74.0 419.5,74.0 421.2,74.0 422.8,74.0 424.4,73.6 426.0,73.6 427.6,74.0 429.2,73.6 430.8,74.0 432.5,74.0 434.1,71.4 435.7,74.0 437.3,74.0 438.9,74.0 440.5,74.0 442.2,74.0 443.8,74.0 445.4,74.0 447.0,74.0 448.6,73.6 450.2,72.7 451.8,73.6 453.5,68.3 455.1,73.6 456.7,64.4 458.3,66.6 459.9,66.6 461.5,74.0 463.2,70.9 464.8,74.0 466.4,74.0 468.0,74.0 469.6,74.0 471.2,74.0 472.8,73.1 474.5,73.6 476.1,74.0 477.7,71.8 479.3,74.0 480.9,74.0 482.5,72.3 484.2,74.0 485.8,73.6 487.4,74.0 489.0,74.0 490.6,74.0 492.2,74.0 493.8,74.0 495.5,74.0 497.1,73.6 498.7,73.6 500.3,74.0 501.9,74.0 503.5,74.0 505.2,74.0 506.8,73.1 508.4,74.0 510.0,74.0 511.6,74.0 513.2,68.8 514.8,74.0 516.5,74.0 518.1,72.3 519.7,74.0 521.3,73.1 522.9,73.1 524.5,74.0 526.2,74.0 527.8,74.0 529.4,74.0 531.0,72.7 532.6,73.6 534.2,74.0 535.8,74.0 537.5,74.0 539.1,74.0 540.7,74.0 542.3,74.0 543.9,74.0 545.5,74.0 547.2,74.0 548.8,74.0 550.4,74.0 552.0,74.0 553.6,74.0 555.2,74.0 556.8,74.0 558.5,74.0 560.1,74.0 561.7,74.0 563.3,74.0 564.9,74.0 566.5,74.0 568.2,74.0 569.8,74.0 571.4,74.0 573.0,74.0 574.6,72.3 576.2,73.6 577.8,74.0 579.5,74.0 581.1,74.0 582.7,74.0 584.3,71.8 585.9,72.3 587.5,74.0 589.2,73.6 590.8,74.0 592.4,74.0 594.0,74.0"/>
  <polygon points="6.0,74.0 7.6,74.0 9.2,74.0 10.8,74.0 12.5,74.0 14.1,74.0 15.7,74.0 17.3,74.0 18.9,74.0 20.5,74.0 22.2,74.0 23.8,74.0 25.4,74.0 27.0,74.0 28.6,74.0 30.2,74.0 31.8,74.0 33.5,74.0 35.1,74.0 36.7,74.0 38.3,74.0 39.9,74.0 41.5,74.0 43.2,74.0 44.8,74.0 46.4,74.0 48.0,74.0 49.6,73.6 51.2,73.1 52.8,74.0 54.5,74.0 56.1,74.0 57.7,74.0 59.3,74.0 60.9,74.0 62.5,73.1 64.2,73.1 65.8,74.0 67.4,74.0 69.0,67.9 70.6,50.5 72.2,63.5 73.8,73.1 75.5,70.9 77.1,69.6 78.7,74.0 80.3,74.0 81.9,73.1 83.5,74.0 85.2,70.5 86.8,73.6 88.4,74.0 90.0,74.0 91.6,74.0 93.2,70.5 94.8,71.8 96.5,46.1 98.1,39.1 99.7,71.4 101.3,48.7 102.9,51.8 104.5,64.4 106.2,57.4 107.8,71.4 109.4,72.3 111.0,74.0 112.6,74.0 114.2,74.0 115.8,74.0 117.5,74.0 119.1,69.2 120.7,69.2 122.3,72.3 123.9,71.4 125.5,67.5 127.2,74.0 128.8,70.5 130.4,74.0 132.0,74.0 133.6,74.0 135.2,73.1 136.8,71.8 138.5,74.0 140.1,74.0 141.7,74.0 143.3,74.0 144.9,74.0 146.5,74.0 148.2,6.0 149.8,25.6 151.4,70.5 153.0,62.7 154.6,74.0 156.2,64.0 157.8,57.0 159.5,73.6 161.1,74.0 162.7,74.0 164.3,74.0 165.9,66.6 167.5,70.9 169.2,70.5 170.8,73.1 172.4,71.8 174.0,73.6 175.6,74.0 177.2,74.0 178.8,73.1 180.5,74.0 182.1,74.0 183.7,74.0 185.3,74.0 186.9,74.0 188.5,74.0 190.2,74.0 191.8,74.0 193.4,74.0 195.0,74.0 196.6,74.0 198.2,74.0 199.8,74.0 201.5,74.0 203.1,74.0 204.7,73.6 206.3,74.0 207.9,74.0 209.5,74.0 211.2,74.0 212.8,74.0 214.4,74.0 216.0,74.0 217.6,72.7 219.2,74.0 220.8,74.0 222.5,73.6 224.1,74.0 225.7,74.0 227.3,74.0 228.9,74.0 230.5,74.0 232.2,74.0 233.8,74.0 235.4,74.0 237.0,74.0 238.6,74.0 240.2,74.0 241.8,70.5 243.5,70.9 245.1,74.0 246.7,73.1 248.3,73.6 249.9,73.6 251.5,69.2 253.2,69.2 254.8,74.0 256.4,74.0 258.0,74.0 259.6,73.1 261.2,57.9 262.8,73.1 264.5,73.1 266.1,73.6 267.7,68.3 269.3,72.7 270.9,74.0 272.5,73.6 274.2,74.0 275.8,74.0 277.4,74.0 279.0,74.0 280.6,74.0 282.2,70.1 283.8,73.6 285.5,74.0 287.1,74.0 288.7,74.0 290.3,74.0 291.9,74.0 293.5,74.0 295.2,70.1 296.8,73.6 298.4,74.0 300.0,74.0 301.6,74.0 303.2,74.0 304.8,74.0 306.5,74.0 308.1,74.0 309.7,74.0 311.3,74.0 312.9,73.6 314.5,74.0 316.2,74.0 317.8,73.1 319.4,73.6 321.0,74.0 322.6,74.0 324.2,74.0 325.8,74.0 327.5,74.0 329.1,74.0 330.7,74.0 332.3,74.0 333.9,73.1 335.5,73.6 337.2,74.0 338.8,74.0 340.4,74.0 342.0,74.0 343.6,74.0 345.2,74.0 346.8,74.0 348.5,74.0 350.1,74.0 351.7,74.0 353.3,74.0 354.9,74.0 356.5,74.0 358.2,74.0 359.8,74.0 361.4,74.0 363.0,74.0 364.6,74.0 366.2,74.0 367.8,74.0 369.5,74.0 371.1,74.0 372.7,74.0 374.3,74.0 375.9,74.0 377.5,74.0 379.2,74.0 380.8,74.0 382.4,73.6 384.0,68.8 385.6,73.1 387.2,74.0 388.8,74.0 390.5,74.0 392.1,72.7 393.7,74.0 395.3,73.6 396.9,74.0 398.5,73.1 400.2,74.0 401.8,74.0 403.4,74.0 405.0,74.0 406.6,74.0 408.2,74.0 409.8,73.6 411.5,74.0 413.1,74.0 414.7,74.0 416.3,74.0 417.9,74.0 419.5,74.0 421.2,74.0 422.8,74.0 424.4,73.6 426.0,73.6 427.6,74.0 429.2,73.6 430.8,74.0 432.5,74.0 434.1,71.4 435.7,74.0 437.3,74.0 438.9,74.0 440.5,74.0 442.2,74.0 443.8,74.0 445.4,74.0 447.0,74.0 448.6,73.6 450.2,72.7 451.8,73.6 453.5,68.3 455.1,73.6 456.7,64.4 458.3,66.6 459.9,66.6 461.5,74.0 463.2,70.9 464.8,74.0 466.4,74.0 468.0,74.0 469.6,74.0 471.2,74.0 472.8,73.1 474.5,73.6 476.1,74.0 477.7,71.8 479.3,74.0 480.9,74.0 482.5,72.3 484.2,74.0 485.8,73.6 487.4,74.0 489.0,74.0 490.6,74.0 492.2,74.0 493.8,74.0 495.5,74.0 497.1,73.6 498.7,73.6 500.3,74.0 501.9,74.0 503.5,74.0 505.2,74.0 506.8,73.1 508.4,74.0 510.0,74.0 511.6,74.0 513.2,68.8 514.8,74.0 516.5,74.0 518.1,72.3 519.7,74.0 521.3,73.1 522.9,73.1 524.5,74.0 526.2,74.0 527.8,74.0 529.4,74.0 531.0,72.7 532.6,73.6 534.2,74.0 535.8,74.0 537.5,74.0 539.1,74.0 540.7,74.0 542.3,74.0 543.9,74.0 545.5,74.0 547.2,74.0 548.8,74.0 550.4,74.0 552.0,74.0 553.6,74.0 555.2,74.0 556.8,74.0 558.5,74.0 560.1,74.0 561.7,74.0 563.3,74.0 564.9,74.0 566.5,74.0 568.2,74.0 569.8,74.0 571.4,74.0 573.0,74.0 574.6,72.3 576.2,73.6 577.8,74.0 579.5,74.0 581.1,74.0 582.7,74.0 584.3,71.8 585.9,72.3 587.5,74.0 589.2,73.6 590.8,74.0 592.4,74.0 594.0,74.0 594.0,74 6.0,74" fill="url(#g)"/>
  <text x="594" y="76" font-size="10" text-anchor="end" fill="#888">through 2026-07-09 (UTC)</text>
</svg>