<svg xmlns="http://www.w3.org/2000/svg" width="600" height="80" viewBox="0 0 600 80">
  <defs>
    <linearGradient id="g" x1="0" x2="0" y1="0" y2="1">
      <stop offset="0%" stop-color="#4ea1ff" stop-opacity="0.6"/>
      <stop offset="100%" stop-color="#4ea1ff" stop-opacity="0.05"/>
    </linearGradient>
  </defs>
  <rect width="100%" height="100%" fill="transparent"/>
  <polyline fill="none" stroke="#4ea1ff" stroke-width="2" points="6.0,74.0 7.6,74.0 9.2,74.0 10.8,74.0 12.5,74.0 14.1,74.0 15.7,74.0 17.3,74.0 18.9,74.0 20.5,74.0 22.2,74.0 23.8,74.0 25.4,74.0 27.0,74.0 28.6,74.0 30.2,74.0 31.8,74.0 33.5,74.0 35.1,74.0 36.7,74.0 38.3,74.0 39.9,74.0 41.5,74.0 43.2,74.0 44.8,74.0 46.4,74.0 48.0,74.0 49.6,74.0 51.2,74.0 52.8,74.0 54.5,74.0 56.1,74.0 57.7,74.0 59.3,74.0 60.9,74.0 62.5,74.0 64.2,74.0 65.8,74.0 67.4,74.0 69.0,74.0 70.6,74.0 72.2,74.0 73.8,74.0 75.5,74.0 77.1,74.0 78.7,74.0 80.3,74.0 81.9,74.0 83.5,74.0 85.2,74.0 86.8,74.0 88.4,74.0 90.0,74.0 91.6,74.0 93.2,74.0 94.8,74.0 96.5,74.0 98.1,74.0 99.7,74.0 101.3,74.0 102.9,74.0 104.5,74.0 106.2,74.0 107.8,74.0 109.4,74.0 111.0,74.0 112.6,74.0 114.2,74.0 115.8,74.0 117.5,74.0 119.1,74.0 120.7,74.0 122.3,74.0 123.9,74.0 125.5,74.0 127.2,74.0 128.8,74.0 130.4,74.0 132.0,74.0 133.6,74.0 135.2,74.0 136.8,74.0 138.5,74.0 140.1,74.0 141.7,74.0 143.3,74.0 144.9,74.0 146.5,74.0 148.2,74.0 149.8,74.0 151.4,74.0 153.0,74.0 154.6,74.0 156.2,74.0 157.8,74.0 159.5,74.0 161.1,74.0 162.7,74.0 164.3,74.0 165.9,74.0 167.5,74.0 169.2,74.0 170.8,74.0 172.4,74.0 174.0,74.0 175.6,74.0 177.2,74.0 178.8,74.0 180.5,73.6 182.1,73.2 183.7,74.0 185.3,74.0 186.9,74.0 188.5,74.0 190.2,74.0 191.8,74.0 193.4,73.2 195.0,73.2 196.6,74.0 198.2,74.0 199.8,68.1 201.5,51.2 203.1,63.4 204.7,73.2 206.3,71.0 207.9,69.8 209.5,74.0 211.2,74.0 212.8,73.2 214.4,74.0 216.0,70.6 217.6,73.6 219.2,74.0 220.8,74.0 222.5,74.0 224.1,68.1 225.7,71.9 227.3,47.0 228.9,40.2 230.5,71.5 232.2,49.5 233.8,52.5 235.4,64.7 237.0,58.0 238.6,71.5 240.2,72.3 241.8,74.0 243.5,74.0 245.1,74.0 246.7,74.0 248.3,74.0 249.9,69.4 251.5,69.4 253.2,72.3 254.8,71.5 256.4,67.7 258.0,74.0 259.6,70.6 261.2,74.0 262.8,74.0 264.5,74.0 266.1,73.2 267.7,71.9 269.3,74.0 270.9,74.0 272.5,74.0 274.2,74.0 275.8,74.0 277.4,74.0 279.0,6.0 280.6,25.9 282.2,70.6 283.8,62.6 285.5,74.0 287.1,64.3 288.7,57.5 290.3,73.6 291.9,74.0 293.5,74.0 295.2,74.0 296.8,66.8 298.4,71.0 300.0,69.4 301.6,73.2 303.2,71.9 304.8,73.6 306.5,74.0 308.1,74.0 309.7,73.2 311.3,74.0 312.9,74.0 314.5,74.0 316.2,74.0 317.8,74.0 319.4,74.0 321.0,74.0 322.6,74.0 324.2,74.0 325.8,74.0 327.5,74.0 329.1,74.0 330.7,74.0 332.3,74.0 333.9,74.0 335.5,71.0 337.2,74.0 338.8,74.0 340.4,74.0 342.0,74.0 343.6,74.0 345.2,74.0 346.8,74.0 348.5,72.7 350.1,74.0 351.7,74.0 353.3,71.5 354.9,74.0 356.5,74.0 358.2,74.0 359.8,74.0 361.4,74.0 363.0,74.0 364.6,74.0 366.2,74.0 367.8,74.0 369.5,74.0 371.1,74.0 372.7,70.2 374.3,71.0 375.9,74.0 377.5,73.2 379.2,73.6 380.8,73.6 382.4,69.4 384.0,69.4 385.6,74.0 387.2,74.0 388.8,74.0 390.5,73.2 392.1,57.5 393.7,73.2 395.3,73.2 396.9,73.6 398.5,68.5 400.2,72.7 401.8,74.0 403.4,73.6 405.0,74.0 406.6,74.0 408.2,74.0 409.8,74.0 411.5,74.0 413.1,70.2 414.7,73.6 416.3,74.0 417.9,74.0 419.5,74.0 421.2,74.0 422.8,74.0 424.4,74.0 426.0,70.2 427.6,73.6 429.2,74.0 430.8,74.0 432.5,74.0 434.1,74.0 435.7,74.0 437.3,74.0 438.9,74.0 440.5,74.0 442.2,74.0 443.8,73.6 445.4,74.0 447.0,74.0 448.6,73.2 450.2,73.6 451.8,74.0 453.5,74.0 455.1,74.0 456.7,74.0 458.3,74.0 459.9,74.0 461.5,74.0 463.2,74.0 464.8,73.2 466.4,73.6 468.0,74.0 469.6,74.0 471.2,74.0 472.8,74.0 474.5,74.0 476.1,74.0 477.7,74.0 479.3,74.0 480.9,74.0 482.5,74.0 484.2,74.0 485.8,74.0 487.4,74.0 489.0,74.0 490.6,74.0 492.2,74.0 493.8,74.0 495.5,74.0 497.1,74.0 498.7,74.0 500.3,74.0 501.9,74.0 503.5,74.0 505.2,74.0 506.8,74.0 508.4,74.0 510.0,74.0 511.6,74.0 513.2,73.6 514.8,65.1 516.5,71.5 518.1,74.0 519.7,74.0 521.3,74.0 522.9,72.3 524.5,73.6 526.2,73.2 527.8,74.0 529.4,73.2 531.0,74.0 532.6,74.0 534.2,74.0 535.8,74.0 537.5,74.0 539.1,74.0 540.7,73.6 542.3,74.0 543.9,74.0 545.5,74.0 547.2,74.0 548.8,74.0 550.4,74.0 552.0,74.0 553.6,74.0 555.2,73.6 556.8,73.6 558.5,74.0 560.1,73.6 561.7,74.0 563.3,74.0 564.9,71.5 566.5,74.0 568.2,74.0 569.8,74.0 571.4,72.7 573.0,74.0 574.6,74.0 576.2,74.0 577.8,74.0 579.5,73.6 581.1,72.7 582.7,73.6 584.3,68.5 585.9,73.6 587.5,64.7 589.2,66.8 590.8,66.8 592.4,74.0 594.0,72.7"/>
  <polygon points="6.0,74.0 7.6,74.0 9.2,74.0 10.8,74.0 12.5,74.0 14.1,74.0 15.7,74.0 17.3,74.0 18.9,74.0 20.5,74.0 22.2,74.0 23.8,74.0 25.4,74.0 27.0,74.0 28.6,74.0 30.2,74.0 31.8,74.0 33.5,74.0 35.1,74.0 36.7,74.0 38.3,74.0 39.9,74.0 41.5,74.0 43.2,74.0 44.8,74.0 46.4,74.0 48.0,74.0 49.6,74.0 51.2,74.0 52.8,74.0 54.5,74.0 56.1,74.0 57.7,74.0 59.3,74.0 60.9,74.0 62.5,74.0 64.2,74.0 65.8,74.0 67.4,74.0 69.0,74.0 70.6,74.0 72.2,74.0 73.8,74.0 75.5,74.0 77.1,74.0 78.7,74.0 80.3,74.0 81.9,74.0 83.5,74.0 85.2,74.0 86.8,74.0 88.4,74.0 90.0,74.0 91.6,74.0 93.2,74.0 94.8,74.0 96.5,74.0 98.1,74.0 99.7,74.0 101.3,74.0 102.9,74.0 104.5,74.0 106.2,74.0 107.8,74.0 109.4,74.0 111.0,74.0 112.6,74.0 114.2,74.0 115.8,74.0 117.5,74.0 119.1,74.0 120.7,74.0 122.3,74.0 123.9,74.0 125.5,74.0 127.2,74.0 128.8,74.0 130.4,74.0 132.0,74.0 133.6,74.0 135.2,74.0 136.8,74.0 138.5,74.0 140.1,74.0 141.7,74.0 143.3,74.0 144.9,74.0 146.5,74.0 148.2,74.0 149.8,74.0 151.4,74.0 153.0,74.0 154.6,74.0 156.2,74.0 157.8,74.0 159.5,74.0 161.1,74.0 162.7,74.0 164.3,74.0 165.9,74.0 167.5,74.0 169.2,74.0 170.8,74.0 172.4,74.0 174.0,74.0 175.6,74.0 177.2,74.0 178.8,74.0 180.5,73.6 182.1,73.2 183.7,74.0 185.3,74.0 186.9,74.0 188.5,74.0 190.2,74.0 191.8,74.0 193.4,73.2 195.0,73.2 196.6,74.0 198.2,74.0 199.8,68.1 201.5,51.2 203.1,63.4 204.7,73.2 206.3,71.0 207.9,69.8 209.5,74.0 211.2,74.0 212.8,73.2 214.4,74.0 216.0,70.6 217.6,73.6 219.2,74.0 220.8,74.0 222.5,74.0 224.1,68.1 225.7,71.9 227.3,47.0 228.9,40.2 230.5,71.5 232.2,49.5 233.8,52.5 235.4,64.7 237.0,58.0 238.6,71.5 240.2,72.3 241.8,74.0 243.5,74.0 245.1,74.0 246.7,74.0 248.3,74.0 249.9,69.4 251.5,69.4 253.2,72.3 254.8,71.5 256.4,67.7 258.0,74.0 259.6,70.6 261.2,74.0 262.8,74.0 264.5,74.0 266.1,73.2 267.7,71.9 269.3,74.0 270.9,74.0 272.5,74.0 274.2,74.0 275.8,74.0 277.4,74.0 279.0,6.0 280.6,25.9 282.2,70.6 283.8,62.6 285.5,74.0 287.1,64.3 288.7,57.5 290.3,73.6 291.9,74.0 293.5,74.0 295.2,74.0 296.8,66.8 298.4,71.0 300.0,69.4 301.6,73.2 303.2,71.9 304.8,73.6 306.5,74.0 308.1,74.0 309.7,73.2 311.3,74.0 312.9,74.0 314.5,74.0 316.2,74.0 317.8,74.0 319.4,74.0 321.0,74.0 322.6,74.0 324.2,74.0 325.8,74.0 327.5,74.0 329.1,74.0 330.7,74.0 332.3,74.0 333.9,74.0 335.5,71.0 337.2,74.0 338.8,74.0 340.4,74.0 342.0,74.0 343.6,74.0 345.2,74.0 346.8,74.0 348.5,72.7 350.1,74.0 351.7,74.0 353.3,71.5 354.9,74.0 356.5,74.0 358.2,74.0 359.8,74.0 361.4,74.0 363.0,74.0 364.6,74.0 366.2,74.0 367.8,74.0 369.5,74.0 371.1,74.0 372.7,70.2 374.3,71.0 375.9,74.0 377.5,73.2 379.2,73.6 380.8,73.6 382.4,69.4 384.0,69.4 385.6,74.0 387.2,74.0 388.8,74.0 390.5,73.2 392.1,57.5 393.7,73.2 395.3,73.2 396.9,73.6 398.5,68.5 400.2,72.7 401.8,74.0 403.4,73.6 405.0,74.0 406.6,74.0 408.2,74.0 409.8,74.0 411.5,74.0 413.1,70.2 414.7,73.6 416.3,74.0 417.9,74.0 419.5,74.0 421.2,74.0 422.8,74.0 424.4,74.0 426.0,70.2 427.6,73.6 429.2,74.0 430.8,74.0 432.5,74.0 434.1,74.0 435.7,74.0 437.3,74.0 438.9,74.0 440.5,74.0 442.2,74.0 443.8,73.6 445.4,74.0 447.0,74.0 448.6,73.2 450.2,73.6 451.8,74.0 453.5,74.0 455.1,74.0 456.7,74.0 458.3,74.0 459.9,74.0 461.5,74.0 463.2,74.0 464.8,73.2 466.4,73.6 468.0,74.0 469.6,74.0 471.2,74.0 472.8,74.0 474.5,74.0 476.1,74.0 477.7,74.0 479.3,74.0 480.9,74.0 482.5,74.0 484.2,74.0 485.8,74.0 487.4,74.0 489.0,74.0 490.6,74.0 492.2,74.0 493.8,74.0 495.5,74.0 497.1,74.0 498.7,74.0 500.3,74.0 501.9,74.0 503.5,74.0 505.2,74.0 506.8,74.0 508.4,74.0 510.0,74.0 511.6,74.0 513.2,73.6 514.8,65.1 516.5,71.5 518.1,74.0 519.7,74.0 521.3,74.0 522.9,72.3 524.5,73.6 526.2,73.2 527.8,74.0 529.4,73.2 531.0,74.0 532.6,74.0 534.2,74.0 535.8,74.0 537.5,74.0 539.1,74.0 540.7,73.6 542.3,74.0 543.9,74.0 545.5,74.0 547.2,74.0 548.8,74.0 550.4,74.0 552.0,74.0 553.6,74.0 555.2,73.6 556.8,73.6 558.5,74.0 560.1,73.6 561.7,74.0 563.3,74.0 564.9,71.5 566.5,74.0 568.2,74.0 569.8,74.0 571.4,72.7 573.0,74.0 574.6,74.0 576.2,74.0 577.8,74.0 579.5,73.6 581.1,72.7 582.7,73.6 584.3,68.5 585.9,73.6 587.5,64.7 589.2,66.8 590.8,66.8 592.4,74.0 594.0,72.7 594.0,74 6.0,74" fill="url(#g)"/>
  <text x="594" y="76" font-size="10" text-anchor="end" fill="#888">through 2026-04-19 (UTC)</text>
</svg>