<svg xmlns="http://www.w3.org/2000/svg" width="600" height="80" viewBox="0 0 600 80">
  <defs>
    <linearGradient id="g" x1="0" x2="0" y1="0" y2="1">
      <stop offset="0%" stop-color="#4ea1ff" stop-opacity="0.6"/>
      <stop offset="100%" stop-color="#4ea1ff" stop-opacity="0.05"/>
    </linearGradient>
  </defs>
  <rect width="100%" height="100%" fill="transparent"/>
  <polyline fill="none" stroke="#4ea1ff" stroke-width="2" points="6.0,74.0 7.6,74.0 9.2,74.0 10.8,74.0 12.5,74.0 14.1,74.0 15.7,74.0 17.3,74.0 18.9,74.0 20.5,74.0 22.2,74.0 23.8,74.0 25.4,74.0 27.0,74.0 28.6,74.0 30.2,74.0 31.8,74.0 33.5,74.0 35.1,74.0 36.7,74.0 38.3,74.0 39.9,74.0 41.5,74.0 43.2,74.0 44.8,74.0 46.4,74.0 48.0,74.0 49.6,74.0 51.2,74.0 52.8,74.0 54.5,74.0 56.1,74.0 57.7,74.0 59.3,74.0 60.9,74.0 62.5,74.0 64.2,74.0 65.8,74.0 67.4,74.0 69.0,74.0 70.6,74.0 72.2,74.0 73.8,74.0 75.5,74.0 77.1,74.0 78.7,74.0 80.3,74.0 81.9,74.0 83.5,74.0 85.2,74.0 86.8,74.0 88.4,74.0 90.0,74.0 91.6,74.0 93.2,74.0 94.8,73.6 96.5,73.1 98.1,74.0 99.7,74.0 101.3,74.0 102.9,74.0 104.5,74.0 106.2,74.0 107.8,73.1 109.4,73.1 111.0,74.0 112.6,74.0 114.2,67.9 115.8,50.5 117.5,63.5 119.1,73.1 120.7,70.9 122.3,69.6 123.9,74.0 125.5,74.0 127.2,73.1 128.8,74.0 130.4,70.5 132.0,73.6 133.6,74.0 135.2,74.0 136.8,74.0 138.5,70.5 140.1,71.8 141.7,46.1 143.3,39.1 144.9,71.4 146.5,48.7 148.2,51.8 149.8,64.4 151.4,57.4 153.0,71.4 154.6,72.3 156.2,74.0 157.8,74.0 159.5,74.0 161.1,74.0 162.7,74.0 164.3,69.2 165.9,69.2 167.5,72.3 169.2,71.4 170.8,67.5 172.4,74.0 174.0,70.5 175.6,74.0 177.2,74.0 178.8,74.0 180.5,73.1 182.1,71.8 183.7,74.0 185.3,74.0 186.9,74.0 188.5,74.0 190.2,74.0 191.8,74.0 193.4,6.0 195.0,25.6 196.6,70.5 198.2,62.7 199.8,74.0 201.5,64.0 203.1,57.0 204.7,73.6 206.3,74.0 207.9,74.0 209.5,74.0 211.2,66.6 212.8,70.9 214.4,70.5 216.0,73.1 217.6,71.8 219.2,73.6 220.8,74.0 222.5,74.0 224.1,73.1 225.7,74.0 227.3,74.0 228.9,74.0 230.5,74.0 232.2,74.0 233.8,74.0 235.4,74.0 237.0,74.0 238.6,74.0 240.2,74.0 241.8,74.0 243.5,74.0 245.1,74.0 246.7,74.0 248.3,74.0 249.9,73.6 251.5,74.0 253.2,74.0 254.8,74.0 256.4,74.0 258.0,74.0 259.6,74.0 261.2,74.0 262.8,72.7 264.5,74.0 266.1,74.0 267.7,73.6 269.3,74.0 270.9,74.0 272.5,74.0 274.2,74.0 275.8,74.0 277.4,74.0 279.0,74.0 280.6,74.0 282.2,74.0 283.8,74.0 285.5,74.0 287.1,70.5 288.7,70.9 290.3,74.0 291.9,73.1 293.5,73.6 295.2,73.6 296.8,69.2 298.4,69.2 300.0,74.0 301.6,74.0 303.2,74.0 304.8,73.1 306.5,57.9 308.1,73.1 309.7,73.1 311.3,73.6 312.9,68.3 314.5,72.7 316.2,74.0 317.8,73.6 319.4,74.0 321.0,74.0 322.6,74.0 324.2,74.0 325.8,74.0 327.5,70.1 329.1,73.6 330.7,74.0 332.3,74.0 333.9,74.0 335.5,74.0 337.2,74.0 338.8,74.0 340.4,70.1 342.0,73.6 343.6,74.0 345.2,74.0 346.8,74.0 348.5,74.0 350.1,74.0 351.7,74.0 353.3,74.0 354.9,74.0 356.5,74.0 358.2,73.6 359.8,74.0 361.4,74.0 363.0,73.1 364.6,73.6 366.2,74.0 367.8,74.0 369.5,74.0 371.1,74.0 372.7,74.0 374.3,74.0 375.9,74.0 377.5,74.0 379.2,73.1 380.8,73.6 382.4,74.0 384.0,74.0 385.6,74.0 387.2,74.0 388.8,74.0 390.5,74.0 392.1,74.0 393.7,74.0 395.3,74.0 396.9,74.0 398.5,74.0 400.2,74.0 401.8,74.0 403.4,74.0 405.0,74.0 406.6,74.0 408.2,74.0 409.8,74.0 411.5,74.0 413.1,74.0 414.7,74.0 416.3,74.0 417.9,74.0 419.5,74.0 421.2,74.0 422.8,74.0 424.4,74.0 426.0,74.0 427.6,73.6 429.2,68.8 430.8,73.1 432.5,74.0 434.1,74.0 435.7,74.0 437.3,72.7 438.9,74.0 440.5,73.6 442.2,74.0 443.8,73.1 445.4,74.0 447.0,74.0 448.6,74.0 450.2,74.0 451.8,74.0 453.5,74.0 455.1,73.6 456.7,74.0 458.3,74.0 459.9,74.0 461.5,74.0 463.2,74.0 464.8,74.0 466.4,74.0 468.0,74.0 469.6,73.6 471.2,73.6 472.8,74.0 474.5,73.6 476.1,74.0 477.7,74.0 479.3,71.4 480.9,74.0 482.5,74.0 484.2,74.0 485.8,74.0 487.4,74.0 489.0,74.0 490.6,74.0 492.2,74.0 493.8,73.6 495.5,72.7 497.1,73.6 498.7,68.3 500.3,73.6 501.9,64.4 503.5,66.6 505.2,66.6 506.8,74.0 508.4,70.9 510.0,74.0 511.6,74.0 513.2,74.0 514.8,74.0 516.5,74.0 518.1,73.1 519.7,73.6 521.3,74.0 522.9,71.8 524.5,74.0 526.2,74.0 527.8,72.3 529.4,74.0 531.0,73.6 532.6,74.0 534.2,74.0 535.8,74.0 537.5,74.0 539.1,74.0 540.7,74.0 542.3,73.6 543.9,73.6 545.5,74.0 547.2,74.0 548.8,74.0 550.4,74.0 552.0,73.1 553.6,74.0 555.2,74.0 556.8,74.0 558.5,68.8 560.1,74.0 561.7,74.0 563.3,72.3 564.9,74.0 566.5,73.1 568.2,73.1 569.8,74.0 571.4,74.0 573.0,74.0 574.6,74.0 576.2,72.7 577.8,73.6 579.5,74.0 581.1,74.0 582.7,74.0 584.3,74.0 585.9,74.0 587.5,74.0 589.2,74.0 590.8,74.0 592.4,74.0 594.0,74.0"/>
  <polygon points="6.0,74.0 7.6,74.0 9.2,74.0 10.8,74.0 12.5,74.0 14.1,74.0 15.7,74.0 17.3,74.0 18.9,74.0 20.5,74.0 22.2,74.0 23.8,74.0 25.4,74.0 27.0,74.0 28.6,74.0 30.2,74.0 31.8,74.0 33.5,74.0 35.1,74.0 36.7,74.0 38.3,74.0 39.9,74.0 41.5,74.0 43.2,74.0 44.8,74.0 46.4,74.0 48.0,74.0 49.6,74.0 51.2,74.0 52.8,74.0 54.5,74.0 56.1,74.0 57.7,74.0 59.3,74.0 60.9,74.0 62.5,74.0 64.2,74.0 65.8,74.0 67.4,74.0 69.0,74.0 70.6,74.0 72.2,74.0 73.8,74.0 75.5,74.0 77.1,74.0 78.7,74.0 80.3,74.0 81.9,74.0 83.5,74.0 85.2,74.0 86.8,74.0 88.4,74.0 90.0,74.0 91.6,74.0 93.2,74.0 94.8,73.6 96.5,73.1 98.1,74.0 99.7,74.0 101.3,74.0 102.9,74.0 104.5,74.0 106.2,74.0 107.8,73.1 109.4,73.1 111.0,74.0 112.6,74.0 114.2,67.9 115.8,50.5 117.5,63.5 119.1,73.1 120.7,70.9 122.3,69.6 123.9,74.0 125.5,74.0 127.2,73.1 128.8,74.0 130.4,70.5 132.0,73.6 133.6,74.0 135.2,74.0 136.8,74.0 138.5,70.5 140.1,71.8 141.7,46.1 143.3,39.1 144.9,71.4 146.5,48.7 148.2,51.8 149.8,64.4 151.4,57.4 153.0,71.4 154.6,72.3 156.2,74.0 157.8,74.0 159.5,74.0 161.1,74.0 162.7,74.0 164.3,69.2 165.9,69.2 167.5,72.3 169.2,71.4 170.8,67.5 172.4,74.0 174.0,70.5 175.6,74.0 177.2,74.0 178.8,74.0 180.5,73.1 182.1,71.8 183.7,74.0 185.3,74.0 186.9,74.0 188.5,74.0 190.2,74.0 191.8,74.0 193.4,6.0 195.0,25.6 196.6,70.5 198.2,62.7 199.8,74.0 201.5,64.0 203.1,57.0 204.7,73.6 206.3,74.0 207.9,74.0 209.5,74.0 211.2,66.6 212.8,70.9 214.4,70.5 216.0,73.1 217.6,71.8 219.2,73.6 220.8,74.0 222.5,74.0 224.1,73.1 225.7,74.0 227.3,74.0 228.9,74.0 230.5,74.0 232.2,74.0 233.8,74.0 235.4,74.0 237.0,74.0 238.6,74.0 240.2,74.0 241.8,74.0 243.5,74.0 245.1,74.0 246.7,74.0 248.3,74.0 249.9,73.6 251.5,74.0 253.2,74.0 254.8,74.0 256.4,74.0 258.0,74.0 259.6,74.0 261.2,74.0 262.8,72.7 264.5,74.0 266.1,74.0 267.7,73.6 269.3,74.0 270.9,74.0 272.5,74.0 274.2,74.0 275.8,74.0 277.4,74.0 279.0,74.0 280.6,74.0 282.2,74.0 283.8,74.0 285.5,74.0 287.1,70.5 288.7,70.9 290.3,74.0 291.9,73.1 293.5,73.6 295.2,73.6 296.8,69.2 298.4,69.2 300.0,74.0 301.6,74.0 303.2,74.0 304.8,73.1 306.5,57.9 308.1,73.1 309.7,73.1 311.3,73.6 312.9,68.3 314.5,72.7 316.2,74.0 317.8,73.6 319.4,74.0 321.0,74.0 322.6,74.0 324.2,74.0 325.8,74.0 327.5,70.1 329.1,73.6 330.7,74.0 332.3,74.0 333.9,74.0 335.5,74.0 337.2,74.0 338.8,74.0 340.4,70.1 342.0,73.6 343.6,74.0 345.2,74.0 346.8,74.0 348.5,74.0 350.1,74.0 351.7,74.0 353.3,74.0 354.9,74.0 356.5,74.0 358.2,73.6 359.8,74.0 361.4,74.0 363.0,73.1 364.6,73.6 366.2,74.0 367.8,74.0 369.5,74.0 371.1,74.0 372.7,74.0 374.3,74.0 375.9,74.0 377.5,74.0 379.2,73.1 380.8,73.6 382.4,74.0 384.0,74.0 385.6,74.0 387.2,74.0 388.8,74.0 390.5,74.0 392.1,74.0 393.7,74.0 395.3,74.0 396.9,74.0 398.5,74.0 400.2,74.0 401.8,74.0 403.4,74.0 405.0,74.0 406.6,74.0 408.2,74.0 409.8,74.0 411.5,74.0 413.1,74.0 414.7,74.0 416.3,74.0 417.9,74.0 419.5,74.0 421.2,74.0 422.8,74.0 424.4,74.0 426.0,74.0 427.6,73.6 429.2,68.8 430.8,73.1 432.5,74.0 434.1,74.0 435.7,74.0 437.3,72.7 438.9,74.0 440.5,73.6 442.2,74.0 443.8,73.1 445.4,74.0 447.0,74.0 448.6,74.0 450.2,74.0 451.8,74.0 453.5,74.0 455.1,73.6 456.7,74.0 458.3,74.0 459.9,74.0 461.5,74.0 463.2,74.0 464.8,74.0 466.4,74.0 468.0,74.0 469.6,73.6 471.2,73.6 472.8,74.0 474.5,73.6 476.1,74.0 477.7,74.0 479.3,71.4 480.9,74.0 482.5,74.0 484.2,74.0 485.8,74.0 487.4,74.0 489.0,74.0 490.6,74.0 492.2,74.0 493.8,73.6 495.5,72.7 497.1,73.6 498.7,68.3 500.3,73.6 501.9,64.4 503.5,66.6 505.2,66.6 506.8,74.0 508.4,70.9 510.0,74.0 511.6,74.0 513.2,74.0 514.8,74.0 516.5,74.0 518.1,73.1 519.7,73.6 521.3,74.0 522.9,71.8 524.5,74.0 526.2,74.0 527.8,72.3 529.4,74.0 531.0,73.6 532.6,74.0 534.2,74.0 535.8,74.0 537.5,74.0 539.1,74.0 540.7,74.0 542.3,73.6 543.9,73.6 545.5,74.0 547.2,74.0 548.8,74.0 550.4,74.0 552.0,73.1 553.6,74.0 555.2,74.0 556.8,74.0 558.5,68.8 560.1,74.0 561.7,74.0 563.3,72.3 564.9,74.0 566.5,73.1 568.2,73.1 569.8,74.0 571.4,74.0 573.0,74.0 574.6,74.0 576.2,72.7 577.8,73.6 579.5,74.0 581.1,74.0 582.7,74.0 584.3,74.0 585.9,74.0 587.5,74.0 589.2,74.0 590.8,74.0 592.4,74.0 594.0,74.0 594.0,74 6.0,74" fill="url(#g)"/>
  <text x="594" y="76" font-size="10" text-anchor="end" fill="#888">through 2026-06-11 (UTC)</text>
</svg>